<svg xmlns="http://www.w3.org/2000/svg" width="16" height="16" viewBox="0 0 16 16" shape-rendering="crispEdges">
  <!-- control_rod_drive_side，RECTANGLE格07：上1下1左1右0；仅面外沿加钢框。 -->
  <rect x="0" y="0" width="16" height="16" fill="#898B86"/>
  <rect x="0" y="0" width="16" height="16" fill="#898B86"/>
  <rect x="0" y="8" width="16" height="1" fill="#77817C"/>
  <rect x="2" y="3" width="2" height="1" fill="#45494B"/>
  <rect x="4" y="3" width="8" height="1" fill="#303638"/>
  <rect x="12" y="3" width="2" height="1" fill="#45494B"/>
  <rect x="2" y="4" width="2" height="1" fill="#45494B"/>
  <rect x="4" y="4" width="1" height="1" fill="#303638"/>
  <rect x="5" y="4" width="5" height="1" fill="#77817C"/>
  <rect x="10" y="4" width="1" height="1" fill="#D2A359"/>
  <rect x="11" y="4" width="1" height="1" fill="#303638"/>
  <rect x="12" y="4" width="2" height="1" fill="#45494B"/>
  <rect x="2" y="5" width="2" height="1" fill="#45494B"/>
  <rect x="4" y="5" width="1" height="1" fill="#303638"/>
  <rect x="5" y="5" width="5" height="1" fill="#77817C"/>
  <rect x="10" y="5" width="1" height="1" fill="#D2A359"/>
  <rect x="11" y="5" width="1" height="1" fill="#303638"/>
  <rect x="12" y="5" width="2" height="1" fill="#45494B"/>
  <rect x="2" y="6" width="2" height="1" fill="#45494B"/>
  <rect x="4" y="6" width="8" height="1" fill="#303638"/>
  <rect x="12" y="6" width="2" height="1" fill="#45494B"/>
  <rect x="2" y="7" width="3" height="1" fill="#D2A359"/>
  <rect x="5" y="7" width="6" height="1" fill="#45494B"/>
  <rect x="11" y="7" width="3" height="1" fill="#AD7A42"/>
  <rect x="2" y="8" width="12" height="1" fill="#45494B"/>
  <rect x="2" y="9" width="3" height="1" fill="#45494B"/>
  <rect x="5" y="9" width="6" height="1" fill="#303638"/>
  <rect x="11" y="9" width="3" height="1" fill="#45494B"/>
  <rect x="2" y="10" width="3" height="1" fill="#45494B"/>
  <rect x="5" y="10" width="1" height="1" fill="#303638"/>
  <rect x="6" y="10" width="1" height="1" fill="#66696A"/>
  <rect x="7" y="10" width="1" height="1" fill="#A5AAA1"/>
  <rect x="8" y="10" width="2" height="1" fill="#66696A"/>
  <rect x="10" y="10" width="1" height="1" fill="#303638"/>
  <rect x="11" y="10" width="3" height="1" fill="#45494B"/>
  <rect x="2" y="11" width="3" height="1" fill="#45494B"/>
  <rect x="5" y="11" width="1" height="1" fill="#303638"/>
  <rect x="6" y="11" width="1" height="1" fill="#66696A"/>
  <rect x="7" y="11" width="1" height="1" fill="#A5AAA1"/>
  <rect x="8" y="11" width="2" height="1" fill="#66696A"/>
  <rect x="10" y="11" width="1" height="1" fill="#303638"/>
  <rect x="11" y="11" width="3" height="1" fill="#45494B"/>
  <rect x="2" y="12" width="3" height="1" fill="#45494B"/>
  <rect x="5" y="12" width="6" height="1" fill="#303638"/>
  <rect x="11" y="12" width="3" height="1" fill="#45494B"/>
  <rect x="14" y="0" width="1" height="16" fill="#4B5351"/>
  <rect x="15" y="0" width="1" height="16" fill="#303638"/>
</svg>
