<svg xmlns="http://www.w3.org/2000/svg" width="760" height="300" viewBox="0 0 760 300">
<rect width="760" height="300" fill="#202a33"/><g fill="#4d5659" stroke="#11191d" stroke-width="3"><path d="M65 105h180v125H65z"/><path d="M65 105l70-45h180l-70 45z"/><path d="M245 105l70-45v125l-70 45z"/></g>
<g fill="#c06b39" stroke="#11191d" stroke-width="2"><path d="M100 102h9v-38h-9z"/><path d="M122 102h9v-38h-9z"/><path d="M144 102h9v-38h-9z"/><path d="M166 102h9v-38h-9z"/><path d="M188 102h9v-38h-9z"/></g>
<g fill="#e0e8ec" font-family="sans-serif" font-size="16"><text x="370" y="62">基座：Y=0..12，封闭完整覆盖方格</text><text x="370" y="97">鳍片：Y=12..16，沿Z方向平行排列</text><text x="370" y="132">北面冷出口；南面热入口；四朝向整体旋转</text><text x="370" y="167">左右侧与底部不画可接管接口</text><text x="370" y="202">旋转枢轴：方块中心 (8,8,8)</text><text x="370" y="237">热态提示条留在开放鳍片槽内</text></g></svg>