{
  "asset": {
    "version": "2.0",
    "generator": "Create Nuclear Industry PLANT3D-00"
  },
  "scene": 0,
  "scenes": [
    {
      "nodes": [0]
    }
  ],
  "nodes": [
    {
      "name": "ProbeTetrahedron",
      "mesh": 0
    }
  ],
  "meshes": [
    {
      "name": "ProbeTetrahedronMesh",
      "primitives": [
        {
          "attributes": {
            "POSITION": 0
          },
          "indices": 1,
          "material": 0
        }
      ]
    }
  ],
  "materials": [
    {
      "name": "ProbeMaterial",
      "pbrMetallicRoughness": {
        "baseColorFactor": [0.83, 0.64, 0.34, 1],
        "metallicFactor": 0.25,
        "roughnessFactor": 0.5
      }
    }
  ],
  "buffers": [
    {
      "uri": "data:application/octet-stream;base64,",
      "byteLength": 72
    }
  ],
  "bufferViews": [
    {
      "buffer": 0,
      "byteOffset": 0,
      "byteLength": 48,
      "target": 34962
    },
    {
      "buffer": 0,
      "byteOffset": 48,
      "byteLength": 24,
      "target": 34963
    }
  ],
  "accessors": [
    {
      "bufferView": 0,
      "componentType": 5126,
      "count": 4,
      "type": "VEC3",
      "min": [-0.8, -0.6, -0.8],
      "max": [0.8, 0.8, 0.6]
    },
    {
      "bufferView": 1,
      "componentType": 5123,
      "count": 12,
      "type": "SCALAR",
      "min": [0],
      "max": [3]
    }
  ]
}
