# 原创03A候选，方块单位，Y向上；外向绕序/UV/法线。
mtllib control_rod_shaft.mtl
o control_rod_shaft
v 0.200000000 1.000000000 0.200000000
v 0.800000000 1.000000000 0.200000000
v 0.800000000 0.000000000 0.200000000
v 0.200000000 0.000000000 0.200000000
vt 0.000000000 1.000000000
vt 0.500000000 1.000000000
vt 0.500000000 0.000000000
vt 0.000000000 0.000000000
vn -0.000000000 -0.000000000 -1.000000000
vn -0.000000000 -0.000000000 -1.000000000
vn -0.000000000 -0.000000000 -1.000000000
vn -0.000000000 -0.000000000 -1.000000000
g absorber_unit
usemtl control_rod
f 1/1/1 2/2/2 3/3/3 4/4/4
v 0.200000000 0.000000000 0.800000000
v 0.800000000 0.000000000 0.800000000
v 0.800000000 1.000000000 0.800000000
v 0.200000000 1.000000000 0.800000000
vt 0.000000000 0.000000000
vt 0.500000000 0.000000000
vt 0.500000000 1.000000000
vt 0.000000000 1.000000000
vn 0.000000000 0.000000000 1.000000000
vn 0.000000000 0.000000000 1.000000000
vn 0.000000000 0.000000000 1.000000000
vn 0.000000000 0.000000000 1.000000000
g absorber_unit
usemtl control_rod
f 5/5/5 6/6/6 7/7/7 8/8/8
v 0.200000000 0.000000000 0.200000000
v 0.200000000 0.000000000 0.800000000
v 0.200000000 1.000000000 0.800000000
v 0.200000000 1.000000000 0.200000000
vt 0.000000000 0.000000000
vt 0.500000000 0.000000000
vt 0.500000000 1.000000000
vt 0.000000000 1.000000000
vn -1.000000000 0.000000000 0.000000000
vn -1.000000000 0.000000000 0.000000000
vn -1.000000000 0.000000000 0.000000000
vn -1.000000000 0.000000000 0.000000000
g absorber_unit
usemtl control_rod
f 9/9/9 10/10/10 11/11/11 12/12/12
v 0.800000000 1.000000000 0.200000000
v 0.800000000 1.000000000 0.800000000
v 0.800000000 0.000000000 0.800000000
v 0.800000000 0.000000000 0.200000000
vt 0.000000000 1.000000000
vt 0.500000000 1.000000000
vt 0.500000000 0.000000000
vt 0.000000000 0.000000000
vn 1.000000000 -0.000000000 -0.000000000
vn 1.000000000 -0.000000000 -0.000000000
vn 1.000000000 -0.000000000 -0.000000000
vn 1.000000000 -0.000000000 -0.000000000
g absorber_unit
usemtl control_rod
f 13/13/13 14/14/14 15/15/15 16/16/16
v 0.200000000 0.000000000 0.200000000
v 0.800000000 0.000000000 0.200000000
v 0.800000000 0.000000000 0.800000000
v 0.200000000 0.000000000 0.800000000
vt 0.000000000 0.000000000
vt 0.500000000 0.000000000
vt 0.500000000 1.000000000
vt 0.000000000 1.000000000
vn 0.000000000 -1.000000000 0.000000000
vn 0.000000000 -1.000000000 0.000000000
vn 0.000000000 -1.000000000 0.000000000
vn 0.000000000 -1.000000000 0.000000000
g absorber_unit
usemtl control_rod
f 17/17/17 18/18/18 19/19/19 20/20/20
v 0.200000000 1.000000000 0.800000000
v 0.800000000 1.000000000 0.800000000
v 0.800000000 1.000000000 0.200000000
v 0.200000000 1.000000000 0.200000000
vt 0.000000000 1.000000000
vt 0.500000000 1.000000000
vt 0.500000000 0.000000000
vt 0.000000000 0.000000000
vn -0.000000000 1.000000000 -0.000000000
vn -0.000000000 1.000000000 -0.000000000
vn -0.000000000 1.000000000 -0.000000000
vn -0.000000000 1.000000000 -0.000000000
g absorber_unit
usemtl control_rod
f 21/21/21 22/22/22 23/23/23 24/24/24
