# 原创03A候选，方块单位，Y向上；外向绕序/UV/法线。
mtllib reactor_fuel_rod.mtl
o reactor_fuel_rod
v 0.000000000 0.125000000 0.000000000
v 1.000000000 0.125000000 0.000000000
v 1.000000000 0.000000000 0.000000000
v 0.000000000 0.000000000 0.000000000
vt 0.000000000 1.000000000
vt 1.000000000 1.000000000
vt 1.000000000 0.000000000
vt 0.000000000 0.000000000
vn -0.000000000 -0.000000000 -1.000000000
vn -0.000000000 -0.000000000 -1.000000000
vn -0.000000000 -0.000000000 -1.000000000
vn -0.000000000 -0.000000000 -1.000000000
g bottom_plate
usemtl fuel_rod_steel
f 1/1/1 2/2/2 3/3/3 4/4/4
v 0.000000000 0.000000000 1.000000000
v 1.000000000 0.000000000 1.000000000
v 1.000000000 0.125000000 1.000000000
v 0.000000000 0.125000000 1.000000000
vt 0.000000000 0.000000000
vt 1.000000000 0.000000000
vt 1.000000000 1.000000000
vt 0.000000000 1.000000000
vn 0.000000000 0.000000000 1.000000000
vn 0.000000000 0.000000000 1.000000000
vn 0.000000000 0.000000000 1.000000000
vn 0.000000000 0.000000000 1.000000000
g bottom_plate
usemtl fuel_rod_steel
f 5/5/5 6/6/6 7/7/7 8/8/8
v 0.000000000 0.000000000 0.000000000
v 0.000000000 0.000000000 1.000000000
v 0.000000000 0.125000000 1.000000000
v 0.000000000 0.125000000 0.000000000
vt 0.000000000 0.000000000
vt 1.000000000 0.000000000
vt 1.000000000 1.000000000
vt 0.000000000 1.000000000
vn -1.000000000 0.000000000 0.000000000
vn -1.000000000 0.000000000 0.000000000
vn -1.000000000 0.000000000 0.000000000
vn -1.000000000 0.000000000 0.000000000
g bottom_plate
usemtl fuel_rod_steel
f 9/9/9 10/10/10 11/11/11 12/12/12
v 1.000000000 0.125000000 0.000000000
v 1.000000000 0.125000000 1.000000000
v 1.000000000 0.000000000 1.000000000
v 1.000000000 0.000000000 0.000000000
vt 0.000000000 1.000000000
vt 1.000000000 1.000000000
vt 1.000000000 0.000000000
vt 0.000000000 0.000000000
vn 1.000000000 -0.000000000 -0.000000000
vn 1.000000000 -0.000000000 -0.000000000
vn 1.000000000 -0.000000000 -0.000000000
vn 1.000000000 -0.000000000 -0.000000000
g bottom_plate
usemtl fuel_rod_steel
f 13/13/13 14/14/14 15/15/15 16/16/16
v 0.000000000 0.000000000 0.000000000
v 1.000000000 0.000000000 0.000000000
v 1.000000000 0.000000000 1.000000000
v 0.000000000 0.000000000 1.000000000
vt 0.000000000 0.000000000
vt 1.000000000 0.000000000
vt 1.000000000 1.000000000
vt 0.000000000 1.000000000
vn 0.000000000 -1.000000000 0.000000000
vn 0.000000000 -1.000000000 0.000000000
vn 0.000000000 -1.000000000 0.000000000
vn 0.000000000 -1.000000000 0.000000000
g bottom_plate
usemtl fuel_rod_steel
f 17/17/17 18/18/18 19/19/19 20/20/20
v 0.000000000 0.125000000 1.000000000
v 1.000000000 0.125000000 1.000000000
v 1.000000000 0.125000000 0.000000000
v 0.000000000 0.125000000 0.000000000
vt 0.000000000 1.000000000
vt 1.000000000 1.000000000
vt 1.000000000 0.000000000
vt 0.000000000 0.000000000
vn -0.000000000 1.000000000 -0.000000000
vn -0.000000000 1.000000000 -0.000000000
vn -0.000000000 1.000000000 -0.000000000
vn -0.000000000 1.000000000 -0.000000000
g bottom_plate
usemtl fuel_rod_steel
f 21/21/21 22/22/22 23/23/23 24/24/24
v 0.000000000 1.000000000 0.000000000
v 1.000000000 1.000000000 0.000000000
v 1.000000000 0.875000000 0.000000000
v 0.000000000 0.875000000 0.000000000
vt 0.000000000 1.000000000
vt 1.000000000 1.000000000
vt 1.000000000 0.000000000
vt 0.000000000 0.000000000
vn -0.000000000 -0.000000000 -1.000000000
vn -0.000000000 -0.000000000 -1.000000000
vn -0.000000000 -0.000000000 -1.000000000
vn -0.000000000 -0.000000000 -1.000000000
g top_plate
usemtl fuel_rod_steel
f 25/25/25 26/26/26 27/27/27 28/28/28
v 0.000000000 0.875000000 1.000000000
v 1.000000000 0.875000000 1.000000000
v 1.000000000 1.000000000 1.000000000
v 0.000000000 1.000000000 1.000000000
vt 0.000000000 0.000000000
vt 1.000000000 0.000000000
vt 1.000000000 1.000000000
vt 0.000000000 1.000000000
vn 0.000000000 0.000000000 1.000000000
vn 0.000000000 0.000000000 1.000000000
vn 0.000000000 0.000000000 1.000000000
vn 0.000000000 0.000000000 1.000000000
g top_plate
usemtl fuel_rod_steel
f 29/29/29 30/30/30 31/31/31 32/32/32
v 0.000000000 0.875000000 0.000000000
v 0.000000000 0.875000000 1.000000000
v 0.000000000 1.000000000 1.000000000
v 0.000000000 1.000000000 0.000000000
vt 0.000000000 0.000000000
vt 1.000000000 0.000000000
vt 1.000000000 1.000000000
vt 0.000000000 1.000000000
vn -1.000000000 0.000000000 0.000000000
vn -1.000000000 0.000000000 0.000000000
vn -1.000000000 0.000000000 0.000000000
vn -1.000000000 0.000000000 0.000000000
g top_plate
usemtl fuel_rod_steel
f 33/33/33 34/34/34 35/35/35 36/36/36
v 1.000000000 1.000000000 0.000000000
v 1.000000000 1.000000000 1.000000000
v 1.000000000 0.875000000 1.000000000
v 1.000000000 0.875000000 0.000000000
vt 0.000000000 1.000000000
vt 1.000000000 1.000000000
vt 1.000000000 0.000000000
vt 0.000000000 0.000000000
vn 1.000000000 -0.000000000 -0.000000000
vn 1.000000000 -0.000000000 -0.000000000
vn 1.000000000 -0.000000000 -0.000000000
vn 1.000000000 -0.000000000 -0.000000000
g top_plate
usemtl fuel_rod_steel
f 37/37/37 38/38/38 39/39/39 40/40/40
v 0.000000000 0.875000000 0.000000000
v 1.000000000 0.875000000 0.000000000
v 1.000000000 0.875000000 1.000000000
v 0.000000000 0.875000000 1.000000000
vt 0.000000000 0.000000000
vt 1.000000000 0.000000000
vt 1.000000000 1.000000000
vt 0.000000000 1.000000000
vn 0.000000000 -1.000000000 0.000000000
vn 0.000000000 -1.000000000 0.000000000
vn 0.000000000 -1.000000000 0.000000000
vn 0.000000000 -1.000000000 0.000000000
g top_plate
usemtl fuel_rod_steel
f 41/41/41 42/42/42 43/43/43 44/44/44
v 0.000000000 1.000000000 1.000000000
v 1.000000000 1.000000000 1.000000000
v 1.000000000 1.000000000 0.000000000
v 0.000000000 1.000000000 0.000000000
vt 0.000000000 1.000000000
vt 1.000000000 1.000000000
vt 1.000000000 0.000000000
vt 0.000000000 0.000000000
vn -0.000000000 1.000000000 -0.000000000
vn -0.000000000 1.000000000 -0.000000000
vn -0.000000000 1.000000000 -0.000000000
vn -0.000000000 1.000000000 -0.000000000
g top_plate
usemtl fuel_rod_steel
f 45/45/45 46/46/46 47/47/47 48/48/48
v 0.351049324 0.875000000 0.291856000
v 0.291856000 0.875000000 0.351049324
v 0.291856000 0.125000000 0.351049324
v 0.351049324 0.125000000 0.291856000
vt 0.125000000 0.875000000
vt 0.375000000 0.875000000
vt 0.375000000 0.125000000
vt 0.125000000 0.125000000
vn 0.707106781 -0.000000000 0.707106781
vn 0.707106781 -0.000000000 0.707106781
vn 0.707106781 -0.000000000 0.707106781
vn 0.707106781 -0.000000000 0.707106781
g tube_4_4
usemtl fuel_rod_steel
f 49/49/49 50/50/50 51/51/51 52/52/52
v 0.250000000 0.125000000 0.250000000
v 0.351049324 0.125000000 0.291856000
v 0.291856000 0.125000000 0.351049324
vt 0.500000000 0.500000000
vt 0.400000000 0.400000000
vt 0.600000000 0.400000000
vn 0.000000000 -1.000000000 0.000000000
vn 0.000000000 -1.000000000 0.000000000
vn 0.000000000 -1.000000000 0.000000000
g tube_4_4
usemtl fuel_rod_steel
f 53/53/53 54/54/54 55/55/55
v 0.291856000 0.875000000 0.351049324
v 0.351049324 0.875000000 0.291856000
v 0.250000000 0.875000000 0.250000000
vt 0.600000000 0.400000000
vt 0.400000000 0.400000000
vt 0.500000000 0.500000000
vn -0.000000000 1.000000000 -0.000000000
vn -0.000000000 1.000000000 -0.000000000
vn -0.000000000 1.000000000 -0.000000000
g tube_4_4
usemtl fuel_rod_steel
f 56/56/56 57/57/57 58/58/58
v 0.291856000 0.875000000 0.351049324
v 0.208144000 0.875000000 0.351049324
v 0.208144000 0.125000000 0.351049324
v 0.291856000 0.125000000 0.351049324
vt 0.125000000 0.875000000
vt 0.375000000 0.875000000
vt 0.375000000 0.125000000
vt 0.125000000 0.125000000
vn -0.000000000 -0.000000000 1.000000000
vn -0.000000000 -0.000000000 1.000000000
vn -0.000000000 -0.000000000 1.000000000
vn -0.000000000 -0.000000000 1.000000000
g tube_4_4
usemtl fuel_rod_steel
f 59/59/59 60/60/60 61/61/61 62/62/62
v 0.250000000 0.125000000 0.250000000
v 0.291856000 0.125000000 0.351049324
v 0.208144000 0.125000000 0.351049324
vt 0.500000000 0.500000000
vt 0.400000000 0.400000000
vt 0.600000000 0.400000000
vn 0.000000000 -1.000000000 0.000000000
vn 0.000000000 -1.000000000 0.000000000
vn 0.000000000 -1.000000000 0.000000000
g tube_4_4
usemtl fuel_rod_steel
f 63/63/63 64/64/64 65/65/65
v 0.208144000 0.875000000 0.351049324
v 0.291856000 0.875000000 0.351049324
v 0.250000000 0.875000000 0.250000000
vt 0.600000000 0.400000000
vt 0.400000000 0.400000000
vt 0.500000000 0.500000000
vn -0.000000000 1.000000000 -0.000000000
vn -0.000000000 1.000000000 -0.000000000
vn -0.000000000 1.000000000 -0.000000000
g tube_4_4
usemtl fuel_rod_steel
f 66/66/66 67/67/67 68/68/68
v 0.208144000 0.875000000 0.351049324
v 0.148950676 0.875000000 0.291856000
v 0.148950676 0.125000000 0.291856000
v 0.208144000 0.125000000 0.351049324
vt 0.125000000 0.875000000
vt 0.375000000 0.875000000
vt 0.375000000 0.125000000
vt 0.125000000 0.125000000
vn -0.707106781 -0.000000000 0.707106781
vn -0.707106781 -0.000000000 0.707106781
vn -0.707106781 -0.000000000 0.707106781
vn -0.707106781 -0.000000000 0.707106781
g tube_4_4
usemtl fuel_rod_steel
f 69/69/69 70/70/70 71/71/71 72/72/72
v 0.250000000 0.125000000 0.250000000
v 0.208144000 0.125000000 0.351049324
v 0.148950676 0.125000000 0.291856000
vt 0.500000000 0.500000000
vt 0.400000000 0.400000000
vt 0.600000000 0.400000000
vn 0.000000000 -1.000000000 0.000000000
vn 0.000000000 -1.000000000 0.000000000
vn 0.000000000 -1.000000000 0.000000000
g tube_4_4
usemtl fuel_rod_steel
f 73/73/73 74/74/74 75/75/75
v 0.148950676 0.875000000 0.291856000
v 0.208144000 0.875000000 0.351049324
v 0.250000000 0.875000000 0.250000000
vt 0.600000000 0.400000000
vt 0.400000000 0.400000000
vt 0.500000000 0.500000000
vn -0.000000000 1.000000000 -0.000000000
vn -0.000000000 1.000000000 -0.000000000
vn -0.000000000 1.000000000 -0.000000000
g tube_4_4
usemtl fuel_rod_steel
f 76/76/76 77/77/77 78/78/78
v 0.148950676 0.875000000 0.291856000
v 0.148950676 0.875000000 0.208144000
v 0.148950676 0.125000000 0.208144000
v 0.148950676 0.125000000 0.291856000
vt 0.125000000 0.875000000
vt 0.375000000 0.875000000
vt 0.375000000 0.125000000
vt 0.125000000 0.125000000
vn -1.000000000 -0.000000000 0.000000000
vn -1.000000000 -0.000000000 0.000000000
vn -1.000000000 -0.000000000 0.000000000
vn -1.000000000 -0.000000000 0.000000000
g tube_4_4
usemtl fuel_rod_steel
f 79/79/79 80/80/80 81/81/81 82/82/82
v 0.250000000 0.125000000 0.250000000
v 0.148950676 0.125000000 0.291856000
v 0.148950676 0.125000000 0.208144000
vt 0.500000000 0.500000000
vt 0.400000000 0.400000000
vt 0.600000000 0.400000000
vn -0.000000000 -1.000000000 0.000000000
vn -0.000000000 -1.000000000 0.000000000
vn -0.000000000 -1.000000000 0.000000000
g tube_4_4
usemtl fuel_rod_steel
f 83/83/83 84/84/84 85/85/85
v 0.148950676 0.875000000 0.208144000
v 0.148950676 0.875000000 0.291856000
v 0.250000000 0.875000000 0.250000000
vt 0.600000000 0.400000000
vt 0.400000000 0.400000000
vt 0.500000000 0.500000000
vn 0.000000000 1.000000000 -0.000000000
vn 0.000000000 1.000000000 -0.000000000
vn 0.000000000 1.000000000 -0.000000000
g tube_4_4
usemtl fuel_rod_steel
f 86/86/86 87/87/87 88/88/88
v 0.148950676 0.875000000 0.208144000
v 0.208144000 0.875000000 0.148950676
v 0.208144000 0.125000000 0.148950676
v 0.148950676 0.125000000 0.208144000
vt 0.125000000 0.875000000
vt 0.375000000 0.875000000
vt 0.375000000 0.125000000
vt 0.125000000 0.125000000
vn -0.707106781 -0.000000000 -0.707106781
vn -0.707106781 -0.000000000 -0.707106781
vn -0.707106781 -0.000000000 -0.707106781
vn -0.707106781 -0.000000000 -0.707106781
g tube_4_4
usemtl fuel_rod_steel
f 89/89/89 90/90/90 91/91/91 92/92/92
v 0.250000000 0.125000000 0.250000000
v 0.148950676 0.125000000 0.208144000
v 0.208144000 0.125000000 0.148950676
vt 0.500000000 0.500000000
vt 0.400000000 0.400000000
vt 0.600000000 0.400000000
vn 0.000000000 -1.000000000 0.000000000
vn 0.000000000 -1.000000000 0.000000000
vn 0.000000000 -1.000000000 0.000000000
g tube_4_4
usemtl fuel_rod_steel
f 93/93/93 94/94/94 95/95/95
v 0.208144000 0.875000000 0.148950676
v 0.148950676 0.875000000 0.208144000
v 0.250000000 0.875000000 0.250000000
vt 0.600000000 0.400000000
vt 0.400000000 0.400000000
vt 0.500000000 0.500000000
vn -0.000000000 1.000000000 -0.000000000
vn -0.000000000 1.000000000 -0.000000000
vn -0.000000000 1.000000000 -0.000000000
g tube_4_4
usemtl fuel_rod_steel
f 96/96/96 97/97/97 98/98/98
v 0.208144000 0.875000000 0.148950676
v 0.291856000 0.875000000 0.148950676
v 0.291856000 0.125000000 0.148950676
v 0.208144000 0.125000000 0.148950676
vt 0.125000000 0.875000000
vt 0.375000000 0.875000000
vt 0.375000000 0.125000000
vt 0.125000000 0.125000000
vn -0.000000000 -0.000000000 -1.000000000
vn -0.000000000 -0.000000000 -1.000000000
vn -0.000000000 -0.000000000 -1.000000000
vn -0.000000000 -0.000000000 -1.000000000
g tube_4_4
usemtl fuel_rod_steel
f 99/99/99 100/100/100 101/101/101 102/102/102
v 0.250000000 0.125000000 0.250000000
v 0.208144000 0.125000000 0.148950676
v 0.291856000 0.125000000 0.148950676
vt 0.500000000 0.500000000
vt 0.400000000 0.400000000
vt 0.600000000 0.400000000
vn 0.000000000 -1.000000000 -0.000000000
vn 0.000000000 -1.000000000 -0.000000000
vn 0.000000000 -1.000000000 -0.000000000
g tube_4_4
usemtl fuel_rod_steel
f 103/103/103 104/104/104 105/105/105
v 0.291856000 0.875000000 0.148950676
v 0.208144000 0.875000000 0.148950676
v 0.250000000 0.875000000 0.250000000
vt 0.600000000 0.400000000
vt 0.400000000 0.400000000
vt 0.500000000 0.500000000
vn -0.000000000 1.000000000 0.000000000
vn -0.000000000 1.000000000 0.000000000
vn -0.000000000 1.000000000 0.000000000
g tube_4_4
usemtl fuel_rod_steel
f 106/106/106 107/107/107 108/108/108
v 0.291856000 0.875000000 0.148950676
v 0.351049324 0.875000000 0.208144000
v 0.351049324 0.125000000 0.208144000
v 0.291856000 0.125000000 0.148950676
vt 0.125000000 0.875000000
vt 0.375000000 0.875000000
vt 0.375000000 0.125000000
vt 0.125000000 0.125000000
vn 0.707106781 -0.000000000 -0.707106781
vn 0.707106781 -0.000000000 -0.707106781
vn 0.707106781 -0.000000000 -0.707106781
vn 0.707106781 -0.000000000 -0.707106781
g tube_4_4
usemtl fuel_rod_steel
f 109/109/109 110/110/110 111/111/111 112/112/112
v 0.250000000 0.125000000 0.250000000
v 0.291856000 0.125000000 0.148950676
v 0.351049324 0.125000000 0.208144000
vt 0.500000000 0.500000000
vt 0.400000000 0.400000000
vt 0.600000000 0.400000000
vn 0.000000000 -1.000000000 0.000000000
vn 0.000000000 -1.000000000 0.000000000
vn 0.000000000 -1.000000000 0.000000000
g tube_4_4
usemtl fuel_rod_steel
f 113/113/113 114/114/114 115/115/115
v 0.351049324 0.875000000 0.208144000
v 0.291856000 0.875000000 0.148950676
v 0.250000000 0.875000000 0.250000000
vt 0.600000000 0.400000000
vt 0.400000000 0.400000000
vt 0.500000000 0.500000000
vn -0.000000000 1.000000000 -0.000000000
vn -0.000000000 1.000000000 -0.000000000
vn -0.000000000 1.000000000 -0.000000000
g tube_4_4
usemtl fuel_rod_steel
f 116/116/116 117/117/117 118/118/118
v 0.351049324 0.875000000 0.208144000
v 0.351049324 0.875000000 0.291856000
v 0.351049324 0.125000000 0.291856000
v 0.351049324 0.125000000 0.208144000
vt 0.125000000 0.875000000
vt 0.375000000 0.875000000
vt 0.375000000 0.125000000
vt 0.125000000 0.125000000
vn 1.000000000 -0.000000000 -0.000000000
vn 1.000000000 -0.000000000 -0.000000000
vn 1.000000000 -0.000000000 -0.000000000
vn 1.000000000 -0.000000000 -0.000000000
g tube_4_4
usemtl fuel_rod_steel
f 119/119/119 120/120/120 121/121/121 122/122/122
v 0.250000000 0.125000000 0.250000000
v 0.351049324 0.125000000 0.208144000
v 0.351049324 0.125000000 0.291856000
vt 0.500000000 0.500000000
vt 0.400000000 0.400000000
vt 0.600000000 0.400000000
vn 0.000000000 -1.000000000 0.000000000
vn 0.000000000 -1.000000000 0.000000000
vn 0.000000000 -1.000000000 0.000000000
g tube_4_4
usemtl fuel_rod_steel
f 123/123/123 124/124/124 125/125/125
v 0.351049324 0.875000000 0.291856000
v 0.351049324 0.875000000 0.208144000
v 0.250000000 0.875000000 0.250000000
vt 0.600000000 0.400000000
vt 0.400000000 0.400000000
vt 0.500000000 0.500000000
vn -0.000000000 1.000000000 -0.000000000
vn -0.000000000 1.000000000 -0.000000000
vn -0.000000000 1.000000000 -0.000000000
g tube_4_4
usemtl fuel_rod_steel
f 126/126/126 127/127/127 128/128/128
v 0.351049324 0.875000000 0.541856000
v 0.291856000 0.875000000 0.601049324
v 0.291856000 0.125000000 0.601049324
v 0.351049324 0.125000000 0.541856000
vt 0.125000000 0.875000000
vt 0.375000000 0.875000000
vt 0.375000000 0.125000000
vt 0.125000000 0.125000000
vn 0.707106781 -0.000000000 0.707106781
vn 0.707106781 -0.000000000 0.707106781
vn 0.707106781 -0.000000000 0.707106781
vn 0.707106781 -0.000000000 0.707106781
g tube_4_8
usemtl fuel_rod_steel
f 129/129/129 130/130/130 131/131/131 132/132/132
v 0.250000000 0.125000000 0.500000000
v 0.351049324 0.125000000 0.541856000
v 0.291856000 0.125000000 0.601049324
vt 0.500000000 0.500000000
vt 0.400000000 0.400000000
vt 0.600000000 0.400000000
vn 0.000000000 -1.000000000 0.000000000
vn 0.000000000 -1.000000000 0.000000000
vn 0.000000000 -1.000000000 0.000000000
g tube_4_8
usemtl fuel_rod_steel
f 133/133/133 134/134/134 135/135/135
v 0.291856000 0.875000000 0.601049324
v 0.351049324 0.875000000 0.541856000
v 0.250000000 0.875000000 0.500000000
vt 0.600000000 0.400000000
vt 0.400000000 0.400000000
vt 0.500000000 0.500000000
vn -0.000000000 1.000000000 -0.000000000
vn -0.000000000 1.000000000 -0.000000000
vn -0.000000000 1.000000000 -0.000000000
g tube_4_8
usemtl fuel_rod_steel
f 136/136/136 137/137/137 138/138/138
v 0.291856000 0.875000000 0.601049324
v 0.208144000 0.875000000 0.601049324
v 0.208144000 0.125000000 0.601049324
v 0.291856000 0.125000000 0.601049324
vt 0.125000000 0.875000000
vt 0.375000000 0.875000000
vt 0.375000000 0.125000000
vt 0.125000000 0.125000000
vn -0.000000000 -0.000000000 1.000000000
vn -0.000000000 -0.000000000 1.000000000
vn -0.000000000 -0.000000000 1.000000000
vn -0.000000000 -0.000000000 1.000000000
g tube_4_8
usemtl fuel_rod_steel
f 139/139/139 140/140/140 141/141/141 142/142/142
v 0.250000000 0.125000000 0.500000000
v 0.291856000 0.125000000 0.601049324
v 0.208144000 0.125000000 0.601049324
vt 0.500000000 0.500000000
vt 0.400000000 0.400000000
vt 0.600000000 0.400000000
vn 0.000000000 -1.000000000 0.000000000
vn 0.000000000 -1.000000000 0.000000000
vn 0.000000000 -1.000000000 0.000000000
g tube_4_8
usemtl fuel_rod_steel
f 143/143/143 144/144/144 145/145/145
v 0.208144000 0.875000000 0.601049324
v 0.291856000 0.875000000 0.601049324
v 0.250000000 0.875000000 0.500000000
vt 0.600000000 0.400000000
vt 0.400000000 0.400000000
vt 0.500000000 0.500000000
vn -0.000000000 1.000000000 -0.000000000
vn -0.000000000 1.000000000 -0.000000000
vn -0.000000000 1.000000000 -0.000000000
g tube_4_8
usemtl fuel_rod_steel
f 146/146/146 147/147/147 148/148/148
v 0.208144000 0.875000000 0.601049324
v 0.148950676 0.875000000 0.541856000
v 0.148950676 0.125000000 0.541856000
v 0.208144000 0.125000000 0.601049324
vt 0.125000000 0.875000000
vt 0.375000000 0.875000000
vt 0.375000000 0.125000000
vt 0.125000000 0.125000000
vn -0.707106781 -0.000000000 0.707106781
vn -0.707106781 -0.000000000 0.707106781
vn -0.707106781 -0.000000000 0.707106781
vn -0.707106781 -0.000000000 0.707106781
g tube_4_8
usemtl fuel_rod_steel
f 149/149/149 150/150/150 151/151/151 152/152/152
v 0.250000000 0.125000000 0.500000000
v 0.208144000 0.125000000 0.601049324
v 0.148950676 0.125000000 0.541856000
vt 0.500000000 0.500000000
vt 0.400000000 0.400000000
vt 0.600000000 0.400000000
vn 0.000000000 -1.000000000 0.000000000
vn 0.000000000 -1.000000000 0.000000000
vn 0.000000000 -1.000000000 0.000000000
g tube_4_8
usemtl fuel_rod_steel
f 153/153/153 154/154/154 155/155/155
v 0.148950676 0.875000000 0.541856000
v 0.208144000 0.875000000 0.601049324
v 0.250000000 0.875000000 0.500000000
vt 0.600000000 0.400000000
vt 0.400000000 0.400000000
vt 0.500000000 0.500000000
vn -0.000000000 1.000000000 -0.000000000
vn -0.000000000 1.000000000 -0.000000000
vn -0.000000000 1.000000000 -0.000000000
g tube_4_8
usemtl fuel_rod_steel
f 156/156/156 157/157/157 158/158/158
v 0.148950676 0.875000000 0.541856000
v 0.148950676 0.875000000 0.458144000
v 0.148950676 0.125000000 0.458144000
v 0.148950676 0.125000000 0.541856000
vt 0.125000000 0.875000000
vt 0.375000000 0.875000000
vt 0.375000000 0.125000000
vt 0.125000000 0.125000000
vn -1.000000000 -0.000000000 0.000000000
vn -1.000000000 -0.000000000 0.000000000
vn -1.000000000 -0.000000000 0.000000000
vn -1.000000000 -0.000000000 0.000000000
g tube_4_8
usemtl fuel_rod_steel
f 159/159/159 160/160/160 161/161/161 162/162/162
v 0.250000000 0.125000000 0.500000000
v 0.148950676 0.125000000 0.541856000
v 0.148950676 0.125000000 0.458144000
vt 0.500000000 0.500000000
vt 0.400000000 0.400000000
vt 0.600000000 0.400000000
vn -0.000000000 -1.000000000 0.000000000
vn -0.000000000 -1.000000000 0.000000000
vn -0.000000000 -1.000000000 0.000000000
g tube_4_8
usemtl fuel_rod_steel
f 163/163/163 164/164/164 165/165/165
v 0.148950676 0.875000000 0.458144000
v 0.148950676 0.875000000 0.541856000
v 0.250000000 0.875000000 0.500000000
vt 0.600000000 0.400000000
vt 0.400000000 0.400000000
vt 0.500000000 0.500000000
vn 0.000000000 1.000000000 -0.000000000
vn 0.000000000 1.000000000 -0.000000000
vn 0.000000000 1.000000000 -0.000000000
g tube_4_8
usemtl fuel_rod_steel
f 166/166/166 167/167/167 168/168/168
v 0.148950676 0.875000000 0.458144000
v 0.208144000 0.875000000 0.398950676
v 0.208144000 0.125000000 0.398950676
v 0.148950676 0.125000000 0.458144000
vt 0.125000000 0.875000000
vt 0.375000000 0.875000000
vt 0.375000000 0.125000000
vt 0.125000000 0.125000000
vn -0.707106781 -0.000000000 -0.707106781
vn -0.707106781 -0.000000000 -0.707106781
vn -0.707106781 -0.000000000 -0.707106781
vn -0.707106781 -0.000000000 -0.707106781
g tube_4_8
usemtl fuel_rod_steel
f 169/169/169 170/170/170 171/171/171 172/172/172
v 0.250000000 0.125000000 0.500000000
v 0.148950676 0.125000000 0.458144000
v 0.208144000 0.125000000 0.398950676
vt 0.500000000 0.500000000
vt 0.400000000 0.400000000
vt 0.600000000 0.400000000
vn 0.000000000 -1.000000000 0.000000000
vn 0.000000000 -1.000000000 0.000000000
vn 0.000000000 -1.000000000 0.000000000
g tube_4_8
usemtl fuel_rod_steel
f 173/173/173 174/174/174 175/175/175
v 0.208144000 0.875000000 0.398950676
v 0.148950676 0.875000000 0.458144000
v 0.250000000 0.875000000 0.500000000
vt 0.600000000 0.400000000
vt 0.400000000 0.400000000
vt 0.500000000 0.500000000
vn -0.000000000 1.000000000 -0.000000000
vn -0.000000000 1.000000000 -0.000000000
vn -0.000000000 1.000000000 -0.000000000
g tube_4_8
usemtl fuel_rod_steel
f 176/176/176 177/177/177 178/178/178
v 0.208144000 0.875000000 0.398950676
v 0.291856000 0.875000000 0.398950676
v 0.291856000 0.125000000 0.398950676
v 0.208144000 0.125000000 0.398950676
vt 0.125000000 0.875000000
vt 0.375000000 0.875000000
vt 0.375000000 0.125000000
vt 0.125000000 0.125000000
vn -0.000000000 -0.000000000 -1.000000000
vn -0.000000000 -0.000000000 -1.000000000
vn -0.000000000 -0.000000000 -1.000000000
vn -0.000000000 -0.000000000 -1.000000000
g tube_4_8
usemtl fuel_rod_steel
f 179/179/179 180/180/180 181/181/181 182/182/182
v 0.250000000 0.125000000 0.500000000
v 0.208144000 0.125000000 0.398950676
v 0.291856000 0.125000000 0.398950676
vt 0.500000000 0.500000000
vt 0.400000000 0.400000000
vt 0.600000000 0.400000000
vn 0.000000000 -1.000000000 -0.000000000
vn 0.000000000 -1.000000000 -0.000000000
vn 0.000000000 -1.000000000 -0.000000000
g tube_4_8
usemtl fuel_rod_steel
f 183/183/183 184/184/184 185/185/185
v 0.291856000 0.875000000 0.398950676
v 0.208144000 0.875000000 0.398950676
v 0.250000000 0.875000000 0.500000000
vt 0.600000000 0.400000000
vt 0.400000000 0.400000000
vt 0.500000000 0.500000000
vn -0.000000000 1.000000000 0.000000000
vn -0.000000000 1.000000000 0.000000000
vn -0.000000000 1.000000000 0.000000000
g tube_4_8
usemtl fuel_rod_steel
f 186/186/186 187/187/187 188/188/188
v 0.291856000 0.875000000 0.398950676
v 0.351049324 0.875000000 0.458144000
v 0.351049324 0.125000000 0.458144000
v 0.291856000 0.125000000 0.398950676
vt 0.125000000 0.875000000
vt 0.375000000 0.875000000
vt 0.375000000 0.125000000
vt 0.125000000 0.125000000
vn 0.707106781 -0.000000000 -0.707106781
vn 0.707106781 -0.000000000 -0.707106781
vn 0.707106781 -0.000000000 -0.707106781
vn 0.707106781 -0.000000000 -0.707106781
g tube_4_8
usemtl fuel_rod_steel
f 189/189/189 190/190/190 191/191/191 192/192/192
v 0.250000000 0.125000000 0.500000000
v 0.291856000 0.125000000 0.398950676
v 0.351049324 0.125000000 0.458144000
vt 0.500000000 0.500000000
vt 0.400000000 0.400000000
vt 0.600000000 0.400000000
vn 0.000000000 -1.000000000 0.000000000
vn 0.000000000 -1.000000000 0.000000000
vn 0.000000000 -1.000000000 0.000000000
g tube_4_8
usemtl fuel_rod_steel
f 193/193/193 194/194/194 195/195/195
v 0.351049324 0.875000000 0.458144000
v 0.291856000 0.875000000 0.398950676
v 0.250000000 0.875000000 0.500000000
vt 0.600000000 0.400000000
vt 0.400000000 0.400000000
vt 0.500000000 0.500000000
vn -0.000000000 1.000000000 -0.000000000
vn -0.000000000 1.000000000 -0.000000000
vn -0.000000000 1.000000000 -0.000000000
g tube_4_8
usemtl fuel_rod_steel
f 196/196/196 197/197/197 198/198/198
v 0.351049324 0.875000000 0.458144000
v 0.351049324 0.875000000 0.541856000
v 0.351049324 0.125000000 0.541856000
v 0.351049324 0.125000000 0.458144000
vt 0.125000000 0.875000000
vt 0.375000000 0.875000000
vt 0.375000000 0.125000000
vt 0.125000000 0.125000000
vn 1.000000000 -0.000000000 -0.000000000
vn 1.000000000 -0.000000000 -0.000000000
vn 1.000000000 -0.000000000 -0.000000000
vn 1.000000000 -0.000000000 -0.000000000
g tube_4_8
usemtl fuel_rod_steel
f 199/199/199 200/200/200 201/201/201 202/202/202
v 0.250000000 0.125000000 0.500000000
v 0.351049324 0.125000000 0.458144000
v 0.351049324 0.125000000 0.541856000
vt 0.500000000 0.500000000
vt 0.400000000 0.400000000
vt 0.600000000 0.400000000
vn 0.000000000 -1.000000000 0.000000000
vn 0.000000000 -1.000000000 0.000000000
vn 0.000000000 -1.000000000 0.000000000
g tube_4_8
usemtl fuel_rod_steel
f 203/203/203 204/204/204 205/205/205
v 0.351049324 0.875000000 0.541856000
v 0.351049324 0.875000000 0.458144000
v 0.250000000 0.875000000 0.500000000
vt 0.600000000 0.400000000
vt 0.400000000 0.400000000
vt 0.500000000 0.500000000
vn -0.000000000 1.000000000 -0.000000000
vn -0.000000000 1.000000000 -0.000000000
vn -0.000000000 1.000000000 -0.000000000
g tube_4_8
usemtl fuel_rod_steel
f 206/206/206 207/207/207 208/208/208
v 0.351049324 0.875000000 0.791856000
v 0.291856000 0.875000000 0.851049324
v 0.291856000 0.125000000 0.851049324
v 0.351049324 0.125000000 0.791856000
vt 0.125000000 0.875000000
vt 0.375000000 0.875000000
vt 0.375000000 0.125000000
vt 0.125000000 0.125000000
vn 0.707106781 -0.000000000 0.707106781
vn 0.707106781 -0.000000000 0.707106781
vn 0.707106781 -0.000000000 0.707106781
vn 0.707106781 -0.000000000 0.707106781
g tube_4_12
usemtl fuel_rod_steel
f 209/209/209 210/210/210 211/211/211 212/212/212
v 0.250000000 0.125000000 0.750000000
v 0.351049324 0.125000000 0.791856000
v 0.291856000 0.125000000 0.851049324
vt 0.500000000 0.500000000
vt 0.400000000 0.400000000
vt 0.600000000 0.400000000
vn 0.000000000 -1.000000000 0.000000000
vn 0.000000000 -1.000000000 0.000000000
vn 0.000000000 -1.000000000 0.000000000
g tube_4_12
usemtl fuel_rod_steel
f 213/213/213 214/214/214 215/215/215
v 0.291856000 0.875000000 0.851049324
v 0.351049324 0.875000000 0.791856000
v 0.250000000 0.875000000 0.750000000
vt 0.600000000 0.400000000
vt 0.400000000 0.400000000
vt 0.500000000 0.500000000
vn -0.000000000 1.000000000 -0.000000000
vn -0.000000000 1.000000000 -0.000000000
vn -0.000000000 1.000000000 -0.000000000
g tube_4_12
usemtl fuel_rod_steel
f 216/216/216 217/217/217 218/218/218
v 0.291856000 0.875000000 0.851049324
v 0.208144000 0.875000000 0.851049324
v 0.208144000 0.125000000 0.851049324
v 0.291856000 0.125000000 0.851049324
vt 0.125000000 0.875000000
vt 0.375000000 0.875000000
vt 0.375000000 0.125000000
vt 0.125000000 0.125000000
vn -0.000000000 -0.000000000 1.000000000
vn -0.000000000 -0.000000000 1.000000000
vn -0.000000000 -0.000000000 1.000000000
vn -0.000000000 -0.000000000 1.000000000
g tube_4_12
usemtl fuel_rod_steel
f 219/219/219 220/220/220 221/221/221 222/222/222
v 0.250000000 0.125000000 0.750000000
v 0.291856000 0.125000000 0.851049324
v 0.208144000 0.125000000 0.851049324
vt 0.500000000 0.500000000
vt 0.400000000 0.400000000
vt 0.600000000 0.400000000
vn 0.000000000 -1.000000000 0.000000000
vn 0.000000000 -1.000000000 0.000000000
vn 0.000000000 -1.000000000 0.000000000
g tube_4_12
usemtl fuel_rod_steel
f 223/223/223 224/224/224 225/225/225
v 0.208144000 0.875000000 0.851049324
v 0.291856000 0.875000000 0.851049324
v 0.250000000 0.875000000 0.750000000
vt 0.600000000 0.400000000
vt 0.400000000 0.400000000
vt 0.500000000 0.500000000
vn -0.000000000 1.000000000 -0.000000000
vn -0.000000000 1.000000000 -0.000000000
vn -0.000000000 1.000000000 -0.000000000
g tube_4_12
usemtl fuel_rod_steel
f 226/226/226 227/227/227 228/228/228
v 0.208144000 0.875000000 0.851049324
v 0.148950676 0.875000000 0.791856000
v 0.148950676 0.125000000 0.791856000
v 0.208144000 0.125000000 0.851049324
vt 0.125000000 0.875000000
vt 0.375000000 0.875000000
vt 0.375000000 0.125000000
vt 0.125000000 0.125000000
vn -0.707106781 -0.000000000 0.707106781
vn -0.707106781 -0.000000000 0.707106781
vn -0.707106781 -0.000000000 0.707106781
vn -0.707106781 -0.000000000 0.707106781
g tube_4_12
usemtl fuel_rod_steel
f 229/229/229 230/230/230 231/231/231 232/232/232
v 0.250000000 0.125000000 0.750000000
v 0.208144000 0.125000000 0.851049324
v 0.148950676 0.125000000 0.791856000
vt 0.500000000 0.500000000
vt 0.400000000 0.400000000
vt 0.600000000 0.400000000
vn 0.000000000 -1.000000000 0.000000000
vn 0.000000000 -1.000000000 0.000000000
vn 0.000000000 -1.000000000 0.000000000
g tube_4_12
usemtl fuel_rod_steel
f 233/233/233 234/234/234 235/235/235
v 0.148950676 0.875000000 0.791856000
v 0.208144000 0.875000000 0.851049324
v 0.250000000 0.875000000 0.750000000
vt 0.600000000 0.400000000
vt 0.400000000 0.400000000
vt 0.500000000 0.500000000
vn -0.000000000 1.000000000 -0.000000000
vn -0.000000000 1.000000000 -0.000000000
vn -0.000000000 1.000000000 -0.000000000
g tube_4_12
usemtl fuel_rod_steel
f 236/236/236 237/237/237 238/238/238
v 0.148950676 0.875000000 0.791856000
v 0.148950676 0.875000000 0.708144000
v 0.148950676 0.125000000 0.708144000
v 0.148950676 0.125000000 0.791856000
vt 0.125000000 0.875000000
vt 0.375000000 0.875000000
vt 0.375000000 0.125000000
vt 0.125000000 0.125000000
vn -1.000000000 -0.000000000 0.000000000
vn -1.000000000 -0.000000000 0.000000000
vn -1.000000000 -0.000000000 0.000000000
vn -1.000000000 -0.000000000 0.000000000
g tube_4_12
usemtl fuel_rod_steel
f 239/239/239 240/240/240 241/241/241 242/242/242
v 0.250000000 0.125000000 0.750000000
v 0.148950676 0.125000000 0.791856000
v 0.148950676 0.125000000 0.708144000
vt 0.500000000 0.500000000
vt 0.400000000 0.400000000
vt 0.600000000 0.400000000
vn -0.000000000 -1.000000000 0.000000000
vn -0.000000000 -1.000000000 0.000000000
vn -0.000000000 -1.000000000 0.000000000
g tube_4_12
usemtl fuel_rod_steel
f 243/243/243 244/244/244 245/245/245
v 0.148950676 0.875000000 0.708144000
v 0.148950676 0.875000000 0.791856000
v 0.250000000 0.875000000 0.750000000
vt 0.600000000 0.400000000
vt 0.400000000 0.400000000
vt 0.500000000 0.500000000
vn 0.000000000 1.000000000 -0.000000000
vn 0.000000000 1.000000000 -0.000000000
vn 0.000000000 1.000000000 -0.000000000
g tube_4_12
usemtl fuel_rod_steel
f 246/246/246 247/247/247 248/248/248
v 0.148950676 0.875000000 0.708144000
v 0.208144000 0.875000000 0.648950676
v 0.208144000 0.125000000 0.648950676
v 0.148950676 0.125000000 0.708144000
vt 0.125000000 0.875000000
vt 0.375000000 0.875000000
vt 0.375000000 0.125000000
vt 0.125000000 0.125000000
vn -0.707106781 -0.000000000 -0.707106781
vn -0.707106781 -0.000000000 -0.707106781
vn -0.707106781 -0.000000000 -0.707106781
vn -0.707106781 -0.000000000 -0.707106781
g tube_4_12
usemtl fuel_rod_steel
f 249/249/249 250/250/250 251/251/251 252/252/252
v 0.250000000 0.125000000 0.750000000
v 0.148950676 0.125000000 0.708144000
v 0.208144000 0.125000000 0.648950676
vt 0.500000000 0.500000000
vt 0.400000000 0.400000000
vt 0.600000000 0.400000000
vn 0.000000000 -1.000000000 0.000000000
vn 0.000000000 -1.000000000 0.000000000
vn 0.000000000 -1.000000000 0.000000000
g tube_4_12
usemtl fuel_rod_steel
f 253/253/253 254/254/254 255/255/255
v 0.208144000 0.875000000 0.648950676
v 0.148950676 0.875000000 0.708144000
v 0.250000000 0.875000000 0.750000000
vt 0.600000000 0.400000000
vt 0.400000000 0.400000000
vt 0.500000000 0.500000000
vn -0.000000000 1.000000000 -0.000000000
vn -0.000000000 1.000000000 -0.000000000
vn -0.000000000 1.000000000 -0.000000000
g tube_4_12
usemtl fuel_rod_steel
f 256/256/256 257/257/257 258/258/258
v 0.208144000 0.875000000 0.648950676
v 0.291856000 0.875000000 0.648950676
v 0.291856000 0.125000000 0.648950676
v 0.208144000 0.125000000 0.648950676
vt 0.125000000 0.875000000
vt 0.375000000 0.875000000
vt 0.375000000 0.125000000
vt 0.125000000 0.125000000
vn -0.000000000 -0.000000000 -1.000000000
vn -0.000000000 -0.000000000 -1.000000000
vn -0.000000000 -0.000000000 -1.000000000
vn -0.000000000 -0.000000000 -1.000000000
g tube_4_12
usemtl fuel_rod_steel
f 259/259/259 260/260/260 261/261/261 262/262/262
v 0.250000000 0.125000000 0.750000000
v 0.208144000 0.125000000 0.648950676
v 0.291856000 0.125000000 0.648950676
vt 0.500000000 0.500000000
vt 0.400000000 0.400000000
vt 0.600000000 0.400000000
vn 0.000000000 -1.000000000 -0.000000000
vn 0.000000000 -1.000000000 -0.000000000
vn 0.000000000 -1.000000000 -0.000000000
g tube_4_12
usemtl fuel_rod_steel
f 263/263/263 264/264/264 265/265/265
v 0.291856000 0.875000000 0.648950676
v 0.208144000 0.875000000 0.648950676
v 0.250000000 0.875000000 0.750000000
vt 0.600000000 0.400000000
vt 0.400000000 0.400000000
vt 0.500000000 0.500000000
vn -0.000000000 1.000000000 0.000000000
vn -0.000000000 1.000000000 0.000000000
vn -0.000000000 1.000000000 0.000000000
g tube_4_12
usemtl fuel_rod_steel
f 266/266/266 267/267/267 268/268/268
v 0.291856000 0.875000000 0.648950676
v 0.351049324 0.875000000 0.708144000
v 0.351049324 0.125000000 0.708144000
v 0.291856000 0.125000000 0.648950676
vt 0.125000000 0.875000000
vt 0.375000000 0.875000000
vt 0.375000000 0.125000000
vt 0.125000000 0.125000000
vn 0.707106781 -0.000000000 -0.707106781
vn 0.707106781 -0.000000000 -0.707106781
vn 0.707106781 -0.000000000 -0.707106781
vn 0.707106781 -0.000000000 -0.707106781
g tube_4_12
usemtl fuel_rod_steel
f 269/269/269 270/270/270 271/271/271 272/272/272
v 0.250000000 0.125000000 0.750000000
v 0.291856000 0.125000000 0.648950676
v 0.351049324 0.125000000 0.708144000
vt 0.500000000 0.500000000
vt 0.400000000 0.400000000
vt 0.600000000 0.400000000
vn 0.000000000 -1.000000000 0.000000000
vn 0.000000000 -1.000000000 0.000000000
vn 0.000000000 -1.000000000 0.000000000
g tube_4_12
usemtl fuel_rod_steel
f 273/273/273 274/274/274 275/275/275
v 0.351049324 0.875000000 0.708144000
v 0.291856000 0.875000000 0.648950676
v 0.250000000 0.875000000 0.750000000
vt 0.600000000 0.400000000
vt 0.400000000 0.400000000
vt 0.500000000 0.500000000
vn -0.000000000 1.000000000 -0.000000000
vn -0.000000000 1.000000000 -0.000000000
vn -0.000000000 1.000000000 -0.000000000
g tube_4_12
usemtl fuel_rod_steel
f 276/276/276 277/277/277 278/278/278
v 0.351049324 0.875000000 0.708144000
v 0.351049324 0.875000000 0.791856000
v 0.351049324 0.125000000 0.791856000
v 0.351049324 0.125000000 0.708144000
vt 0.125000000 0.875000000
vt 0.375000000 0.875000000
vt 0.375000000 0.125000000
vt 0.125000000 0.125000000
vn 1.000000000 -0.000000000 -0.000000000
vn 1.000000000 -0.000000000 -0.000000000
vn 1.000000000 -0.000000000 -0.000000000
vn 1.000000000 -0.000000000 -0.000000000
g tube_4_12
usemtl fuel_rod_steel
f 279/279/279 280/280/280 281/281/281 282/282/282
v 0.250000000 0.125000000 0.750000000
v 0.351049324 0.125000000 0.708144000
v 0.351049324 0.125000000 0.791856000
vt 0.500000000 0.500000000
vt 0.400000000 0.400000000
vt 0.600000000 0.400000000
vn 0.000000000 -1.000000000 0.000000000
vn 0.000000000 -1.000000000 0.000000000
vn 0.000000000 -1.000000000 0.000000000
g tube_4_12
usemtl fuel_rod_steel
f 283/283/283 284/284/284 285/285/285
v 0.351049324 0.875000000 0.791856000
v 0.351049324 0.875000000 0.708144000
v 0.250000000 0.875000000 0.750000000
vt 0.600000000 0.400000000
vt 0.400000000 0.400000000
vt 0.500000000 0.500000000
vn -0.000000000 1.000000000 -0.000000000
vn -0.000000000 1.000000000 -0.000000000
vn -0.000000000 1.000000000 -0.000000000
g tube_4_12
usemtl fuel_rod_steel
f 286/286/286 287/287/287 288/288/288
v 0.601049324 0.875000000 0.291856000
v 0.541856000 0.875000000 0.351049324
v 0.541856000 0.125000000 0.351049324
v 0.601049324 0.125000000 0.291856000
vt 0.125000000 0.875000000
vt 0.375000000 0.875000000
vt 0.375000000 0.125000000
vt 0.125000000 0.125000000
vn 0.707106781 -0.000000000 0.707106781
vn 0.707106781 -0.000000000 0.707106781
vn 0.707106781 -0.000000000 0.707106781
vn 0.707106781 -0.000000000 0.707106781
g tube_8_4
usemtl fuel_rod_steel
f 289/289/289 290/290/290 291/291/291 292/292/292
v 0.500000000 0.125000000 0.250000000
v 0.601049324 0.125000000 0.291856000
v 0.541856000 0.125000000 0.351049324
vt 0.500000000 0.500000000
vt 0.400000000 0.400000000
vt 0.600000000 0.400000000
vn 0.000000000 -1.000000000 0.000000000
vn 0.000000000 -1.000000000 0.000000000
vn 0.000000000 -1.000000000 0.000000000
g tube_8_4
usemtl fuel_rod_steel
f 293/293/293 294/294/294 295/295/295
v 0.541856000 0.875000000 0.351049324
v 0.601049324 0.875000000 0.291856000
v 0.500000000 0.875000000 0.250000000
vt 0.600000000 0.400000000
vt 0.400000000 0.400000000
vt 0.500000000 0.500000000
vn -0.000000000 1.000000000 -0.000000000
vn -0.000000000 1.000000000 -0.000000000
vn -0.000000000 1.000000000 -0.000000000
g tube_8_4
usemtl fuel_rod_steel
f 296/296/296 297/297/297 298/298/298
v 0.541856000 0.875000000 0.351049324
v 0.458144000 0.875000000 0.351049324
v 0.458144000 0.125000000 0.351049324
v 0.541856000 0.125000000 0.351049324
vt 0.125000000 0.875000000
vt 0.375000000 0.875000000
vt 0.375000000 0.125000000
vt 0.125000000 0.125000000
vn -0.000000000 -0.000000000 1.000000000
vn -0.000000000 -0.000000000 1.000000000
vn -0.000000000 -0.000000000 1.000000000
vn -0.000000000 -0.000000000 1.000000000
g tube_8_4
usemtl fuel_rod_steel
f 299/299/299 300/300/300 301/301/301 302/302/302
v 0.500000000 0.125000000 0.250000000
v 0.541856000 0.125000000 0.351049324
v 0.458144000 0.125000000 0.351049324
vt 0.500000000 0.500000000
vt 0.400000000 0.400000000
vt 0.600000000 0.400000000
vn 0.000000000 -1.000000000 0.000000000
vn 0.000000000 -1.000000000 0.000000000
vn 0.000000000 -1.000000000 0.000000000
g tube_8_4
usemtl fuel_rod_steel
f 303/303/303 304/304/304 305/305/305
v 0.458144000 0.875000000 0.351049324
v 0.541856000 0.875000000 0.351049324
v 0.500000000 0.875000000 0.250000000
vt 0.600000000 0.400000000
vt 0.400000000 0.400000000
vt 0.500000000 0.500000000
vn -0.000000000 1.000000000 -0.000000000
vn -0.000000000 1.000000000 -0.000000000
vn -0.000000000 1.000000000 -0.000000000
g tube_8_4
usemtl fuel_rod_steel
f 306/306/306 307/307/307 308/308/308
v 0.458144000 0.875000000 0.351049324
v 0.398950676 0.875000000 0.291856000
v 0.398950676 0.125000000 0.291856000
v 0.458144000 0.125000000 0.351049324
vt 0.125000000 0.875000000
vt 0.375000000 0.875000000
vt 0.375000000 0.125000000
vt 0.125000000 0.125000000
vn -0.707106781 -0.000000000 0.707106781
vn -0.707106781 -0.000000000 0.707106781
vn -0.707106781 -0.000000000 0.707106781
vn -0.707106781 -0.000000000 0.707106781
g tube_8_4
usemtl fuel_rod_steel
f 309/309/309 310/310/310 311/311/311 312/312/312
v 0.500000000 0.125000000 0.250000000
v 0.458144000 0.125000000 0.351049324
v 0.398950676 0.125000000 0.291856000
vt 0.500000000 0.500000000
vt 0.400000000 0.400000000
vt 0.600000000 0.400000000
vn 0.000000000 -1.000000000 0.000000000
vn 0.000000000 -1.000000000 0.000000000
vn 0.000000000 -1.000000000 0.000000000
g tube_8_4
usemtl fuel_rod_steel
f 313/313/313 314/314/314 315/315/315
v 0.398950676 0.875000000 0.291856000
v 0.458144000 0.875000000 0.351049324
v 0.500000000 0.875000000 0.250000000
vt 0.600000000 0.400000000
vt 0.400000000 0.400000000
vt 0.500000000 0.500000000
vn -0.000000000 1.000000000 -0.000000000
vn -0.000000000 1.000000000 -0.000000000
vn -0.000000000 1.000000000 -0.000000000
g tube_8_4
usemtl fuel_rod_steel
f 316/316/316 317/317/317 318/318/318
v 0.398950676 0.875000000 0.291856000
v 0.398950676 0.875000000 0.208144000
v 0.398950676 0.125000000 0.208144000
v 0.398950676 0.125000000 0.291856000
vt 0.125000000 0.875000000
vt 0.375000000 0.875000000
vt 0.375000000 0.125000000
vt 0.125000000 0.125000000
vn -1.000000000 -0.000000000 0.000000000
vn -1.000000000 -0.000000000 0.000000000
vn -1.000000000 -0.000000000 0.000000000
vn -1.000000000 -0.000000000 0.000000000
g tube_8_4
usemtl fuel_rod_steel
f 319/319/319 320/320/320 321/321/321 322/322/322
v 0.500000000 0.125000000 0.250000000
v 0.398950676 0.125000000 0.291856000
v 0.398950676 0.125000000 0.208144000
vt 0.500000000 0.500000000
vt 0.400000000 0.400000000
vt 0.600000000 0.400000000
vn -0.000000000 -1.000000000 0.000000000
vn -0.000000000 -1.000000000 0.000000000
vn -0.000000000 -1.000000000 0.000000000
g tube_8_4
usemtl fuel_rod_steel
f 323/323/323 324/324/324 325/325/325
v 0.398950676 0.875000000 0.208144000
v 0.398950676 0.875000000 0.291856000
v 0.500000000 0.875000000 0.250000000
vt 0.600000000 0.400000000
vt 0.400000000 0.400000000
vt 0.500000000 0.500000000
vn 0.000000000 1.000000000 -0.000000000
vn 0.000000000 1.000000000 -0.000000000
vn 0.000000000 1.000000000 -0.000000000
g tube_8_4
usemtl fuel_rod_steel
f 326/326/326 327/327/327 328/328/328
v 0.398950676 0.875000000 0.208144000
v 0.458144000 0.875000000 0.148950676
v 0.458144000 0.125000000 0.148950676
v 0.398950676 0.125000000 0.208144000
vt 0.125000000 0.875000000
vt 0.375000000 0.875000000
vt 0.375000000 0.125000000
vt 0.125000000 0.125000000
vn -0.707106781 -0.000000000 -0.707106781
vn -0.707106781 -0.000000000 -0.707106781
vn -0.707106781 -0.000000000 -0.707106781
vn -0.707106781 -0.000000000 -0.707106781
g tube_8_4
usemtl fuel_rod_steel
f 329/329/329 330/330/330 331/331/331 332/332/332
v 0.500000000 0.125000000 0.250000000
v 0.398950676 0.125000000 0.208144000
v 0.458144000 0.125000000 0.148950676
vt 0.500000000 0.500000000
vt 0.400000000 0.400000000
vt 0.600000000 0.400000000
vn 0.000000000 -1.000000000 0.000000000
vn 0.000000000 -1.000000000 0.000000000
vn 0.000000000 -1.000000000 0.000000000
g tube_8_4
usemtl fuel_rod_steel
f 333/333/333 334/334/334 335/335/335
v 0.458144000 0.875000000 0.148950676
v 0.398950676 0.875000000 0.208144000
v 0.500000000 0.875000000 0.250000000
vt 0.600000000 0.400000000
vt 0.400000000 0.400000000
vt 0.500000000 0.500000000
vn -0.000000000 1.000000000 -0.000000000
vn -0.000000000 1.000000000 -0.000000000
vn -0.000000000 1.000000000 -0.000000000
g tube_8_4
usemtl fuel_rod_steel
f 336/336/336 337/337/337 338/338/338
v 0.458144000 0.875000000 0.148950676
v 0.541856000 0.875000000 0.148950676
v 0.541856000 0.125000000 0.148950676
v 0.458144000 0.125000000 0.148950676
vt 0.125000000 0.875000000
vt 0.375000000 0.875000000
vt 0.375000000 0.125000000
vt 0.125000000 0.125000000
vn -0.000000000 -0.000000000 -1.000000000
vn -0.000000000 -0.000000000 -1.000000000
vn -0.000000000 -0.000000000 -1.000000000
vn -0.000000000 -0.000000000 -1.000000000
g tube_8_4
usemtl fuel_rod_steel
f 339/339/339 340/340/340 341/341/341 342/342/342
v 0.500000000 0.125000000 0.250000000
v 0.458144000 0.125000000 0.148950676
v 0.541856000 0.125000000 0.148950676
vt 0.500000000 0.500000000
vt 0.400000000 0.400000000
vt 0.600000000 0.400000000
vn 0.000000000 -1.000000000 -0.000000000
vn 0.000000000 -1.000000000 -0.000000000
vn 0.000000000 -1.000000000 -0.000000000
g tube_8_4
usemtl fuel_rod_steel
f 343/343/343 344/344/344 345/345/345
v 0.541856000 0.875000000 0.148950676
v 0.458144000 0.875000000 0.148950676
v 0.500000000 0.875000000 0.250000000
vt 0.600000000 0.400000000
vt 0.400000000 0.400000000
vt 0.500000000 0.500000000
vn -0.000000000 1.000000000 0.000000000
vn -0.000000000 1.000000000 0.000000000
vn -0.000000000 1.000000000 0.000000000
g tube_8_4
usemtl fuel_rod_steel
f 346/346/346 347/347/347 348/348/348
v 0.541856000 0.875000000 0.148950676
v 0.601049324 0.875000000 0.208144000
v 0.601049324 0.125000000 0.208144000
v 0.541856000 0.125000000 0.148950676
vt 0.125000000 0.875000000
vt 0.375000000 0.875000000
vt 0.375000000 0.125000000
vt 0.125000000 0.125000000
vn 0.707106781 -0.000000000 -0.707106781
vn 0.707106781 -0.000000000 -0.707106781
vn 0.707106781 -0.000000000 -0.707106781
vn 0.707106781 -0.000000000 -0.707106781
g tube_8_4
usemtl fuel_rod_steel
f 349/349/349 350/350/350 351/351/351 352/352/352
v 0.500000000 0.125000000 0.250000000
v 0.541856000 0.125000000 0.148950676
v 0.601049324 0.125000000 0.208144000
vt 0.500000000 0.500000000
vt 0.400000000 0.400000000
vt 0.600000000 0.400000000
vn 0.000000000 -1.000000000 0.000000000
vn 0.000000000 -1.000000000 0.000000000
vn 0.000000000 -1.000000000 0.000000000
g tube_8_4
usemtl fuel_rod_steel
f 353/353/353 354/354/354 355/355/355
v 0.601049324 0.875000000 0.208144000
v 0.541856000 0.875000000 0.148950676
v 0.500000000 0.875000000 0.250000000
vt 0.600000000 0.400000000
vt 0.400000000 0.400000000
vt 0.500000000 0.500000000
vn -0.000000000 1.000000000 -0.000000000
vn -0.000000000 1.000000000 -0.000000000
vn -0.000000000 1.000000000 -0.000000000
g tube_8_4
usemtl fuel_rod_steel
f 356/356/356 357/357/357 358/358/358
v 0.601049324 0.875000000 0.208144000
v 0.601049324 0.875000000 0.291856000
v 0.601049324 0.125000000 0.291856000
v 0.601049324 0.125000000 0.208144000
vt 0.125000000 0.875000000
vt 0.375000000 0.875000000
vt 0.375000000 0.125000000
vt 0.125000000 0.125000000
vn 1.000000000 -0.000000000 -0.000000000
vn 1.000000000 -0.000000000 -0.000000000
vn 1.000000000 -0.000000000 -0.000000000
vn 1.000000000 -0.000000000 -0.000000000
g tube_8_4
usemtl fuel_rod_steel
f 359/359/359 360/360/360 361/361/361 362/362/362
v 0.500000000 0.125000000 0.250000000
v 0.601049324 0.125000000 0.208144000
v 0.601049324 0.125000000 0.291856000
vt 0.500000000 0.500000000
vt 0.400000000 0.400000000
vt 0.600000000 0.400000000
vn 0.000000000 -1.000000000 0.000000000
vn 0.000000000 -1.000000000 0.000000000
vn 0.000000000 -1.000000000 0.000000000
g tube_8_4
usemtl fuel_rod_steel
f 363/363/363 364/364/364 365/365/365
v 0.601049324 0.875000000 0.291856000
v 0.601049324 0.875000000 0.208144000
v 0.500000000 0.875000000 0.250000000
vt 0.600000000 0.400000000
vt 0.400000000 0.400000000
vt 0.500000000 0.500000000
vn -0.000000000 1.000000000 -0.000000000
vn -0.000000000 1.000000000 -0.000000000
vn -0.000000000 1.000000000 -0.000000000
g tube_8_4
usemtl fuel_rod_steel
f 366/366/366 367/367/367 368/368/368
v 0.601049324 0.875000000 0.541856000
v 0.541856000 0.875000000 0.601049324
v 0.541856000 0.125000000 0.601049324
v 0.601049324 0.125000000 0.541856000
vt 0.125000000 0.875000000
vt 0.375000000 0.875000000
vt 0.375000000 0.125000000
vt 0.125000000 0.125000000
vn 0.707106781 -0.000000000 0.707106781
vn 0.707106781 -0.000000000 0.707106781
vn 0.707106781 -0.000000000 0.707106781
vn 0.707106781 -0.000000000 0.707106781
g tube_8_8
usemtl fuel_rod_steel
f 369/369/369 370/370/370 371/371/371 372/372/372
v 0.500000000 0.125000000 0.500000000
v 0.601049324 0.125000000 0.541856000
v 0.541856000 0.125000000 0.601049324
vt 0.500000000 0.500000000
vt 0.400000000 0.400000000
vt 0.600000000 0.400000000
vn 0.000000000 -1.000000000 0.000000000
vn 0.000000000 -1.000000000 0.000000000
vn 0.000000000 -1.000000000 0.000000000
g tube_8_8
usemtl fuel_rod_steel
f 373/373/373 374/374/374 375/375/375
v 0.541856000 0.875000000 0.601049324
v 0.601049324 0.875000000 0.541856000
v 0.500000000 0.875000000 0.500000000
vt 0.600000000 0.400000000
vt 0.400000000 0.400000000
vt 0.500000000 0.500000000
vn -0.000000000 1.000000000 -0.000000000
vn -0.000000000 1.000000000 -0.000000000
vn -0.000000000 1.000000000 -0.000000000
g tube_8_8
usemtl fuel_rod_steel
f 376/376/376 377/377/377 378/378/378
v 0.541856000 0.875000000 0.601049324
v 0.458144000 0.875000000 0.601049324
v 0.458144000 0.125000000 0.601049324
v 0.541856000 0.125000000 0.601049324
vt 0.125000000 0.875000000
vt 0.375000000 0.875000000
vt 0.375000000 0.125000000
vt 0.125000000 0.125000000
vn -0.000000000 -0.000000000 1.000000000
vn -0.000000000 -0.000000000 1.000000000
vn -0.000000000 -0.000000000 1.000000000
vn -0.000000000 -0.000000000 1.000000000
g tube_8_8
usemtl fuel_rod_steel
f 379/379/379 380/380/380 381/381/381 382/382/382
v 0.500000000 0.125000000 0.500000000
v 0.541856000 0.125000000 0.601049324
v 0.458144000 0.125000000 0.601049324
vt 0.500000000 0.500000000
vt 0.400000000 0.400000000
vt 0.600000000 0.400000000
vn 0.000000000 -1.000000000 0.000000000
vn 0.000000000 -1.000000000 0.000000000
vn 0.000000000 -1.000000000 0.000000000
g tube_8_8
usemtl fuel_rod_steel
f 383/383/383 384/384/384 385/385/385
v 0.458144000 0.875000000 0.601049324
v 0.541856000 0.875000000 0.601049324
v 0.500000000 0.875000000 0.500000000
vt 0.600000000 0.400000000
vt 0.400000000 0.400000000
vt 0.500000000 0.500000000
vn -0.000000000 1.000000000 -0.000000000
vn -0.000000000 1.000000000 -0.000000000
vn -0.000000000 1.000000000 -0.000000000
g tube_8_8
usemtl fuel_rod_steel
f 386/386/386 387/387/387 388/388/388
v 0.458144000 0.875000000 0.601049324
v 0.398950676 0.875000000 0.541856000
v 0.398950676 0.125000000 0.541856000
v 0.458144000 0.125000000 0.601049324
vt 0.125000000 0.875000000
vt 0.375000000 0.875000000
vt 0.375000000 0.125000000
vt 0.125000000 0.125000000
vn -0.707106781 -0.000000000 0.707106781
vn -0.707106781 -0.000000000 0.707106781
vn -0.707106781 -0.000000000 0.707106781
vn -0.707106781 -0.000000000 0.707106781
g tube_8_8
usemtl fuel_rod_steel
f 389/389/389 390/390/390 391/391/391 392/392/392
v 0.500000000 0.125000000 0.500000000
v 0.458144000 0.125000000 0.601049324
v 0.398950676 0.125000000 0.541856000
vt 0.500000000 0.500000000
vt 0.400000000 0.400000000
vt 0.600000000 0.400000000
vn 0.000000000 -1.000000000 0.000000000
vn 0.000000000 -1.000000000 0.000000000
vn 0.000000000 -1.000000000 0.000000000
g tube_8_8
usemtl fuel_rod_steel
f 393/393/393 394/394/394 395/395/395
v 0.398950676 0.875000000 0.541856000
v 0.458144000 0.875000000 0.601049324
v 0.500000000 0.875000000 0.500000000
vt 0.600000000 0.400000000
vt 0.400000000 0.400000000
vt 0.500000000 0.500000000
vn -0.000000000 1.000000000 -0.000000000
vn -0.000000000 1.000000000 -0.000000000
vn -0.000000000 1.000000000 -0.000000000
g tube_8_8
usemtl fuel_rod_steel
f 396/396/396 397/397/397 398/398/398
v 0.398950676 0.875000000 0.541856000
v 0.398950676 0.875000000 0.458144000
v 0.398950676 0.125000000 0.458144000
v 0.398950676 0.125000000 0.541856000
vt 0.125000000 0.875000000
vt 0.375000000 0.875000000
vt 0.375000000 0.125000000
vt 0.125000000 0.125000000
vn -1.000000000 -0.000000000 0.000000000
vn -1.000000000 -0.000000000 0.000000000
vn -1.000000000 -0.000000000 0.000000000
vn -1.000000000 -0.000000000 0.000000000
g tube_8_8
usemtl fuel_rod_steel
f 399/399/399 400/400/400 401/401/401 402/402/402
v 0.500000000 0.125000000 0.500000000
v 0.398950676 0.125000000 0.541856000
v 0.398950676 0.125000000 0.458144000
vt 0.500000000 0.500000000
vt 0.400000000 0.400000000
vt 0.600000000 0.400000000
vn -0.000000000 -1.000000000 0.000000000
vn -0.000000000 -1.000000000 0.000000000
vn -0.000000000 -1.000000000 0.000000000
g tube_8_8
usemtl fuel_rod_steel
f 403/403/403 404/404/404 405/405/405
v 0.398950676 0.875000000 0.458144000
v 0.398950676 0.875000000 0.541856000
v 0.500000000 0.875000000 0.500000000
vt 0.600000000 0.400000000
vt 0.400000000 0.400000000
vt 0.500000000 0.500000000
vn 0.000000000 1.000000000 -0.000000000
vn 0.000000000 1.000000000 -0.000000000
vn 0.000000000 1.000000000 -0.000000000
g tube_8_8
usemtl fuel_rod_steel
f 406/406/406 407/407/407 408/408/408
v 0.398950676 0.875000000 0.458144000
v 0.458144000 0.875000000 0.398950676
v 0.458144000 0.125000000 0.398950676
v 0.398950676 0.125000000 0.458144000
vt 0.125000000 0.875000000
vt 0.375000000 0.875000000
vt 0.375000000 0.125000000
vt 0.125000000 0.125000000
vn -0.707106781 -0.000000000 -0.707106781
vn -0.707106781 -0.000000000 -0.707106781
vn -0.707106781 -0.000000000 -0.707106781
vn -0.707106781 -0.000000000 -0.707106781
g tube_8_8
usemtl fuel_rod_steel
f 409/409/409 410/410/410 411/411/411 412/412/412
v 0.500000000 0.125000000 0.500000000
v 0.398950676 0.125000000 0.458144000
v 0.458144000 0.125000000 0.398950676
vt 0.500000000 0.500000000
vt 0.400000000 0.400000000
vt 0.600000000 0.400000000
vn 0.000000000 -1.000000000 0.000000000
vn 0.000000000 -1.000000000 0.000000000
vn 0.000000000 -1.000000000 0.000000000
g tube_8_8
usemtl fuel_rod_steel
f 413/413/413 414/414/414 415/415/415
v 0.458144000 0.875000000 0.398950676
v 0.398950676 0.875000000 0.458144000
v 0.500000000 0.875000000 0.500000000
vt 0.600000000 0.400000000
vt 0.400000000 0.400000000
vt 0.500000000 0.500000000
vn -0.000000000 1.000000000 -0.000000000
vn -0.000000000 1.000000000 -0.000000000
vn -0.000000000 1.000000000 -0.000000000
g tube_8_8
usemtl fuel_rod_steel
f 416/416/416 417/417/417 418/418/418
v 0.458144000 0.875000000 0.398950676
v 0.541856000 0.875000000 0.398950676
v 0.541856000 0.125000000 0.398950676
v 0.458144000 0.125000000 0.398950676
vt 0.125000000 0.875000000
vt 0.375000000 0.875000000
vt 0.375000000 0.125000000
vt 0.125000000 0.125000000
vn -0.000000000 -0.000000000 -1.000000000
vn -0.000000000 -0.000000000 -1.000000000
vn -0.000000000 -0.000000000 -1.000000000
vn -0.000000000 -0.000000000 -1.000000000
g tube_8_8
usemtl fuel_rod_steel
f 419/419/419 420/420/420 421/421/421 422/422/422
v 0.500000000 0.125000000 0.500000000
v 0.458144000 0.125000000 0.398950676
v 0.541856000 0.125000000 0.398950676
vt 0.500000000 0.500000000
vt 0.400000000 0.400000000
vt 0.600000000 0.400000000
vn 0.000000000 -1.000000000 -0.000000000
vn 0.000000000 -1.000000000 -0.000000000
vn 0.000000000 -1.000000000 -0.000000000
g tube_8_8
usemtl fuel_rod_steel
f 423/423/423 424/424/424 425/425/425
v 0.541856000 0.875000000 0.398950676
v 0.458144000 0.875000000 0.398950676
v 0.500000000 0.875000000 0.500000000
vt 0.600000000 0.400000000
vt 0.400000000 0.400000000
vt 0.500000000 0.500000000
vn -0.000000000 1.000000000 0.000000000
vn -0.000000000 1.000000000 0.000000000
vn -0.000000000 1.000000000 0.000000000
g tube_8_8
usemtl fuel_rod_steel
f 426/426/426 427/427/427 428/428/428
v 0.541856000 0.875000000 0.398950676
v 0.601049324 0.875000000 0.458144000
v 0.601049324 0.125000000 0.458144000
v 0.541856000 0.125000000 0.398950676
vt 0.125000000 0.875000000
vt 0.375000000 0.875000000
vt 0.375000000 0.125000000
vt 0.125000000 0.125000000
vn 0.707106781 -0.000000000 -0.707106781
vn 0.707106781 -0.000000000 -0.707106781
vn 0.707106781 -0.000000000 -0.707106781
vn 0.707106781 -0.000000000 -0.707106781
g tube_8_8
usemtl fuel_rod_steel
f 429/429/429 430/430/430 431/431/431 432/432/432
v 0.500000000 0.125000000 0.500000000
v 0.541856000 0.125000000 0.398950676
v 0.601049324 0.125000000 0.458144000
vt 0.500000000 0.500000000
vt 0.400000000 0.400000000
vt 0.600000000 0.400000000
vn 0.000000000 -1.000000000 0.000000000
vn 0.000000000 -1.000000000 0.000000000
vn 0.000000000 -1.000000000 0.000000000
g tube_8_8
usemtl fuel_rod_steel
f 433/433/433 434/434/434 435/435/435
v 0.601049324 0.875000000 0.458144000
v 0.541856000 0.875000000 0.398950676
v 0.500000000 0.875000000 0.500000000
vt 0.600000000 0.400000000
vt 0.400000000 0.400000000
vt 0.500000000 0.500000000
vn -0.000000000 1.000000000 -0.000000000
vn -0.000000000 1.000000000 -0.000000000
vn -0.000000000 1.000000000 -0.000000000
g tube_8_8
usemtl fuel_rod_steel
f 436/436/436 437/437/437 438/438/438
v 0.601049324 0.875000000 0.458144000
v 0.601049324 0.875000000 0.541856000
v 0.601049324 0.125000000 0.541856000
v 0.601049324 0.125000000 0.458144000
vt 0.125000000 0.875000000
vt 0.375000000 0.875000000
vt 0.375000000 0.125000000
vt 0.125000000 0.125000000
vn 1.000000000 -0.000000000 -0.000000000
vn 1.000000000 -0.000000000 -0.000000000
vn 1.000000000 -0.000000000 -0.000000000
vn 1.000000000 -0.000000000 -0.000000000
g tube_8_8
usemtl fuel_rod_steel
f 439/439/439 440/440/440 441/441/441 442/442/442
v 0.500000000 0.125000000 0.500000000
v 0.601049324 0.125000000 0.458144000
v 0.601049324 0.125000000 0.541856000
vt 0.500000000 0.500000000
vt 0.400000000 0.400000000
vt 0.600000000 0.400000000
vn 0.000000000 -1.000000000 0.000000000
vn 0.000000000 -1.000000000 0.000000000
vn 0.000000000 -1.000000000 0.000000000
g tube_8_8
usemtl fuel_rod_steel
f 443/443/443 444/444/444 445/445/445
v 0.601049324 0.875000000 0.541856000
v 0.601049324 0.875000000 0.458144000
v 0.500000000 0.875000000 0.500000000
vt 0.600000000 0.400000000
vt 0.400000000 0.400000000
vt 0.500000000 0.500000000
vn -0.000000000 1.000000000 -0.000000000
vn -0.000000000 1.000000000 -0.000000000
vn -0.000000000 1.000000000 -0.000000000
g tube_8_8
usemtl fuel_rod_steel
f 446/446/446 447/447/447 448/448/448
v 0.601049324 0.875000000 0.791856000
v 0.541856000 0.875000000 0.851049324
v 0.541856000 0.125000000 0.851049324
v 0.601049324 0.125000000 0.791856000
vt 0.125000000 0.875000000
vt 0.375000000 0.875000000
vt 0.375000000 0.125000000
vt 0.125000000 0.125000000
vn 0.707106781 -0.000000000 0.707106781
vn 0.707106781 -0.000000000 0.707106781
vn 0.707106781 -0.000000000 0.707106781
vn 0.707106781 -0.000000000 0.707106781
g tube_8_12
usemtl fuel_rod_steel
f 449/449/449 450/450/450 451/451/451 452/452/452
v 0.500000000 0.125000000 0.750000000
v 0.601049324 0.125000000 0.791856000
v 0.541856000 0.125000000 0.851049324
vt 0.500000000 0.500000000
vt 0.400000000 0.400000000
vt 0.600000000 0.400000000
vn 0.000000000 -1.000000000 0.000000000
vn 0.000000000 -1.000000000 0.000000000
vn 0.000000000 -1.000000000 0.000000000
g tube_8_12
usemtl fuel_rod_steel
f 453/453/453 454/454/454 455/455/455
v 0.541856000 0.875000000 0.851049324
v 0.601049324 0.875000000 0.791856000
v 0.500000000 0.875000000 0.750000000
vt 0.600000000 0.400000000
vt 0.400000000 0.400000000
vt 0.500000000 0.500000000
vn -0.000000000 1.000000000 -0.000000000
vn -0.000000000 1.000000000 -0.000000000
vn -0.000000000 1.000000000 -0.000000000
g tube_8_12
usemtl fuel_rod_steel
f 456/456/456 457/457/457 458/458/458
v 0.541856000 0.875000000 0.851049324
v 0.458144000 0.875000000 0.851049324
v 0.458144000 0.125000000 0.851049324
v 0.541856000 0.125000000 0.851049324
vt 0.125000000 0.875000000
vt 0.375000000 0.875000000
vt 0.375000000 0.125000000
vt 0.125000000 0.125000000
vn -0.000000000 -0.000000000 1.000000000
vn -0.000000000 -0.000000000 1.000000000
vn -0.000000000 -0.000000000 1.000000000
vn -0.000000000 -0.000000000 1.000000000
g tube_8_12
usemtl fuel_rod_steel
f 459/459/459 460/460/460 461/461/461 462/462/462
v 0.500000000 0.125000000 0.750000000
v 0.541856000 0.125000000 0.851049324
v 0.458144000 0.125000000 0.851049324
vt 0.500000000 0.500000000
vt 0.400000000 0.400000000
vt 0.600000000 0.400000000
vn 0.000000000 -1.000000000 0.000000000
vn 0.000000000 -1.000000000 0.000000000
vn 0.000000000 -1.000000000 0.000000000
g tube_8_12
usemtl fuel_rod_steel
f 463/463/463 464/464/464 465/465/465
v 0.458144000 0.875000000 0.851049324
v 0.541856000 0.875000000 0.851049324
v 0.500000000 0.875000000 0.750000000
vt 0.600000000 0.400000000
vt 0.400000000 0.400000000
vt 0.500000000 0.500000000
vn -0.000000000 1.000000000 -0.000000000
vn -0.000000000 1.000000000 -0.000000000
vn -0.000000000 1.000000000 -0.000000000
g tube_8_12
usemtl fuel_rod_steel
f 466/466/466 467/467/467 468/468/468
v 0.458144000 0.875000000 0.851049324
v 0.398950676 0.875000000 0.791856000
v 0.398950676 0.125000000 0.791856000
v 0.458144000 0.125000000 0.851049324
vt 0.125000000 0.875000000
vt 0.375000000 0.875000000
vt 0.375000000 0.125000000
vt 0.125000000 0.125000000
vn -0.707106781 -0.000000000 0.707106781
vn -0.707106781 -0.000000000 0.707106781
vn -0.707106781 -0.000000000 0.707106781
vn -0.707106781 -0.000000000 0.707106781
g tube_8_12
usemtl fuel_rod_steel
f 469/469/469 470/470/470 471/471/471 472/472/472
v 0.500000000 0.125000000 0.750000000
v 0.458144000 0.125000000 0.851049324
v 0.398950676 0.125000000 0.791856000
vt 0.500000000 0.500000000
vt 0.400000000 0.400000000
vt 0.600000000 0.400000000
vn 0.000000000 -1.000000000 0.000000000
vn 0.000000000 -1.000000000 0.000000000
vn 0.000000000 -1.000000000 0.000000000
g tube_8_12
usemtl fuel_rod_steel
f 473/473/473 474/474/474 475/475/475
v 0.398950676 0.875000000 0.791856000
v 0.458144000 0.875000000 0.851049324
v 0.500000000 0.875000000 0.750000000
vt 0.600000000 0.400000000
vt 0.400000000 0.400000000
vt 0.500000000 0.500000000
vn -0.000000000 1.000000000 -0.000000000
vn -0.000000000 1.000000000 -0.000000000
vn -0.000000000 1.000000000 -0.000000000
g tube_8_12
usemtl fuel_rod_steel
f 476/476/476 477/477/477 478/478/478
v 0.398950676 0.875000000 0.791856000
v 0.398950676 0.875000000 0.708144000
v 0.398950676 0.125000000 0.708144000
v 0.398950676 0.125000000 0.791856000
vt 0.125000000 0.875000000
vt 0.375000000 0.875000000
vt 0.375000000 0.125000000
vt 0.125000000 0.125000000
vn -1.000000000 -0.000000000 0.000000000
vn -1.000000000 -0.000000000 0.000000000
vn -1.000000000 -0.000000000 0.000000000
vn -1.000000000 -0.000000000 0.000000000
g tube_8_12
usemtl fuel_rod_steel
f 479/479/479 480/480/480 481/481/481 482/482/482
v 0.500000000 0.125000000 0.750000000
v 0.398950676 0.125000000 0.791856000
v 0.398950676 0.125000000 0.708144000
vt 0.500000000 0.500000000
vt 0.400000000 0.400000000
vt 0.600000000 0.400000000
vn -0.000000000 -1.000000000 0.000000000
vn -0.000000000 -1.000000000 0.000000000
vn -0.000000000 -1.000000000 0.000000000
g tube_8_12
usemtl fuel_rod_steel
f 483/483/483 484/484/484 485/485/485
v 0.398950676 0.875000000 0.708144000
v 0.398950676 0.875000000 0.791856000
v 0.500000000 0.875000000 0.750000000
vt 0.600000000 0.400000000
vt 0.400000000 0.400000000
vt 0.500000000 0.500000000
vn 0.000000000 1.000000000 -0.000000000
vn 0.000000000 1.000000000 -0.000000000
vn 0.000000000 1.000000000 -0.000000000
g tube_8_12
usemtl fuel_rod_steel
f 486/486/486 487/487/487 488/488/488
v 0.398950676 0.875000000 0.708144000
v 0.458144000 0.875000000 0.648950676
v 0.458144000 0.125000000 0.648950676
v 0.398950676 0.125000000 0.708144000
vt 0.125000000 0.875000000
vt 0.375000000 0.875000000
vt 0.375000000 0.125000000
vt 0.125000000 0.125000000
vn -0.707106781 -0.000000000 -0.707106781
vn -0.707106781 -0.000000000 -0.707106781
vn -0.707106781 -0.000000000 -0.707106781
vn -0.707106781 -0.000000000 -0.707106781
g tube_8_12
usemtl fuel_rod_steel
f 489/489/489 490/490/490 491/491/491 492/492/492
v 0.500000000 0.125000000 0.750000000
v 0.398950676 0.125000000 0.708144000
v 0.458144000 0.125000000 0.648950676
vt 0.500000000 0.500000000
vt 0.400000000 0.400000000
vt 0.600000000 0.400000000
vn 0.000000000 -1.000000000 0.000000000
vn 0.000000000 -1.000000000 0.000000000
vn 0.000000000 -1.000000000 0.000000000
g tube_8_12
usemtl fuel_rod_steel
f 493/493/493 494/494/494 495/495/495
v 0.458144000 0.875000000 0.648950676
v 0.398950676 0.875000000 0.708144000
v 0.500000000 0.875000000 0.750000000
vt 0.600000000 0.400000000
vt 0.400000000 0.400000000
vt 0.500000000 0.500000000
vn -0.000000000 1.000000000 -0.000000000
vn -0.000000000 1.000000000 -0.000000000
vn -0.000000000 1.000000000 -0.000000000
g tube_8_12
usemtl fuel_rod_steel
f 496/496/496 497/497/497 498/498/498
v 0.458144000 0.875000000 0.648950676
v 0.541856000 0.875000000 0.648950676
v 0.541856000 0.125000000 0.648950676
v 0.458144000 0.125000000 0.648950676
vt 0.125000000 0.875000000
vt 0.375000000 0.875000000
vt 0.375000000 0.125000000
vt 0.125000000 0.125000000
vn -0.000000000 -0.000000000 -1.000000000
vn -0.000000000 -0.000000000 -1.000000000
vn -0.000000000 -0.000000000 -1.000000000
vn -0.000000000 -0.000000000 -1.000000000
g tube_8_12
usemtl fuel_rod_steel
f 499/499/499 500/500/500 501/501/501 502/502/502
v 0.500000000 0.125000000 0.750000000
v 0.458144000 0.125000000 0.648950676
v 0.541856000 0.125000000 0.648950676
vt 0.500000000 0.500000000
vt 0.400000000 0.400000000
vt 0.600000000 0.400000000
vn 0.000000000 -1.000000000 -0.000000000
vn 0.000000000 -1.000000000 -0.000000000
vn 0.000000000 -1.000000000 -0.000000000
g tube_8_12
usemtl fuel_rod_steel
f 503/503/503 504/504/504 505/505/505
v 0.541856000 0.875000000 0.648950676
v 0.458144000 0.875000000 0.648950676
v 0.500000000 0.875000000 0.750000000
vt 0.600000000 0.400000000
vt 0.400000000 0.400000000
vt 0.500000000 0.500000000
vn -0.000000000 1.000000000 0.000000000
vn -0.000000000 1.000000000 0.000000000
vn -0.000000000 1.000000000 0.000000000
g tube_8_12
usemtl fuel_rod_steel
f 506/506/506 507/507/507 508/508/508
v 0.541856000 0.875000000 0.648950676
v 0.601049324 0.875000000 0.708144000
v 0.601049324 0.125000000 0.708144000
v 0.541856000 0.125000000 0.648950676
vt 0.125000000 0.875000000
vt 0.375000000 0.875000000
vt 0.375000000 0.125000000
vt 0.125000000 0.125000000
vn 0.707106781 -0.000000000 -0.707106781
vn 0.707106781 -0.000000000 -0.707106781
vn 0.707106781 -0.000000000 -0.707106781
vn 0.707106781 -0.000000000 -0.707106781
g tube_8_12
usemtl fuel_rod_steel
f 509/509/509 510/510/510 511/511/511 512/512/512
v 0.500000000 0.125000000 0.750000000
v 0.541856000 0.125000000 0.648950676
v 0.601049324 0.125000000 0.708144000
vt 0.500000000 0.500000000
vt 0.400000000 0.400000000
vt 0.600000000 0.400000000
vn 0.000000000 -1.000000000 0.000000000
vn 0.000000000 -1.000000000 0.000000000
vn 0.000000000 -1.000000000 0.000000000
g tube_8_12
usemtl fuel_rod_steel
f 513/513/513 514/514/514 515/515/515
v 0.601049324 0.875000000 0.708144000
v 0.541856000 0.875000000 0.648950676
v 0.500000000 0.875000000 0.750000000
vt 0.600000000 0.400000000
vt 0.400000000 0.400000000
vt 0.500000000 0.500000000
vn -0.000000000 1.000000000 -0.000000000
vn -0.000000000 1.000000000 -0.000000000
vn -0.000000000 1.000000000 -0.000000000
g tube_8_12
usemtl fuel_rod_steel
f 516/516/516 517/517/517 518/518/518
v 0.601049324 0.875000000 0.708144000
v 0.601049324 0.875000000 0.791856000
v 0.601049324 0.125000000 0.791856000
v 0.601049324 0.125000000 0.708144000
vt 0.125000000 0.875000000
vt 0.375000000 0.875000000
vt 0.375000000 0.125000000
vt 0.125000000 0.125000000
vn 1.000000000 -0.000000000 -0.000000000
vn 1.000000000 -0.000000000 -0.000000000
vn 1.000000000 -0.000000000 -0.000000000
vn 1.000000000 -0.000000000 -0.000000000
g tube_8_12
usemtl fuel_rod_steel
f 519/519/519 520/520/520 521/521/521 522/522/522
v 0.500000000 0.125000000 0.750000000
v 0.601049324 0.125000000 0.708144000
v 0.601049324 0.125000000 0.791856000
vt 0.500000000 0.500000000
vt 0.400000000 0.400000000
vt 0.600000000 0.400000000
vn 0.000000000 -1.000000000 0.000000000
vn 0.000000000 -1.000000000 0.000000000
vn 0.000000000 -1.000000000 0.000000000
g tube_8_12
usemtl fuel_rod_steel
f 523/523/523 524/524/524 525/525/525
v 0.601049324 0.875000000 0.791856000
v 0.601049324 0.875000000 0.708144000
v 0.500000000 0.875000000 0.750000000
vt 0.600000000 0.400000000
vt 0.400000000 0.400000000
vt 0.500000000 0.500000000
vn -0.000000000 1.000000000 -0.000000000
vn -0.000000000 1.000000000 -0.000000000
vn -0.000000000 1.000000000 -0.000000000
g tube_8_12
usemtl fuel_rod_steel
f 526/526/526 527/527/527 528/528/528
v 0.851049324 0.875000000 0.291856000
v 0.791856000 0.875000000 0.351049324
v 0.791856000 0.125000000 0.351049324
v 0.851049324 0.125000000 0.291856000
vt 0.125000000 0.875000000
vt 0.375000000 0.875000000
vt 0.375000000 0.125000000
vt 0.125000000 0.125000000
vn 0.707106781 -0.000000000 0.707106781
vn 0.707106781 -0.000000000 0.707106781
vn 0.707106781 -0.000000000 0.707106781
vn 0.707106781 -0.000000000 0.707106781
g tube_12_4
usemtl fuel_rod_steel
f 529/529/529 530/530/530 531/531/531 532/532/532
v 0.750000000 0.125000000 0.250000000
v 0.851049324 0.125000000 0.291856000
v 0.791856000 0.125000000 0.351049324
vt 0.500000000 0.500000000
vt 0.400000000 0.400000000
vt 0.600000000 0.400000000
vn 0.000000000 -1.000000000 0.000000000
vn 0.000000000 -1.000000000 0.000000000
vn 0.000000000 -1.000000000 0.000000000
g tube_12_4
usemtl fuel_rod_steel
f 533/533/533 534/534/534 535/535/535
v 0.791856000 0.875000000 0.351049324
v 0.851049324 0.875000000 0.291856000
v 0.750000000 0.875000000 0.250000000
vt 0.600000000 0.400000000
vt 0.400000000 0.400000000
vt 0.500000000 0.500000000
vn -0.000000000 1.000000000 -0.000000000
vn -0.000000000 1.000000000 -0.000000000
vn -0.000000000 1.000000000 -0.000000000
g tube_12_4
usemtl fuel_rod_steel
f 536/536/536 537/537/537 538/538/538
v 0.791856000 0.875000000 0.351049324
v 0.708144000 0.875000000 0.351049324
v 0.708144000 0.125000000 0.351049324
v 0.791856000 0.125000000 0.351049324
vt 0.125000000 0.875000000
vt 0.375000000 0.875000000
vt 0.375000000 0.125000000
vt 0.125000000 0.125000000
vn -0.000000000 -0.000000000 1.000000000
vn -0.000000000 -0.000000000 1.000000000
vn -0.000000000 -0.000000000 1.000000000
vn -0.000000000 -0.000000000 1.000000000
g tube_12_4
usemtl fuel_rod_steel
f 539/539/539 540/540/540 541/541/541 542/542/542
v 0.750000000 0.125000000 0.250000000
v 0.791856000 0.125000000 0.351049324
v 0.708144000 0.125000000 0.351049324
vt 0.500000000 0.500000000
vt 0.400000000 0.400000000
vt 0.600000000 0.400000000
vn 0.000000000 -1.000000000 0.000000000
vn 0.000000000 -1.000000000 0.000000000
vn 0.000000000 -1.000000000 0.000000000
g tube_12_4
usemtl fuel_rod_steel
f 543/543/543 544/544/544 545/545/545
v 0.708144000 0.875000000 0.351049324
v 0.791856000 0.875000000 0.351049324
v 0.750000000 0.875000000 0.250000000
vt 0.600000000 0.400000000
vt 0.400000000 0.400000000
vt 0.500000000 0.500000000
vn -0.000000000 1.000000000 -0.000000000
vn -0.000000000 1.000000000 -0.000000000
vn -0.000000000 1.000000000 -0.000000000
g tube_12_4
usemtl fuel_rod_steel
f 546/546/546 547/547/547 548/548/548
v 0.708144000 0.875000000 0.351049324
v 0.648950676 0.875000000 0.291856000
v 0.648950676 0.125000000 0.291856000
v 0.708144000 0.125000000 0.351049324
vt 0.125000000 0.875000000
vt 0.375000000 0.875000000
vt 0.375000000 0.125000000
vt 0.125000000 0.125000000
vn -0.707106781 -0.000000000 0.707106781
vn -0.707106781 -0.000000000 0.707106781
vn -0.707106781 -0.000000000 0.707106781
vn -0.707106781 -0.000000000 0.707106781
g tube_12_4
usemtl fuel_rod_steel
f 549/549/549 550/550/550 551/551/551 552/552/552
v 0.750000000 0.125000000 0.250000000
v 0.708144000 0.125000000 0.351049324
v 0.648950676 0.125000000 0.291856000
vt 0.500000000 0.500000000
vt 0.400000000 0.400000000
vt 0.600000000 0.400000000
vn 0.000000000 -1.000000000 0.000000000
vn 0.000000000 -1.000000000 0.000000000
vn 0.000000000 -1.000000000 0.000000000
g tube_12_4
usemtl fuel_rod_steel
f 553/553/553 554/554/554 555/555/555
v 0.648950676 0.875000000 0.291856000
v 0.708144000 0.875000000 0.351049324
v 0.750000000 0.875000000 0.250000000
vt 0.600000000 0.400000000
vt 0.400000000 0.400000000
vt 0.500000000 0.500000000
vn -0.000000000 1.000000000 -0.000000000
vn -0.000000000 1.000000000 -0.000000000
vn -0.000000000 1.000000000 -0.000000000
g tube_12_4
usemtl fuel_rod_steel
f 556/556/556 557/557/557 558/558/558
v 0.648950676 0.875000000 0.291856000
v 0.648950676 0.875000000 0.208144000
v 0.648950676 0.125000000 0.208144000
v 0.648950676 0.125000000 0.291856000
vt 0.125000000 0.875000000
vt 0.375000000 0.875000000
vt 0.375000000 0.125000000
vt 0.125000000 0.125000000
vn -1.000000000 -0.000000000 -0.000000000
vn -1.000000000 -0.000000000 -0.000000000
vn -1.000000000 -0.000000000 -0.000000000
vn -1.000000000 -0.000000000 -0.000000000
g tube_12_4
usemtl fuel_rod_steel
f 559/559/559 560/560/560 561/561/561 562/562/562
v 0.750000000 0.125000000 0.250000000
v 0.648950676 0.125000000 0.291856000
v 0.648950676 0.125000000 0.208144000
vt 0.500000000 0.500000000
vt 0.400000000 0.400000000
vt 0.600000000 0.400000000
vn -0.000000000 -1.000000000 0.000000000
vn -0.000000000 -1.000000000 0.000000000
vn -0.000000000 -1.000000000 0.000000000
g tube_12_4
usemtl fuel_rod_steel
f 563/563/563 564/564/564 565/565/565
v 0.648950676 0.875000000 0.208144000
v 0.648950676 0.875000000 0.291856000
v 0.750000000 0.875000000 0.250000000
vt 0.600000000 0.400000000
vt 0.400000000 0.400000000
vt 0.500000000 0.500000000
vn 0.000000000 1.000000000 -0.000000000
vn 0.000000000 1.000000000 -0.000000000
vn 0.000000000 1.000000000 -0.000000000
g tube_12_4
usemtl fuel_rod_steel
f 566/566/566 567/567/567 568/568/568
v 0.648950676 0.875000000 0.208144000
v 0.708144000 0.875000000 0.148950676
v 0.708144000 0.125000000 0.148950676
v 0.648950676 0.125000000 0.208144000
vt 0.125000000 0.875000000
vt 0.375000000 0.875000000
vt 0.375000000 0.125000000
vt 0.125000000 0.125000000
vn -0.707106781 -0.000000000 -0.707106781
vn -0.707106781 -0.000000000 -0.707106781
vn -0.707106781 -0.000000000 -0.707106781
vn -0.707106781 -0.000000000 -0.707106781
g tube_12_4
usemtl fuel_rod_steel
f 569/569/569 570/570/570 571/571/571 572/572/572
v 0.750000000 0.125000000 0.250000000
v 0.648950676 0.125000000 0.208144000
v 0.708144000 0.125000000 0.148950676
vt 0.500000000 0.500000000
vt 0.400000000 0.400000000
vt 0.600000000 0.400000000
vn 0.000000000 -1.000000000 0.000000000
vn 0.000000000 -1.000000000 0.000000000
vn 0.000000000 -1.000000000 0.000000000
g tube_12_4
usemtl fuel_rod_steel
f 573/573/573 574/574/574 575/575/575
v 0.708144000 0.875000000 0.148950676
v 0.648950676 0.875000000 0.208144000
v 0.750000000 0.875000000 0.250000000
vt 0.600000000 0.400000000
vt 0.400000000 0.400000000
vt 0.500000000 0.500000000
vn -0.000000000 1.000000000 -0.000000000
vn -0.000000000 1.000000000 -0.000000000
vn -0.000000000 1.000000000 -0.000000000
g tube_12_4
usemtl fuel_rod_steel
f 576/576/576 577/577/577 578/578/578
v 0.708144000 0.875000000 0.148950676
v 0.791856000 0.875000000 0.148950676
v 0.791856000 0.125000000 0.148950676
v 0.708144000 0.125000000 0.148950676
vt 0.125000000 0.875000000
vt 0.375000000 0.875000000
vt 0.375000000 0.125000000
vt 0.125000000 0.125000000
vn -0.000000000 -0.000000000 -1.000000000
vn -0.000000000 -0.000000000 -1.000000000
vn -0.000000000 -0.000000000 -1.000000000
vn -0.000000000 -0.000000000 -1.000000000
g tube_12_4
usemtl fuel_rod_steel
f 579/579/579 580/580/580 581/581/581 582/582/582
v 0.750000000 0.125000000 0.250000000
v 0.708144000 0.125000000 0.148950676
v 0.791856000 0.125000000 0.148950676
vt 0.500000000 0.500000000
vt 0.400000000 0.400000000
vt 0.600000000 0.400000000
vn 0.000000000 -1.000000000 -0.000000000
vn 0.000000000 -1.000000000 -0.000000000
vn 0.000000000 -1.000000000 -0.000000000
g tube_12_4
usemtl fuel_rod_steel
f 583/583/583 584/584/584 585/585/585
v 0.791856000 0.875000000 0.148950676
v 0.708144000 0.875000000 0.148950676
v 0.750000000 0.875000000 0.250000000
vt 0.600000000 0.400000000
vt 0.400000000 0.400000000
vt 0.500000000 0.500000000
vn -0.000000000 1.000000000 0.000000000
vn -0.000000000 1.000000000 0.000000000
vn -0.000000000 1.000000000 0.000000000
g tube_12_4
usemtl fuel_rod_steel
f 586/586/586 587/587/587 588/588/588
v 0.791856000 0.875000000 0.148950676
v 0.851049324 0.875000000 0.208144000
v 0.851049324 0.125000000 0.208144000
v 0.791856000 0.125000000 0.148950676
vt 0.125000000 0.875000000
vt 0.375000000 0.875000000
vt 0.375000000 0.125000000
vt 0.125000000 0.125000000
vn 0.707106781 -0.000000000 -0.707106781
vn 0.707106781 -0.000000000 -0.707106781
vn 0.707106781 -0.000000000 -0.707106781
vn 0.707106781 -0.000000000 -0.707106781
g tube_12_4
usemtl fuel_rod_steel
f 589/589/589 590/590/590 591/591/591 592/592/592
v 0.750000000 0.125000000 0.250000000
v 0.791856000 0.125000000 0.148950676
v 0.851049324 0.125000000 0.208144000
vt 0.500000000 0.500000000
vt 0.400000000 0.400000000
vt 0.600000000 0.400000000
vn 0.000000000 -1.000000000 0.000000000
vn 0.000000000 -1.000000000 0.000000000
vn 0.000000000 -1.000000000 0.000000000
g tube_12_4
usemtl fuel_rod_steel
f 593/593/593 594/594/594 595/595/595
v 0.851049324 0.875000000 0.208144000
v 0.791856000 0.875000000 0.148950676
v 0.750000000 0.875000000 0.250000000
vt 0.600000000 0.400000000
vt 0.400000000 0.400000000
vt 0.500000000 0.500000000
vn -0.000000000 1.000000000 -0.000000000
vn -0.000000000 1.000000000 -0.000000000
vn -0.000000000 1.000000000 -0.000000000
g tube_12_4
usemtl fuel_rod_steel
f 596/596/596 597/597/597 598/598/598
v 0.851049324 0.875000000 0.208144000
v 0.851049324 0.875000000 0.291856000
v 0.851049324 0.125000000 0.291856000
v 0.851049324 0.125000000 0.208144000
vt 0.125000000 0.875000000
vt 0.375000000 0.875000000
vt 0.375000000 0.125000000
vt 0.125000000 0.125000000
vn 1.000000000 -0.000000000 -0.000000000
vn 1.000000000 -0.000000000 -0.000000000
vn 1.000000000 -0.000000000 -0.000000000
vn 1.000000000 -0.000000000 -0.000000000
g tube_12_4
usemtl fuel_rod_steel
f 599/599/599 600/600/600 601/601/601 602/602/602
v 0.750000000 0.125000000 0.250000000
v 0.851049324 0.125000000 0.208144000
v 0.851049324 0.125000000 0.291856000
vt 0.500000000 0.500000000
vt 0.400000000 0.400000000
vt 0.600000000 0.400000000
vn 0.000000000 -1.000000000 0.000000000
vn 0.000000000 -1.000000000 0.000000000
vn 0.000000000 -1.000000000 0.000000000
g tube_12_4
usemtl fuel_rod_steel
f 603/603/603 604/604/604 605/605/605
v 0.851049324 0.875000000 0.291856000
v 0.851049324 0.875000000 0.208144000
v 0.750000000 0.875000000 0.250000000
vt 0.600000000 0.400000000
vt 0.400000000 0.400000000
vt 0.500000000 0.500000000
vn -0.000000000 1.000000000 -0.000000000
vn -0.000000000 1.000000000 -0.000000000
vn -0.000000000 1.000000000 -0.000000000
g tube_12_4
usemtl fuel_rod_steel
f 606/606/606 607/607/607 608/608/608
v 0.851049324 0.875000000 0.541856000
v 0.791856000 0.875000000 0.601049324
v 0.791856000 0.125000000 0.601049324
v 0.851049324 0.125000000 0.541856000
vt 0.125000000 0.875000000
vt 0.375000000 0.875000000
vt 0.375000000 0.125000000
vt 0.125000000 0.125000000
vn 0.707106781 -0.000000000 0.707106781
vn 0.707106781 -0.000000000 0.707106781
vn 0.707106781 -0.000000000 0.707106781
vn 0.707106781 -0.000000000 0.707106781
g tube_12_8
usemtl fuel_rod_steel
f 609/609/609 610/610/610 611/611/611 612/612/612
v 0.750000000 0.125000000 0.500000000
v 0.851049324 0.125000000 0.541856000
v 0.791856000 0.125000000 0.601049324
vt 0.500000000 0.500000000
vt 0.400000000 0.400000000
vt 0.600000000 0.400000000
vn 0.000000000 -1.000000000 0.000000000
vn 0.000000000 -1.000000000 0.000000000
vn 0.000000000 -1.000000000 0.000000000
g tube_12_8
usemtl fuel_rod_steel
f 613/613/613 614/614/614 615/615/615
v 0.791856000 0.875000000 0.601049324
v 0.851049324 0.875000000 0.541856000
v 0.750000000 0.875000000 0.500000000
vt 0.600000000 0.400000000
vt 0.400000000 0.400000000
vt 0.500000000 0.500000000
vn -0.000000000 1.000000000 -0.000000000
vn -0.000000000 1.000000000 -0.000000000
vn -0.000000000 1.000000000 -0.000000000
g tube_12_8
usemtl fuel_rod_steel
f 616/616/616 617/617/617 618/618/618
v 0.791856000 0.875000000 0.601049324
v 0.708144000 0.875000000 0.601049324
v 0.708144000 0.125000000 0.601049324
v 0.791856000 0.125000000 0.601049324
vt 0.125000000 0.875000000
vt 0.375000000 0.875000000
vt 0.375000000 0.125000000
vt 0.125000000 0.125000000
vn -0.000000000 -0.000000000 1.000000000
vn -0.000000000 -0.000000000 1.000000000
vn -0.000000000 -0.000000000 1.000000000
vn -0.000000000 -0.000000000 1.000000000
g tube_12_8
usemtl fuel_rod_steel
f 619/619/619 620/620/620 621/621/621 622/622/622
v 0.750000000 0.125000000 0.500000000
v 0.791856000 0.125000000 0.601049324
v 0.708144000 0.125000000 0.601049324
vt 0.500000000 0.500000000
vt 0.400000000 0.400000000
vt 0.600000000 0.400000000
vn 0.000000000 -1.000000000 0.000000000
vn 0.000000000 -1.000000000 0.000000000
vn 0.000000000 -1.000000000 0.000000000
g tube_12_8
usemtl fuel_rod_steel
f 623/623/623 624/624/624 625/625/625
v 0.708144000 0.875000000 0.601049324
v 0.791856000 0.875000000 0.601049324
v 0.750000000 0.875000000 0.500000000
vt 0.600000000 0.400000000
vt 0.400000000 0.400000000
vt 0.500000000 0.500000000
vn -0.000000000 1.000000000 -0.000000000
vn -0.000000000 1.000000000 -0.000000000
vn -0.000000000 1.000000000 -0.000000000
g tube_12_8
usemtl fuel_rod_steel
f 626/626/626 627/627/627 628/628/628
v 0.708144000 0.875000000 0.601049324
v 0.648950676 0.875000000 0.541856000
v 0.648950676 0.125000000 0.541856000
v 0.708144000 0.125000000 0.601049324
vt 0.125000000 0.875000000
vt 0.375000000 0.875000000
vt 0.375000000 0.125000000
vt 0.125000000 0.125000000
vn -0.707106781 -0.000000000 0.707106781
vn -0.707106781 -0.000000000 0.707106781
vn -0.707106781 -0.000000000 0.707106781
vn -0.707106781 -0.000000000 0.707106781
g tube_12_8
usemtl fuel_rod_steel
f 629/629/629 630/630/630 631/631/631 632/632/632
v 0.750000000 0.125000000 0.500000000
v 0.708144000 0.125000000 0.601049324
v 0.648950676 0.125000000 0.541856000
vt 0.500000000 0.500000000
vt 0.400000000 0.400000000
vt 0.600000000 0.400000000
vn 0.000000000 -1.000000000 0.000000000
vn 0.000000000 -1.000000000 0.000000000
vn 0.000000000 -1.000000000 0.000000000
g tube_12_8
usemtl fuel_rod_steel
f 633/633/633 634/634/634 635/635/635
v 0.648950676 0.875000000 0.541856000
v 0.708144000 0.875000000 0.601049324
v 0.750000000 0.875000000 0.500000000
vt 0.600000000 0.400000000
vt 0.400000000 0.400000000
vt 0.500000000 0.500000000
vn -0.000000000 1.000000000 -0.000000000
vn -0.000000000 1.000000000 -0.000000000
vn -0.000000000 1.000000000 -0.000000000
g tube_12_8
usemtl fuel_rod_steel
f 636/636/636 637/637/637 638/638/638
v 0.648950676 0.875000000 0.541856000
v 0.648950676 0.875000000 0.458144000
v 0.648950676 0.125000000 0.458144000
v 0.648950676 0.125000000 0.541856000
vt 0.125000000 0.875000000
vt 0.375000000 0.875000000
vt 0.375000000 0.125000000
vt 0.125000000 0.125000000
vn -1.000000000 -0.000000000 -0.000000000
vn -1.000000000 -0.000000000 -0.000000000
vn -1.000000000 -0.000000000 -0.000000000
vn -1.000000000 -0.000000000 -0.000000000
g tube_12_8
usemtl fuel_rod_steel
f 639/639/639 640/640/640 641/641/641 642/642/642
v 0.750000000 0.125000000 0.500000000
v 0.648950676 0.125000000 0.541856000
v 0.648950676 0.125000000 0.458144000
vt 0.500000000 0.500000000
vt 0.400000000 0.400000000
vt 0.600000000 0.400000000
vn -0.000000000 -1.000000000 0.000000000
vn -0.000000000 -1.000000000 0.000000000
vn -0.000000000 -1.000000000 0.000000000
g tube_12_8
usemtl fuel_rod_steel
f 643/643/643 644/644/644 645/645/645
v 0.648950676 0.875000000 0.458144000
v 0.648950676 0.875000000 0.541856000
v 0.750000000 0.875000000 0.500000000
vt 0.600000000 0.400000000
vt 0.400000000 0.400000000
vt 0.500000000 0.500000000
vn 0.000000000 1.000000000 -0.000000000
vn 0.000000000 1.000000000 -0.000000000
vn 0.000000000 1.000000000 -0.000000000
g tube_12_8
usemtl fuel_rod_steel
f 646/646/646 647/647/647 648/648/648
v 0.648950676 0.875000000 0.458144000
v 0.708144000 0.875000000 0.398950676
v 0.708144000 0.125000000 0.398950676
v 0.648950676 0.125000000 0.458144000
vt 0.125000000 0.875000000
vt 0.375000000 0.875000000
vt 0.375000000 0.125000000
vt 0.125000000 0.125000000
vn -0.707106781 -0.000000000 -0.707106781
vn -0.707106781 -0.000000000 -0.707106781
vn -0.707106781 -0.000000000 -0.707106781
vn -0.707106781 -0.000000000 -0.707106781
g tube_12_8
usemtl fuel_rod_steel
f 649/649/649 650/650/650 651/651/651 652/652/652
v 0.750000000 0.125000000 0.500000000
v 0.648950676 0.125000000 0.458144000
v 0.708144000 0.125000000 0.398950676
vt 0.500000000 0.500000000
vt 0.400000000 0.400000000
vt 0.600000000 0.400000000
vn 0.000000000 -1.000000000 0.000000000
vn 0.000000000 -1.000000000 0.000000000
vn 0.000000000 -1.000000000 0.000000000
g tube_12_8
usemtl fuel_rod_steel
f 653/653/653 654/654/654 655/655/655
v 0.708144000 0.875000000 0.398950676
v 0.648950676 0.875000000 0.458144000
v 0.750000000 0.875000000 0.500000000
vt 0.600000000 0.400000000
vt 0.400000000 0.400000000
vt 0.500000000 0.500000000
vn -0.000000000 1.000000000 -0.000000000
vn -0.000000000 1.000000000 -0.000000000
vn -0.000000000 1.000000000 -0.000000000
g tube_12_8
usemtl fuel_rod_steel
f 656/656/656 657/657/657 658/658/658
v 0.708144000 0.875000000 0.398950676
v 0.791856000 0.875000000 0.398950676
v 0.791856000 0.125000000 0.398950676
v 0.708144000 0.125000000 0.398950676
vt 0.125000000 0.875000000
vt 0.375000000 0.875000000
vt 0.375000000 0.125000000
vt 0.125000000 0.125000000
vn -0.000000000 -0.000000000 -1.000000000
vn -0.000000000 -0.000000000 -1.000000000
vn -0.000000000 -0.000000000 -1.000000000
vn -0.000000000 -0.000000000 -1.000000000
g tube_12_8
usemtl fuel_rod_steel
f 659/659/659 660/660/660 661/661/661 662/662/662
v 0.750000000 0.125000000 0.500000000
v 0.708144000 0.125000000 0.398950676
v 0.791856000 0.125000000 0.398950676
vt 0.500000000 0.500000000
vt 0.400000000 0.400000000
vt 0.600000000 0.400000000
vn 0.000000000 -1.000000000 -0.000000000
vn 0.000000000 -1.000000000 -0.000000000
vn 0.000000000 -1.000000000 -0.000000000
g tube_12_8
usemtl fuel_rod_steel
f 663/663/663 664/664/664 665/665/665
v 0.791856000 0.875000000 0.398950676
v 0.708144000 0.875000000 0.398950676
v 0.750000000 0.875000000 0.500000000
vt 0.600000000 0.400000000
vt 0.400000000 0.400000000
vt 0.500000000 0.500000000
vn -0.000000000 1.000000000 0.000000000
vn -0.000000000 1.000000000 0.000000000
vn -0.000000000 1.000000000 0.000000000
g tube_12_8
usemtl fuel_rod_steel
f 666/666/666 667/667/667 668/668/668
v 0.791856000 0.875000000 0.398950676
v 0.851049324 0.875000000 0.458144000
v 0.851049324 0.125000000 0.458144000
v 0.791856000 0.125000000 0.398950676
vt 0.125000000 0.875000000
vt 0.375000000 0.875000000
vt 0.375000000 0.125000000
vt 0.125000000 0.125000000
vn 0.707106781 -0.000000000 -0.707106781
vn 0.707106781 -0.000000000 -0.707106781
vn 0.707106781 -0.000000000 -0.707106781
vn 0.707106781 -0.000000000 -0.707106781
g tube_12_8
usemtl fuel_rod_steel
f 669/669/669 670/670/670 671/671/671 672/672/672
v 0.750000000 0.125000000 0.500000000
v 0.791856000 0.125000000 0.398950676
v 0.851049324 0.125000000 0.458144000
vt 0.500000000 0.500000000
vt 0.400000000 0.400000000
vt 0.600000000 0.400000000
vn 0.000000000 -1.000000000 0.000000000
vn 0.000000000 -1.000000000 0.000000000
vn 0.000000000 -1.000000000 0.000000000
g tube_12_8
usemtl fuel_rod_steel
f 673/673/673 674/674/674 675/675/675
v 0.851049324 0.875000000 0.458144000
v 0.791856000 0.875000000 0.398950676
v 0.750000000 0.875000000 0.500000000
vt 0.600000000 0.400000000
vt 0.400000000 0.400000000
vt 0.500000000 0.500000000
vn -0.000000000 1.000000000 -0.000000000
vn -0.000000000 1.000000000 -0.000000000
vn -0.000000000 1.000000000 -0.000000000
g tube_12_8
usemtl fuel_rod_steel
f 676/676/676 677/677/677 678/678/678
v 0.851049324 0.875000000 0.458144000
v 0.851049324 0.875000000 0.541856000
v 0.851049324 0.125000000 0.541856000
v 0.851049324 0.125000000 0.458144000
vt 0.125000000 0.875000000
vt 0.375000000 0.875000000
vt 0.375000000 0.125000000
vt 0.125000000 0.125000000
vn 1.000000000 -0.000000000 -0.000000000
vn 1.000000000 -0.000000000 -0.000000000
vn 1.000000000 -0.000000000 -0.000000000
vn 1.000000000 -0.000000000 -0.000000000
g tube_12_8
usemtl fuel_rod_steel
f 679/679/679 680/680/680 681/681/681 682/682/682
v 0.750000000 0.125000000 0.500000000
v 0.851049324 0.125000000 0.458144000
v 0.851049324 0.125000000 0.541856000
vt 0.500000000 0.500000000
vt 0.400000000 0.400000000
vt 0.600000000 0.400000000
vn 0.000000000 -1.000000000 0.000000000
vn 0.000000000 -1.000000000 0.000000000
vn 0.000000000 -1.000000000 0.000000000
g tube_12_8
usemtl fuel_rod_steel
f 683/683/683 684/684/684 685/685/685
v 0.851049324 0.875000000 0.541856000
v 0.851049324 0.875000000 0.458144000
v 0.750000000 0.875000000 0.500000000
vt 0.600000000 0.400000000
vt 0.400000000 0.400000000
vt 0.500000000 0.500000000
vn -0.000000000 1.000000000 -0.000000000
vn -0.000000000 1.000000000 -0.000000000
vn -0.000000000 1.000000000 -0.000000000
g tube_12_8
usemtl fuel_rod_steel
f 686/686/686 687/687/687 688/688/688
v 0.851049324 0.875000000 0.791856000
v 0.791856000 0.875000000 0.851049324
v 0.791856000 0.125000000 0.851049324
v 0.851049324 0.125000000 0.791856000
vt 0.125000000 0.875000000
vt 0.375000000 0.875000000
vt 0.375000000 0.125000000
vt 0.125000000 0.125000000
vn 0.707106781 -0.000000000 0.707106781
vn 0.707106781 -0.000000000 0.707106781
vn 0.707106781 -0.000000000 0.707106781
vn 0.707106781 -0.000000000 0.707106781
g tube_12_12
usemtl fuel_rod_steel
f 689/689/689 690/690/690 691/691/691 692/692/692
v 0.750000000 0.125000000 0.750000000
v 0.851049324 0.125000000 0.791856000
v 0.791856000 0.125000000 0.851049324
vt 0.500000000 0.500000000
vt 0.400000000 0.400000000
vt 0.600000000 0.400000000
vn 0.000000000 -1.000000000 0.000000000
vn 0.000000000 -1.000000000 0.000000000
vn 0.000000000 -1.000000000 0.000000000
g tube_12_12
usemtl fuel_rod_steel
f 693/693/693 694/694/694 695/695/695
v 0.791856000 0.875000000 0.851049324
v 0.851049324 0.875000000 0.791856000
v 0.750000000 0.875000000 0.750000000
vt 0.600000000 0.400000000
vt 0.400000000 0.400000000
vt 0.500000000 0.500000000
vn -0.000000000 1.000000000 -0.000000000
vn -0.000000000 1.000000000 -0.000000000
vn -0.000000000 1.000000000 -0.000000000
g tube_12_12
usemtl fuel_rod_steel
f 696/696/696 697/697/697 698/698/698
v 0.791856000 0.875000000 0.851049324
v 0.708144000 0.875000000 0.851049324
v 0.708144000 0.125000000 0.851049324
v 0.791856000 0.125000000 0.851049324
vt 0.125000000 0.875000000
vt 0.375000000 0.875000000
vt 0.375000000 0.125000000
vt 0.125000000 0.125000000
vn -0.000000000 -0.000000000 1.000000000
vn -0.000000000 -0.000000000 1.000000000
vn -0.000000000 -0.000000000 1.000000000
vn -0.000000000 -0.000000000 1.000000000
g tube_12_12
usemtl fuel_rod_steel
f 699/699/699 700/700/700 701/701/701 702/702/702
v 0.750000000 0.125000000 0.750000000
v 0.791856000 0.125000000 0.851049324
v 0.708144000 0.125000000 0.851049324
vt 0.500000000 0.500000000
vt 0.400000000 0.400000000
vt 0.600000000 0.400000000
vn 0.000000000 -1.000000000 0.000000000
vn 0.000000000 -1.000000000 0.000000000
vn 0.000000000 -1.000000000 0.000000000
g tube_12_12
usemtl fuel_rod_steel
f 703/703/703 704/704/704 705/705/705
v 0.708144000 0.875000000 0.851049324
v 0.791856000 0.875000000 0.851049324
v 0.750000000 0.875000000 0.750000000
vt 0.600000000 0.400000000
vt 0.400000000 0.400000000
vt 0.500000000 0.500000000
vn -0.000000000 1.000000000 -0.000000000
vn -0.000000000 1.000000000 -0.000000000
vn -0.000000000 1.000000000 -0.000000000
g tube_12_12
usemtl fuel_rod_steel
f 706/706/706 707/707/707 708/708/708
v 0.708144000 0.875000000 0.851049324
v 0.648950676 0.875000000 0.791856000
v 0.648950676 0.125000000 0.791856000
v 0.708144000 0.125000000 0.851049324
vt 0.125000000 0.875000000
vt 0.375000000 0.875000000
vt 0.375000000 0.125000000
vt 0.125000000 0.125000000
vn -0.707106781 -0.000000000 0.707106781
vn -0.707106781 -0.000000000 0.707106781
vn -0.707106781 -0.000000000 0.707106781
vn -0.707106781 -0.000000000 0.707106781
g tube_12_12
usemtl fuel_rod_steel
f 709/709/709 710/710/710 711/711/711 712/712/712
v 0.750000000 0.125000000 0.750000000
v 0.708144000 0.125000000 0.851049324
v 0.648950676 0.125000000 0.791856000
vt 0.500000000 0.500000000
vt 0.400000000 0.400000000
vt 0.600000000 0.400000000
vn 0.000000000 -1.000000000 0.000000000
vn 0.000000000 -1.000000000 0.000000000
vn 0.000000000 -1.000000000 0.000000000
g tube_12_12
usemtl fuel_rod_steel
f 713/713/713 714/714/714 715/715/715
v 0.648950676 0.875000000 0.791856000
v 0.708144000 0.875000000 0.851049324
v 0.750000000 0.875000000 0.750000000
vt 0.600000000 0.400000000
vt 0.400000000 0.400000000
vt 0.500000000 0.500000000
vn -0.000000000 1.000000000 -0.000000000
vn -0.000000000 1.000000000 -0.000000000
vn -0.000000000 1.000000000 -0.000000000
g tube_12_12
usemtl fuel_rod_steel
f 716/716/716 717/717/717 718/718/718
v 0.648950676 0.875000000 0.791856000
v 0.648950676 0.875000000 0.708144000
v 0.648950676 0.125000000 0.708144000
v 0.648950676 0.125000000 0.791856000
vt 0.125000000 0.875000000
vt 0.375000000 0.875000000
vt 0.375000000 0.125000000
vt 0.125000000 0.125000000
vn -1.000000000 -0.000000000 -0.000000000
vn -1.000000000 -0.000000000 -0.000000000
vn -1.000000000 -0.000000000 -0.000000000
vn -1.000000000 -0.000000000 -0.000000000
g tube_12_12
usemtl fuel_rod_steel
f 719/719/719 720/720/720 721/721/721 722/722/722
v 0.750000000 0.125000000 0.750000000
v 0.648950676 0.125000000 0.791856000
v 0.648950676 0.125000000 0.708144000
vt 0.500000000 0.500000000
vt 0.400000000 0.400000000
vt 0.600000000 0.400000000
vn -0.000000000 -1.000000000 0.000000000
vn -0.000000000 -1.000000000 0.000000000
vn -0.000000000 -1.000000000 0.000000000
g tube_12_12
usemtl fuel_rod_steel
f 723/723/723 724/724/724 725/725/725
v 0.648950676 0.875000000 0.708144000
v 0.648950676 0.875000000 0.791856000
v 0.750000000 0.875000000 0.750000000
vt 0.600000000 0.400000000
vt 0.400000000 0.400000000
vt 0.500000000 0.500000000
vn 0.000000000 1.000000000 -0.000000000
vn 0.000000000 1.000000000 -0.000000000
vn 0.000000000 1.000000000 -0.000000000
g tube_12_12
usemtl fuel_rod_steel
f 726/726/726 727/727/727 728/728/728
v 0.648950676 0.875000000 0.708144000
v 0.708144000 0.875000000 0.648950676
v 0.708144000 0.125000000 0.648950676
v 0.648950676 0.125000000 0.708144000
vt 0.125000000 0.875000000
vt 0.375000000 0.875000000
vt 0.375000000 0.125000000
vt 0.125000000 0.125000000
vn -0.707106781 -0.000000000 -0.707106781
vn -0.707106781 -0.000000000 -0.707106781
vn -0.707106781 -0.000000000 -0.707106781
vn -0.707106781 -0.000000000 -0.707106781
g tube_12_12
usemtl fuel_rod_steel
f 729/729/729 730/730/730 731/731/731 732/732/732
v 0.750000000 0.125000000 0.750000000
v 0.648950676 0.125000000 0.708144000
v 0.708144000 0.125000000 0.648950676
vt 0.500000000 0.500000000
vt 0.400000000 0.400000000
vt 0.600000000 0.400000000
vn 0.000000000 -1.000000000 0.000000000
vn 0.000000000 -1.000000000 0.000000000
vn 0.000000000 -1.000000000 0.000000000
g tube_12_12
usemtl fuel_rod_steel
f 733/733/733 734/734/734 735/735/735
v 0.708144000 0.875000000 0.648950676
v 0.648950676 0.875000000 0.708144000
v 0.750000000 0.875000000 0.750000000
vt 0.600000000 0.400000000
vt 0.400000000 0.400000000
vt 0.500000000 0.500000000
vn -0.000000000 1.000000000 -0.000000000
vn -0.000000000 1.000000000 -0.000000000
vn -0.000000000 1.000000000 -0.000000000
g tube_12_12
usemtl fuel_rod_steel
f 736/736/736 737/737/737 738/738/738
v 0.708144000 0.875000000 0.648950676
v 0.791856000 0.875000000 0.648950676
v 0.791856000 0.125000000 0.648950676
v 0.708144000 0.125000000 0.648950676
vt 0.125000000 0.875000000
vt 0.375000000 0.875000000
vt 0.375000000 0.125000000
vt 0.125000000 0.125000000
vn -0.000000000 -0.000000000 -1.000000000
vn -0.000000000 -0.000000000 -1.000000000
vn -0.000000000 -0.000000000 -1.000000000
vn -0.000000000 -0.000000000 -1.000000000
g tube_12_12
usemtl fuel_rod_steel
f 739/739/739 740/740/740 741/741/741 742/742/742
v 0.750000000 0.125000000 0.750000000
v 0.708144000 0.125000000 0.648950676
v 0.791856000 0.125000000 0.648950676
vt 0.500000000 0.500000000
vt 0.400000000 0.400000000
vt 0.600000000 0.400000000
vn 0.000000000 -1.000000000 -0.000000000
vn 0.000000000 -1.000000000 -0.000000000
vn 0.000000000 -1.000000000 -0.000000000
g tube_12_12
usemtl fuel_rod_steel
f 743/743/743 744/744/744 745/745/745
v 0.791856000 0.875000000 0.648950676
v 0.708144000 0.875000000 0.648950676
v 0.750000000 0.875000000 0.750000000
vt 0.600000000 0.400000000
vt 0.400000000 0.400000000
vt 0.500000000 0.500000000
vn -0.000000000 1.000000000 0.000000000
vn -0.000000000 1.000000000 0.000000000
vn -0.000000000 1.000000000 0.000000000
g tube_12_12
usemtl fuel_rod_steel
f 746/746/746 747/747/747 748/748/748
v 0.791856000 0.875000000 0.648950676
v 0.851049324 0.875000000 0.708144000
v 0.851049324 0.125000000 0.708144000
v 0.791856000 0.125000000 0.648950676
vt 0.125000000 0.875000000
vt 0.375000000 0.875000000
vt 0.375000000 0.125000000
vt 0.125000000 0.125000000
vn 0.707106781 -0.000000000 -0.707106781
vn 0.707106781 -0.000000000 -0.707106781
vn 0.707106781 -0.000000000 -0.707106781
vn 0.707106781 -0.000000000 -0.707106781
g tube_12_12
usemtl fuel_rod_steel
f 749/749/749 750/750/750 751/751/751 752/752/752
v 0.750000000 0.125000000 0.750000000
v 0.791856000 0.125000000 0.648950676
v 0.851049324 0.125000000 0.708144000
vt 0.500000000 0.500000000
vt 0.400000000 0.400000000
vt 0.600000000 0.400000000
vn 0.000000000 -1.000000000 0.000000000
vn 0.000000000 -1.000000000 0.000000000
vn 0.000000000 -1.000000000 0.000000000
g tube_12_12
usemtl fuel_rod_steel
f 753/753/753 754/754/754 755/755/755
v 0.851049324 0.875000000 0.708144000
v 0.791856000 0.875000000 0.648950676
v 0.750000000 0.875000000 0.750000000
vt 0.600000000 0.400000000
vt 0.400000000 0.400000000
vt 0.500000000 0.500000000
vn -0.000000000 1.000000000 -0.000000000
vn -0.000000000 1.000000000 -0.000000000
vn -0.000000000 1.000000000 -0.000000000
g tube_12_12
usemtl fuel_rod_steel
f 756/756/756 757/757/757 758/758/758
v 0.851049324 0.875000000 0.708144000
v 0.851049324 0.875000000 0.791856000
v 0.851049324 0.125000000 0.791856000
v 0.851049324 0.125000000 0.708144000
vt 0.125000000 0.875000000
vt 0.375000000 0.875000000
vt 0.375000000 0.125000000
vt 0.125000000 0.125000000
vn 1.000000000 -0.000000000 -0.000000000
vn 1.000000000 -0.000000000 -0.000000000
vn 1.000000000 -0.000000000 -0.000000000
vn 1.000000000 -0.000000000 -0.000000000
g tube_12_12
usemtl fuel_rod_steel
f 759/759/759 760/760/760 761/761/761 762/762/762
v 0.750000000 0.125000000 0.750000000
v 0.851049324 0.125000000 0.708144000
v 0.851049324 0.125000000 0.791856000
vt 0.500000000 0.500000000
vt 0.400000000 0.400000000
vt 0.600000000 0.400000000
vn 0.000000000 -1.000000000 0.000000000
vn 0.000000000 -1.000000000 0.000000000
vn 0.000000000 -1.000000000 0.000000000
g tube_12_12
usemtl fuel_rod_steel
f 763/763/763 764/764/764 765/765/765
v 0.851049324 0.875000000 0.791856000
v 0.851049324 0.875000000 0.708144000
v 0.750000000 0.875000000 0.750000000
vt 0.600000000 0.400000000
vt 0.400000000 0.400000000
vt 0.500000000 0.500000000
vn -0.000000000 1.000000000 -0.000000000
vn -0.000000000 1.000000000 -0.000000000
vn -0.000000000 1.000000000 -0.000000000
g tube_12_12
usemtl fuel_rod_steel
f 766/766/766 767/767/767 768/768/768
