<svg xmlns="http://www.w3.org/2000/svg" width="16" height="16" viewBox="0 0 16 16" shape-rendering="crispEdges">
  <!-- 燃料组件：竖直棒束和横向固定架；新燃料暖金属，冷却乏燃料暗灰蓝，不发光。 -->
  <rect x="4" y="2" width="8" height="1" fill="#A3B7B8"/>
  <rect x="4" y="3" width="8" height="1" fill="#3E5058"/>
  <rect x="5" y="4" width="1" height="1" fill="#5B7078"/>
  <rect x="6" y="4" width="1" height="1" fill="#367E92"/>
  <rect x="7" y="4" width="1" height="1" fill="#5B7078"/>
  <rect x="8" y="4" width="1" height="1" fill="#28353A"/>
  <rect x="9" y="4" width="1" height="1" fill="#5B7078"/>
  <rect x="10" y="4" width="1" height="1" fill="#28353A"/>
  <rect x="5" y="5" width="1" height="1" fill="#5B7078"/>
  <rect x="6" y="5" width="1" height="1" fill="#367E92"/>
  <rect x="7" y="5" width="1" height="1" fill="#5B7078"/>
  <rect x="8" y="5" width="1" height="1" fill="#28353A"/>
  <rect x="9" y="5" width="1" height="1" fill="#5B7078"/>
  <rect x="10" y="5" width="1" height="1" fill="#28353A"/>
  <rect x="4" y="6" width="8" height="1" fill="#5B7078"/>
  <rect x="5" y="7" width="1" height="1" fill="#5B7078"/>
  <rect x="6" y="7" width="1" height="1" fill="#28353A"/>
  <rect x="7" y="7" width="1" height="1" fill="#5B7078"/>
  <rect x="8" y="7" width="1" height="1" fill="#28353A"/>
  <rect x="9" y="7" width="1" height="1" fill="#5B7078"/>
  <rect x="10" y="7" width="1" height="1" fill="#28353A"/>
  <rect x="5" y="8" width="1" height="1" fill="#5B7078"/>
  <rect x="6" y="8" width="1" height="1" fill="#28353A"/>
  <rect x="7" y="8" width="1" height="1" fill="#5B7078"/>
  <rect x="8" y="8" width="1" height="1" fill="#28353A"/>
  <rect x="9" y="8" width="1" height="1" fill="#5B7078"/>
  <rect x="10" y="8" width="1" height="1" fill="#28353A"/>
  <rect x="5" y="9" width="1" height="1" fill="#5B7078"/>
  <rect x="6" y="9" width="1" height="1" fill="#28353A"/>
  <rect x="7" y="9" width="1" height="1" fill="#5B7078"/>
  <rect x="8" y="9" width="1" height="1" fill="#28353A"/>
  <rect x="9" y="9" width="1" height="1" fill="#5B7078"/>
  <rect x="10" y="9" width="1" height="1" fill="#28353A"/>
  <rect x="4" y="10" width="8" height="1" fill="#5B7078"/>
  <rect x="5" y="11" width="1" height="1" fill="#5B7078"/>
  <rect x="6" y="11" width="1" height="1" fill="#28353A"/>
  <rect x="7" y="11" width="1" height="1" fill="#5B7078"/>
  <rect x="8" y="11" width="1" height="1" fill="#28353A"/>
  <rect x="9" y="11" width="1" height="1" fill="#5B7078"/>
  <rect x="10" y="11" width="1" height="1" fill="#28353A"/>
  <rect x="4" y="12" width="1" height="1" fill="#3E5058"/>
  <rect x="5" y="12" width="6" height="1" fill="#788E94"/>
  <rect x="11" y="12" width="1" height="1" fill="#3E5058"/>
  <rect x="4" y="13" width="8" height="1" fill="#3E5058"/>
</svg>
