<svg xmlns="http://www.w3.org/2000/svg" width="16" height="16" viewBox="0 0 16 16" shape-rendering="crispEdges">
  <!-- 半成品保留轴孔与同款厚框，右上缺少一段滚道并露出未加工断面。 -->
  <rect x="6" y="1" width="4" height="1" fill="#28353A"/>
  <rect x="4" y="2" width="2" height="1" fill="#28353A"/>
  <rect x="6" y="2" width="4" height="1" fill="#A3B7B8"/>
  <rect x="10" y="2" width="1" height="1" fill="#28353A"/>
  <rect x="3" y="3" width="2" height="1" fill="#28353A"/>
  <rect x="5" y="3" width="5" height="1" fill="#D1DFDA"/>
  <rect x="10" y="3" width="1" height="1" fill="#3E5058"/>
  <rect x="2" y="4" width="1" height="2" fill="#28353A"/>
  <rect x="3" y="4" width="2" height="2" fill="#5B7078"/>
  <rect x="5" y="4" width="5" height="1" fill="#A3B7B8"/>
  <rect x="10" y="4" width="1" height="1" fill="#788E94"/>
  <rect x="4" y="5" width="1" height="1" fill="#788E94"/>
  <rect x="5" y="5" width="5" height="1" fill="#3E5058"/>
  <rect x="3" y="6" width="2" height="4" fill="#788E94"/>
  <rect x="4" y="6" width="1" height="4" fill="#A3B7B8"/>
  <rect x="5" y="6" width="1" height="1" fill="#5B7078"/>
  <rect x="10" y="6" width="1" height="1" fill="#5B7078"/>
  <rect x="11" y="6" width="1" height="4" fill="#A3B7B8"/>
  <rect x="2" y="6" width="1" height="4" fill="#28353A"/>
  <rect x="5" y="7" width="1" height="2" fill="#3E5058"/>
  <rect x="10" y="7" width="1" height="2" fill="#3E5058"/>
  <rect x="12" y="7" width="1" height="3" fill="#5B7078"/>
  <rect x="3" y="10" width="2" height="2" fill="#3E5058"/>
  <rect x="4" y="10" width="1" height="1" fill="#5B7078"/>
  <rect x="5" y="9" width="1" height="1" fill="#5B7078"/>
  <rect x="5" y="10" width="6" height="1" fill="#3E5058"/>
  <rect x="11" y="10" width="2" height="2" fill="#3E5058"/>
  <rect x="12" y="10" width="1" height="2" fill="#28353A"/>
  <rect x="5" y="11" width="6" height="1" fill="#788E94"/>
  <rect x="5" y="12" width="6" height="1" fill="#A3B7B8"/>
  <rect x="3" y="12" width="2" height="1" fill="#28353A"/>
  <rect x="11" y="12" width="2" height="1" fill="#28353A"/>
  <rect x="4" y="13" width="2" height="1" fill="#28353A"/>
  <rect x="6" y="13" width="4" height="1" fill="#5B7078"/>
  <rect x="10" y="13" width="2" height="1" fill="#28353A"/>
  <rect x="3" y="5" width="1" height="1" fill="#D1DFDA"/>
  <rect x="12" y="3" width="1" height="1" fill="#D1DFDA"/>
</svg>
