<svg xmlns="http://www.w3.org/2000/svg" width="16" height="16" viewBox="0 0 16 16" shape-rendering="crispEdges">
  <!-- 低浓缩铀粉以明亮黄绿颗粒和少量金色晶点区别于精矿。 -->
  <rect x="6" y="3" width="2" height="1" fill="#34402E"/><rect x="8" y="3" width="1" height="1" fill="#71834A"/>
  <rect x="5" y="4" width="2" height="1" fill="#34402E"/><rect x="7" y="4" width="3" height="1" fill="#B3C778"/>
  <rect x="4" y="5" width="2" height="1" fill="#34402E"/><rect x="6" y="5" width="3" height="1" fill="#DDE59A"/><rect x="9" y="5" width="2" height="1" fill="#71834A"/>
  <rect x="3" y="6" width="2" height="1" fill="#34402E"/><rect x="5" y="6" width="2" height="1" fill="#B3C778"/><rect x="7" y="6" width="3" height="1" fill="#E4C36D"/><rect x="10" y="6" width="2" height="1" fill="#34402E"/>
  <rect x="2" y="7" width="2" height="1" fill="#34402E"/><rect x="4" y="7" width="3" height="1" fill="#DDE59A"/><rect x="7" y="7" width="3" height="1" fill="#B3C778"/><rect x="10" y="7" width="2" height="1" fill="#71834A"/><rect x="12" y="7" width="1" height="1" fill="#34402E"/>
  <rect x="2" y="8" width="2" height="1" fill="#34402E"/><rect x="4" y="8" width="2" height="1" fill="#71834A"/><rect x="6" y="8" width="3" height="1" fill="#DDE59A"/><rect x="9" y="8" width="2" height="1" fill="#B3C778"/><rect x="11" y="8" width="2" height="1" fill="#34402E"/>
  <rect x="3" y="9" width="2" height="1" fill="#34402E"/><rect x="5" y="9" width="3" height="1" fill="#B3C778"/><rect x="8" y="9" width="2" height="1" fill="#E4C36D"/><rect x="10" y="9" width="2" height="1" fill="#71834A"/><rect x="12" y="9" width="1" height="1" fill="#34402E"/>
  <rect x="4" y="10" width="2" height="1" fill="#34402E"/><rect x="6" y="10" width="3" height="1" fill="#B3C778"/><rect x="9" y="10" width="2" height="1" fill="#71834A"/><rect x="11" y="10" width="1" height="1" fill="#34402E"/>
  <rect x="5" y="11" width="2" height="1" fill="#34402E"/><rect x="7" y="11" width="2" height="1" fill="#71834A"/><rect x="9" y="11" width="1" height="1" fill="#34402E"/>
</svg>
