<svg xmlns="http://www.w3.org/2000/svg" width="16" height="16" viewBox="0 0 16 16" shape-rendering="crispEdges">
  <!-- 锡粒：紧凑的银灰金属碎片，以左上高光和右下冷暗面保持层次。 -->
  <rect x="7" y="5" width="2" height="1" fill="#354249"/>
  <rect x="6" y="6" width="1" height="1" fill="#354249"/>
  <rect x="7" y="6" width="2" height="1" fill="#F2F1E6"/>
  <rect x="9" y="6" width="1" height="1" fill="#B9CED5"/>
  <rect x="10" y="6" width="1" height="1" fill="#354249"/>
  <rect x="5" y="7" width="1" height="1" fill="#354249"/>
  <rect x="6" y="7" width="1" height="1" fill="#E2E9DE"/>
  <rect x="7" y="7" width="2" height="1" fill="#B9CED5"/>
  <rect x="9" y="7" width="1" height="1" fill="#8AA4B1"/>
  <rect x="10" y="7" width="1" height="1" fill="#556875"/>
  <rect x="11" y="7" width="1" height="1" fill="#354249"/>
  <rect x="5" y="8" width="1" height="1" fill="#354249"/>
  <rect x="6" y="8" width="1" height="1" fill="#B9CED5"/>
  <rect x="7" y="8" width="2" height="1" fill="#8AA4B1"/>
  <rect x="9" y="8" width="1" height="1" fill="#556875"/>
  <rect x="10" y="8" width="1" height="1" fill="#354249"/>
  <rect x="6" y="9" width="1" height="1" fill="#354249"/>
  <rect x="7" y="9" width="2" height="1" fill="#556875"/>
  <rect x="9" y="9" width="1" height="1" fill="#354249"/>
  <rect x="8" y="10" width="1" height="1" fill="#354249"/>
</svg>
