<svg xmlns="http://www.w3.org/2000/svg" width="16" height="16" viewBox="0 0 16 16" shape-rendering="crispEdges">
<rect x="0" y="0" width="16" height="16" fill="#625F56"/>
<rect x="0" y="0" width="16" height="1" fill="#393A37"/>
<rect x="0" y="15" width="16" height="1" fill="#393A37"/>
<rect x="0" y="1" width="1" height="14" fill="#393A37"/>
<rect x="15" y="1" width="1" height="14" fill="#393A37"/>
<rect x="1" y="1" width="14" height="1" fill="#77766D"/>
<rect x="1" y="14" width="14" height="1" fill="#4C4A45"/>
<rect x="1" y="3" width="3" height="2" fill="#77766D"/>
<rect x="5" y="2" width="2" height="1" fill="#A39A83"/>
<rect x="9" y="3" width="3" height="1" fill="#4C4A45"/>
<rect x="12" y="4" width="2" height="2" fill="#77766D"/>
<rect x="3" y="7" width="3" height="2" fill="#4C4A45"/>
<rect x="7" y="6" width="2" height="2" fill="#77766D"/>
<rect x="10" y="8" width="4" height="2" fill="#4C4A45"/>
<rect x="2" y="11" width="2" height="2" fill="#77766D"/>
<rect x="6" y="11" width="3" height="1" fill="#A39A83"/>
<rect x="8" y="12" width="2" height="1" fill="#77766D"/>
<rect x="5" y="4" width="1" height="1" fill="#4C4A45"/>
<rect x="13" y="10" width="1" height="1" fill="#A39A83"/>
<rect x="4" y="13" width="1" height="1" fill="#77766D"/>
<rect x="11" y="2" width="1" height="1" fill="#A39A83"/>
</svg>
