<svg xmlns="http://www.w3.org/2000/svg" width="16" height="16" viewBox="0 0 16 16" shape-rendering="crispEdges">
  <!-- reactor_casing_side，RECTANGLE格08：上1下0左0右0；仅面外沿加钢框。 -->
  <rect x="0" y="0" width="16" height="16" fill="#898B86"/>
  <rect x="0" y="0" width="16" height="16" fill="#45494B"/>
  <rect x="0" y="0" width="7" height="16" fill="#B8B5A9"/>
  <rect x="9" y="0" width="7" height="16" fill="#B8B5A9"/>
  <rect x="0" y="0" width="7" height="1" fill="#D5D2C4"/>
  <rect x="9" y="0" width="7" height="1" fill="#D5D2C4"/>
  <rect x="8" y="0" width="1" height="16" fill="#898B86"/>
  <rect x="5" y="6" width="1" height="1" fill="#94948D"/>
  <rect x="11" y="10" width="1" height="1" fill="#D5D2C4"/>
  <rect x="0" y="14" width="16" height="1" fill="#4B5351"/>
  <rect x="0" y="15" width="16" height="1" fill="#303638"/>
  <rect x="0" y="0" width="1" height="16" fill="#303638"/>
  <rect x="1" y="0" width="1" height="16" fill="#77817C"/>
  <rect x="14" y="0" width="1" height="16" fill="#4B5351"/>
  <rect x="15" y="0" width="1" height="16" fill="#303638"/>
  <rect x="1" y="14" width="1" height="1" fill="#D2D1C4"/>
  <rect x="14" y="14" width="1" height="1" fill="#D2D1C4"/>
</svg>
