<svg xmlns="http://www.w3.org/2000/svg" width="16" height="16" viewBox="0 0 16 16" shape-rendering="crispEdges">
  <!-- 原生OMNIDIRECTIONAL索引44，canonical mask 175；47个有效上下文之一。全连接内窗仅透明，不写占位色。 -->
  <rect x="0" y="0" width="4" height="1" fill="#28353A"/>
  <rect x="0" y="1" width="1" height="1" fill="#28353A"/>
  <rect x="1" y="1" width="3" height="1" fill="#A3B7B8"/>
  <rect x="0" y="2" width="1" height="1" fill="#28353A"/>
  <rect x="1" y="2" width="1" height="1" fill="#788E94"/>
  <rect x="2" y="2" width="1" height="1" fill="#D2A359"/>
  <rect x="3" y="2" width="1" height="1" fill="#715035"/>
  <rect x="0" y="3" width="1" height="1" fill="#28353A"/>
  <rect x="1" y="3" width="1" height="1" fill="#788E94"/>
  <rect x="2" y="3" width="1" height="1" fill="#3E5058"/>
  <rect x="3" y="3" width="1" height="1" fill="#A3B7B8"/>
  <rect x="0" y="12" width="1" height="1" fill="#28353A"/>
  <rect x="1" y="12" width="1" height="1" fill="#788E94"/>
  <rect x="2" y="12" width="1" height="1" fill="#3E5058"/>
  <rect x="3" y="12" width="1" height="1" fill="#788E94"/>
  <rect x="0" y="13" width="1" height="1" fill="#28353A"/>
  <rect x="1" y="13" width="1" height="1" fill="#788E94"/>
  <rect x="2" y="13" width="1" height="1" fill="#D2A359"/>
  <rect x="3" y="13" width="1" height="1" fill="#715035"/>
  <rect x="0" y="14" width="1" height="1" fill="#28353A"/>
  <rect x="1" y="14" width="1" height="1" fill="#5B7078"/>
  <rect x="2" y="14" width="2" height="1" fill="#28353A"/>
  <rect x="0" y="15" width="4" height="1" fill="#28353A"/>
</svg>
