mtllib turbine.mtl
o d5_middle_x-2_y-2
v 0.464466 1 0
v 1 0.464466 0
v 1 0.464466 1
v 0.464466 1 1
v 1 0.464466 0
v 1 0.729631 0
v 1 0.729631 1
v 1 0.464466 1
v 1 0.729631 0
v 0.729631 1 0
v 0.729631 1 1
v 1 0.729631 1
v 0.729631 1 0
v 0.464466 1 0
v 0.464466 1 1
v 0.729631 1 1
vt 0 1
vt 0 0
vt 1 0
vt 1 1
vt 0 0
vt 0 1
vt 1 1
vt 1 0
vt 0 0
vt 0 1
vt 1 1
vt 1 0
vt 1 0
vt 0 0
vt 0 1
vt 1 1
vn -0.707107 -0.707107 0
vn -0.707107 -0.707107 0
vn -0.707107 -0.707107 0
vn -0.707107 -0.707107 0
vn 1 0 0
vn 1 0 0
vn 1 0 0
vn 1 0 0
vn 0.707107 0.707107 0
vn 0.707107 0.707107 0
vn 0.707107 0.707107 0
vn 0.707107 0.707107 0
vn 0 1 0
vn 0 1 0
vn 0 1 0
vn 0 1 0
usemtl casing
f 1/1/1 2/2/2 3/3/3 4/4/4
usemtl edge
f 5/5/5 6/6/6 7/7/7 8/8/8
usemtl inside
f 9/9/9 10/10/10 11/11/11 12/12/12
usemtl edge
f 13/13/13 14/14/14 15/15/15 16/16/16
