mtllib turbine.mtl
o d3_front_x1_y-1
v 0 0 0.1875
v 0.12132 0 0.1875
v 0.12132 0 1
v 0 0 1
v 0.043655 0.1875 0.1875
v 0 0.1875 0.1875
v 0 0.1875 1
v 0.043655 0.1875 1
v 0 0.1875 0.1875
v 0 0 0.1875
v 0 0 1
v 0 0.1875 1
v 0.12132 0 0.1875
v 1 0.87868 0.1875
v 1 0.87868 1
v 0.12132 0 1
v 0.8125 0.956345 0.1875
v 0.043655 0.1875 0.1875
v 0.043655 0.1875 1
v 0.8125 0.956345 1
v 1 0.87868 0.1875
v 1 1 0.1875
v 1 1 1
v 1 0.87868 1
v 1 1 0.1875
v 0.8125 1 0.1875
v 0.8125 1 1
v 1 1 1
v 0.8125 1 0.1875
v 0.8125 0.956345 0.1875
v 0.8125 0.956345 1
v 0.8125 1 1
v 0.12132 0 0
v 0 0 0
v 0 1 0
v 1 0.87868 0
v 0.12132 0 0
v 0 1 0
v 1 1 0
v 1 0.87868 0
v 0 1 0
v 0 1 0.1875
v 0 0 0.1875
v 0.12132 0 0.1875
v 0 1 0.1875
v 0.12132 0 0.1875
v 1 0.87868 0.1875
v 0 1 0.1875
v 1 0.87868 0.1875
v 1 1 0.1875
v 0 1 0
v 0 0 0
v 0 0 0.1875
v 0 1 0.1875
v 0 0 0
v 0.12132 0 0
v 0.12132 0 0.1875
v 0 0 0.1875
v 0.12132 0 0
v 1 0.87868 0
v 1 0.87868 0.1875
v 0.12132 0 0.1875
v 1 0.87868 0
v 1 1 0
v 1 1 0.1875
v 1 0.87868 0.1875
v 1 1 0
v 0 1 0
v 0 1 0.1875
v 1 1 0.1875
vt 0 0
vt 1 0
vt 1 1
vt 0 1
vt 1 0
vt 0 0
vt 0 1
vt 1 1
vt 0 1
vt 0 0
vt 1 0
vt 1 1
vt 0 0
vt 0 1
vt 1 1
vt 1 0
vt 0 1
vt 0 0
vt 1 0
vt 1 1
vt 0 0
vt 0 1
vt 1 1
vt 1 0
vt 1 0
vt 0 0
vt 0 1
vt 1 1
vt 0 1
vt 0 0
vt 1 0
vt 1 1
vt 1 0
vt 0 0
vt 0 1
vt 1 0.87868
vt 0.12132 0
vt 0 1
vt 1 1
vt 1 0
vt 0 1
vt 0 1
vt 0 0
vt 1 0
vt 0 1
vt 0.12132 0
vt 1 0.87868
vt 0 1
vt 1 0
vt 1 1
vt 0 1
vt 0 0
vt 1 0
vt 1 1
vt 0 0
vt 1 0
vt 1 1
vt 0 1
vt 0 0
vt 0 1
vt 1 1
vt 1 0
vt 0 0
vt 0 1
vt 1 1
vt 1 0
vt 1 0
vt 0 0
vt 0 1
vt 1 1
vn 0 -1 0
vn 0 -1 0
vn 0 -1 0
vn 0 -1 0
vn 0 1 0
vn 0 1 0
vn 0 1 0
vn 0 1 0
vn -1 0 0
vn -1 0 0
vn -1 0 0
vn -1 0 0
vn 0.707107 -0.707107 0
vn 0.707107 -0.707107 0
vn 0.707107 -0.707107 0
vn 0.707107 -0.707107 0
vn -0.707107 0.707107 0
vn -0.707107 0.707107 0
vn -0.707107 0.707107 0
vn -0.707107 0.707107 0
vn 1 0 0
vn 1 0 0
vn 1 0 0
vn 1 0 0
vn 0 1 0
vn 0 1 0
vn 0 1 0
vn 0 1 0
vn -1 0 0
vn -1 0 0
vn -1 0 0
vn -1 0 0
vn 0 0 -1
vn 0 0 -1
vn 0 0 -1
vn 0 0 -1
vn 0 0 -1
vn 0 0 -1
vn 0 0 -1
vn 0 0 -1
vn 0 0 -1
vn 0 0 1
vn 0 0 1
vn 0 0 1
vn 0 0 1
vn 0 0 1
vn 0 0 1
vn 0 0 1
vn 0 0 1
vn 0 0 1
vn -1 0 0
vn -1 0 0
vn -1 0 0
vn -1 0 0
vn 0 -1 0
vn 0 -1 0
vn 0 -1 0
vn 0 -1 0
vn 0.707107 -0.707107 0
vn 0.707107 -0.707107 0
vn 0.707107 -0.707107 0
vn 0.707107 -0.707107 0
vn 1 0 0
vn 1 0 0
vn 1 0 0
vn 1 0 0
vn 0 1 0
vn 0 1 0
vn 0 1 0
vn 0 1 0
usemtl casing
f 1/1/1 2/2/2 3/3/3 4/4/4
usemtl inside
f 5/5/5 6/6/6 7/7/7 8/8/8
usemtl edge
f 9/9/9 10/10/10 11/11/11 12/12/12
usemtl casing
f 13/13/13 14/14/14 15/15/15 16/16/16
usemtl inside
f 17/17/17 18/18/18 19/19/19 20/20/20
usemtl casing
f 21/21/21 22/22/22 23/23/23 24/24/24
usemtl edge
f 25/25/25 26/26/26 27/27/27 28/28/28
usemtl inside
f 29/29/29 30/30/30 31/31/31 32/32/32
usemtl endcap
f 33/33/33 34/34/34 35/35/35
f 36/36/36 37/37/37 38/38/38
f 39/39/39 40/40/40 41/41/41
f 42/42/42 43/43/43 44/44/44
f 45/45/45 46/46/46 47/47/47
f 48/48/48 49/49/49 50/50/50
usemtl casing
f 51/51/51 52/52/52 53/53/53 54/54/54
f 55/55/55 56/56/56 57/57/57 58/58/58
f 59/59/59 60/60/60 61/61/61 62/62/62
f 63/63/63 64/64/64 65/65/65 66/66/66
f 67/67/67 68/68/68 69/69/69 70/70/70
