mtllib turbine.mtl
o casing_middle_upper_left
v 0 0.5 0
v 0 0.5 1
v 0.5 1 1
v 0.5 1 0
v 0 0 0
v 0 0 1
v 0 0.5 1
v 0 0.5 0
v 0.5 1 0
v 0.5 1 1
v 1 1 1
v 1 1 0
vt 0 0
vt 1 0
vt 1 1
vt 0 1
vt 0 0
vt 1 0
vt 1 1
vt 0 1
vt 0 0
vt 0 1
vt 1 1
vt 1 0
vn -0.707107 0.707107 0
vn -0.707107 0.707107 0
vn -0.707107 0.707107 0
vn -0.707107 0.707107 0
vn -1 0 0
vn -1 0 0
vn -1 0 0
vn -1 0 0
vn 0 1 0
vn 0 1 0
vn 0 1 0
vn 0 1 0
usemtl casing
f 1/1/1 2/2/2 3/3/3 4/4/4
f 5/5/5 6/6/6 7/7/7 8/8/8
f 9/9/9 10/10/10 11/11/11 12/12/12
