mtllib turbine.mtl
o d7_rear_x-2_y-2
v 0 0.050253 0
v 0.050253 0 0
v 0.050253 0 0.8125
v 0 0.050253 0.8125
v 0.050253 0 0
v 0.315418 0 0
v 0.315418 0 0.8125
v 0.050253 0 0.8125
v 0.315418 0 0
v 0 0.315418 0
v 0 0.315418 0.8125
v 0.315418 0 0.8125
v 0 0.315418 0
v 0 0.050253 0
v 0 0.050253 0.8125
v 0 0.315418 0.8125
v 0.050253 0 0.8125
v 0 0.050253 0.8125
v 0 1 0.8125
v 1 0 0.8125
v 0.050253 0 0.8125
v 0 1 0.8125
v 1 1 0.8125
v 1 0 0.8125
v 0 1 0.8125
v 0 1 1
v 0 0.050253 1
v 0.050253 0 1
v 0 1 1
v 0.050253 0 1
v 1 0 1
v 0 1 1
v 1 0 1
v 1 1 1
v 0 1 0.8125
v 0 0.050253 0.8125
v 0 0.050253 1
v 0 1 1
v 0 0.050253 0.8125
v 0.050253 0 0.8125
v 0.050253 0 1
v 0 0.050253 1
v 0.050253 0 0.8125
v 1 0 0.8125
v 1 0 1
v 0.050253 0 1
v 1 0 0.8125
v 1 1 0.8125
v 1 1 1
v 1 0 1
v 1 1 0.8125
v 0 1 0.8125
v 0 1 1
v 1 1 1
vt 0 1
vt 0 0
vt 1 0
vt 1 1
vt 0 0
vt 1 0
vt 1 1
vt 0 1
vt 0 0
vt 0 1
vt 1 1
vt 1 0
vt 0 1
vt 0 0
vt 1 0
vt 1 1
vt 1 0
vt 0 0.050253
vt 0 1
vt 1 0
vt 0.050253 0
vt 0 1
vt 1 1
vt 1 0
vt 0 1
vt 0 1
vt 0 0.050253
vt 1 0
vt 0 1
vt 0.050253 0
vt 1 0
vt 0 1
vt 1 0
vt 1 1
vt 0 1
vt 0 0
vt 1 0
vt 1 1
vt 0 1
vt 0 0
vt 1 0
vt 1 1
vt 0 0
vt 1 0
vt 1 1
vt 0 1
vt 0 0
vt 0 1
vt 1 1
vt 1 0
vt 1 0
vt 0 0
vt 0 1
vt 1 1
vn -0.707107 -0.707107 0
vn -0.707107 -0.707107 0
vn -0.707107 -0.707107 0
vn -0.707107 -0.707107 0
vn 0 -1 0
vn 0 -1 0
vn 0 -1 0
vn 0 -1 0
vn 0.707107 0.707107 0
vn 0.707107 0.707107 0
vn 0.707107 0.707107 0
vn 0.707107 0.707107 0
vn -1 0 0
vn -1 0 0
vn -1 0 0
vn -1 0 0
vn 0 0 -1
vn 0 0 -1
vn 0 0 -1
vn 0 0 -1
vn 0 0 -1
vn 0 0 -1
vn 0 0 -1
vn 0 0 -1
vn 0 0 -1
vn 0 0 1
vn 0 0 1
vn 0 0 1
vn 0 0 1
vn 0 0 1
vn 0 0 1
vn 0 0 1
vn 0 0 1
vn 0 0 1
vn -1 0 0
vn -1 0 0
vn -1 0 0
vn -1 0 0
vn -0.707107 -0.707107 0
vn -0.707107 -0.707107 0
vn -0.707107 -0.707107 0
vn -0.707107 -0.707107 0
vn 0 -1 0
vn 0 -1 0
vn 0 -1 0
vn 0 -1 0
vn 1 0 0
vn 1 0 0
vn 1 0 0
vn 1 0 0
vn 0 1 0
vn 0 1 0
vn 0 1 0
vn 0 1 0
usemtl casing
f 1/1/1 2/2/2 3/3/3 4/4/4
usemtl edge
f 5/5/5 6/6/6 7/7/7 8/8/8
usemtl inside
f 9/9/9 10/10/10 11/11/11 12/12/12
usemtl edge
f 13/13/13 14/14/14 15/15/15 16/16/16
usemtl endcap
f 17/17/17 18/18/18 19/19/19
f 20/20/20 21/21/21 22/22/22
f 23/23/23 24/24/24 25/25/25
f 26/26/26 27/27/27 28/28/28
f 29/29/29 30/30/30 31/31/31
f 32/32/32 33/33/33 34/34/34
usemtl casing
f 35/35/35 36/36/36 37/37/37 38/38/38
f 39/39/39 40/40/40 41/41/41 42/42/42
f 43/43/43 44/44/44 45/45/45 46/46/46
f 47/47/47 48/48/48 49/49/49 50/50/50
f 51/51/51 52/52/52 53/53/53 54/54/54
