mtllib turbine.mtl
o casing_middle_lower_right
v 1 1 0
v 1 1 1
v 1 0.5 1
v 1 0.5 0
v 0.6875 0.1875 0
v 0.6875 0.1875 1
v 0 0.1875 1
v 0 0.1875 0
v 1 0.5 0
v 1 0.5 1
v 0.6875 0.1875 1
v 0.6875 0.1875 0
v 0.15 0 0
v 0.15 0 1
v 0.15 0.1875 1
v 0.15 0.1875 0
v 0.35 0 0
v 0.35 0.1875 0
v 0.35 0.1875 1
v 0.35 0 1
v 0.15 0 0
v 0.35 0 0
v 0.35 0 1
v 0.15 0 1
vt 0 1
vt 1 1
vt 1 0
vt 0 0
vt 1 0
vt 1 1
vt 0 1
vt 0 0
vt 0 1
vt 1 1
vt 1 0
vt 0 0
vt 0 0
vt 1 0
vt 1 1
vt 0 1
vt 0 0
vt 0 1
vt 1 1
vt 1 0
vt 0 0
vt 1 0
vt 1 1
vt 0 1
vn 1 0 0
vn 1 0 0
vn 1 0 0
vn 1 0 0
vn 0 -1 0
vn 0 -1 0
vn 0 -1 0
vn 0 -1 0
vn 0.707107 -0.707107 0
vn 0.707107 -0.707107 0
vn 0.707107 -0.707107 0
vn 0.707107 -0.707107 0
vn -1 0 0
vn -1 0 0
vn -1 0 0
vn -1 0 0
vn 1 0 0
vn 1 0 0
vn 1 0 0
vn 1 0 0
vn 0 -1 0
vn 0 -1 0
vn 0 -1 0
vn 0 -1 0
usemtl casing
f 1/1/1 2/2/2 3/3/3 4/4/4
f 5/5/5 6/6/6 7/7/7 8/8/8
f 9/9/9 10/10/10 11/11/11 12/12/12
usemtl support
f 13/13/13 14/14/14 15/15/15 16/16/16
f 17/17/17 18/18/18 19/19/19 20/20/20
f 21/21/21 22/22/22 23/23/23 24/24/24
