mtllib turbine.mtl
o casing_rear_lower_left
v 0 0.5 0
v 0 0.5 1
v 0 1 1
v 0 1 0
v 0.3125 0.1875 0
v 0.3125 0.1875 1
v 0 0.5 1
v 0 0.5 0
v 1 0.1875 0
v 1 0.1875 1
v 0.3125 0.1875 1
v 0.3125 0.1875 0
v 0.65 0 0
v 0.65 0 1
v 0.65 0.1875 1
v 0.65 0.1875 0
v 0.85 0 0
v 0.85 0.1875 0
v 0.85 0.1875 1
v 0.85 0 1
v 0.65 0 0
v 0.85 0 0
v 0.85 0 1
v 0.65 0 1
v 0.65 0 1
v 0.85 0 1
v 0.85 0.1875 1
v 0.65 0.1875 1
v 0 0.5 1
v 0.3125 0.1875 1
v 1 0.1875 1
v 0 0.5 1
v 1 0.1875 1
v 1 1 1
v 0 0.5 1
v 1 1 1
v 0 1 1
vt 0 0
vt 1 0
vt 1 1
vt 0 1
vt 0 0
vt 1 0
vt 1 1
vt 0 1
vt 1 0
vt 1 1
vt 0 1
vt 0 0
vt 0 0
vt 1 0
vt 1 1
vt 0 1
vt 0 0
vt 0 1
vt 1 1
vt 1 0
vt 0 0
vt 1 0
vt 1 1
vt 0 1
vt 0 0
vt 1 0
vt 1 1
vt 0 1
vt 0 1
vt 0.3125 0
vt 1 0
vt 0 0.384615
vt 1 0
vt 1 1
vt 0 0
vt 1 1
vt 0 1
vn -1 0 0
vn -1 0 0
vn -1 0 0
vn -1 0 0
vn -0.707107 -0.707107 0
vn -0.707107 -0.707107 0
vn -0.707107 -0.707107 0
vn -0.707107 -0.707107 0
vn 0 -1 0
vn 0 -1 0
vn 0 -1 0
vn 0 -1 0
vn -1 0 0
vn -1 0 0
vn -1 0 0
vn -1 0 0
vn 1 0 0
vn 1 0 0
vn 1 0 0
vn 1 0 0
vn 0 -1 0
vn 0 -1 0
vn 0 -1 0
vn 0 -1 0
vn 0 0 1
vn 0 0 1
vn 0 0 1
vn 0 0 1
vn 0 0 1
vn 0 0 1
vn 0 0 1
vn 0 0 1
vn 0 0 1
vn 0 0 1
vn 0 0 1
vn 0 0 1
vn 0 0 1
usemtl casing
f 1/1/1 2/2/2 3/3/3 4/4/4
f 5/5/5 6/6/6 7/7/7 8/8/8
f 9/9/9 10/10/10 11/11/11 12/12/12
usemtl support
f 13/13/13 14/14/14 15/15/15 16/16/16
f 17/17/17 18/18/18 19/19/19 20/20/20
f 21/21/21 22/22/22 23/23/23 24/24/24
f 25/25/25 26/26/26 27/27/27 28/28/28
usemtl endcap
f 29/29/29 30/30/30 31/31/31
f 32/32/32 33/33/33 34/34/34
f 35/35/35 36/36/36 37/37/37
