mtllib turbine.mtl
o d5_middle_x2_y1
v 1 0 0
v 1 0.535534 0
v 1 0.535534 1
v 1 0 1
v 0.8125 0.457869 0
v 0.8125 0 0
v 0.8125 0 1
v 0.8125 0.457869 1
v 0.8125 0 0
v 1 0 0
v 1 0 1
v 0.8125 0 1
v 1 0.535534 0
v 0.535534 1 0
v 0.535534 1 1
v 1 0.535534 1
v 0.535534 1 0
v 0.270369 1 0
v 0.270369 1 1
v 0.535534 1 1
v 0.270369 1 0
v 0.8125 0.457869 0
v 0.8125 0.457869 1
v 0.270369 1 1
vt 0 0
vt 0 1
vt 1 1
vt 1 0
vt 0 1
vt 0 0
vt 1 0
vt 1 1
vt 0 0
vt 1 0
vt 1 1
vt 0 1
vt 1 0
vt 0 0
vt 0 1
vt 1 1
vt 1 0
vt 0 0
vt 0 1
vt 1 1
vt 0 0
vt 1 0
vt 1 1
vt 0 1
vn 1 0 0
vn 1 0 0
vn 1 0 0
vn 1 0 0
vn -1 0 0
vn -1 0 0
vn -1 0 0
vn -1 0 0
vn 0 -1 0
vn 0 -1 0
vn 0 -1 0
vn 0 -1 0
vn 0.707107 0.707107 0
vn 0.707107 0.707107 0
vn 0.707107 0.707107 0
vn 0.707107 0.707107 0
vn 0 1 0
vn 0 1 0
vn 0 1 0
vn 0 1 0
vn -0.707107 -0.707107 0
vn -0.707107 -0.707107 0
vn -0.707107 -0.707107 0
vn -0.707107 -0.707107 0
usemtl casing
f 1/1/1 2/2/2 3/3/3 4/4/4
usemtl inside
f 5/5/5 6/6/6 7/7/7 8/8/8
usemtl edge
f 9/9/9 10/10/10 11/11/11 12/12/12
usemtl casing
f 13/13/13 14/14/14 15/15/15 16/16/16
usemtl edge
f 17/17/17 18/18/18 19/19/19 20/20/20
usemtl inside
f 21/21/21 22/22/22 23/23/23 24/24/24
