mtllib turbine.mtl
o d7_rear_x-2_y3
v 1 0.949747 0
v 0.050253 0 0
v 0.050253 0 0.8125
v 1 0.949747 0.8125
v 0.050253 0 0
v 0.315418 0 0
v 0.315418 0 0.8125
v 0.050253 0 0.8125
v 0.315418 0 0
v 1 0.684582 0
v 1 0.684582 0.8125
v 0.315418 0 0.8125
v 1 0.684582 0
v 1 0.949747 0
v 1 0.949747 0.8125
v 1 0.684582 0.8125
v 0.050253 0 0.8125
v 1 0.949747 0.8125
v 1 0 0.8125
v 1 0 1
v 1 0.949747 1
v 0.050253 0 1
v 1 0 0.8125
v 1 0.949747 0.8125
v 1 0.949747 1
v 1 0 1
v 1 0.949747 0.8125
v 0.050253 0 0.8125
v 0.050253 0 1
v 1 0.949747 1
v 0.050253 0 0.8125
v 1 0 0.8125
v 1 0 1
v 0.050253 0 1
vt 0 1
vt 0 0
vt 1 0
vt 1 1
vt 0 0
vt 1 0
vt 1 1
vt 0 1
vt 0 0
vt 1 0
vt 1 1
vt 0 1
vt 0 0
vt 0 1
vt 1 1
vt 1 0
vt 0 0
vt 1 1
vt 1 0
vt 1 0
vt 1 1
vt 0 0
vt 0 0
vt 0 1
vt 1 1
vt 1 0
vt 0 1
vt 0 0
vt 1 0
vt 1 1
vt 0 0
vt 1 0
vt 1 1
vt 0 1
vn -0.707107 0.707107 0
vn -0.707107 0.707107 0
vn -0.707107 0.707107 0
vn -0.707107 0.707107 0
vn 0 -1 0
vn 0 -1 0
vn 0 -1 0
vn 0 -1 0
vn 0.707107 -0.707107 0
vn 0.707107 -0.707107 0
vn 0.707107 -0.707107 0
vn 0.707107 -0.707107 0
vn 1 0 0
vn 1 0 0
vn 1 0 0
vn 1 0 0
vn 0 0 -1
vn 0 0 -1
vn 0 0 -1
vn 0 0 1
vn 0 0 1
vn 0 0 1
vn 1 0 0
vn 1 0 0
vn 1 0 0
vn 1 0 0
vn -0.707107 0.707107 0
vn -0.707107 0.707107 0
vn -0.707107 0.707107 0
vn -0.707107 0.707107 0
vn 0 -1 0
vn 0 -1 0
vn 0 -1 0
vn 0 -1 0
usemtl casing
f 1/1/1 2/2/2 3/3/3 4/4/4
usemtl edge
f 5/5/5 6/6/6 7/7/7 8/8/8
usemtl inside
f 9/9/9 10/10/10 11/11/11 12/12/12
usemtl edge
f 13/13/13 14/14/14 15/15/15 16/16/16
usemtl endcap
f 17/17/17 18/18/18 19/19/19
f 20/20/20 21/21/21 22/22/22
usemtl casing
f 23/23/23 24/24/24 25/25/25 26/26/26
f 27/27/27 28/28/28 29/29/29 30/30/30
f 31/31/31 32/32/32 33/33/33 34/34/34
