mtllib turbine.mtl
o d3_middle_x-1_y1
v 1 1 0
v 0.87868 1 0
v 0.87868 1 1
v 1 1 1
v 0.956345 0.8125 0
v 1 0.8125 0
v 1 0.8125 1
v 0.956345 0.8125 1
v 1 0.8125 0
v 1 1 0
v 1 1 1
v 1 0.8125 1
v 0.87868 1 0
v 0 0.12132 0
v 0 0.12132 1
v 0.87868 1 1
v 0.1875 0.043655 0
v 0.956345 0.8125 0
v 0.956345 0.8125 1
v 0.1875 0.043655 1
v 0 0.12132 0
v 0 0 0
v 0 0 1
v 0 0.12132 1
v 0 0 0
v 0.1875 0 0
v 0.1875 0 1
v 0 0 1
v 0.1875 0 0
v 0.1875 0.043655 0
v 0.1875 0.043655 1
v 0.1875 0 1
vt 1 0
vt 0 0
vt 0 1
vt 1 1
vt 0 0
vt 1 0
vt 1 1
vt 0 1
vt 0 0
vt 0 1
vt 1 1
vt 1 0
vt 0 1
vt 0 0
vt 1 0
vt 1 1
vt 0 0
vt 0 1
vt 1 1
vt 1 0
vt 0 1
vt 0 0
vt 1 0
vt 1 1
vt 0 0
vt 1 0
vt 1 1
vt 0 1
vt 0 0
vt 0 1
vt 1 1
vt 1 0
vn 0 1 0
vn 0 1 0
vn 0 1 0
vn 0 1 0
vn 0 -1 0
vn 0 -1 0
vn 0 -1 0
vn 0 -1 0
vn 1 0 0
vn 1 0 0
vn 1 0 0
vn 1 0 0
vn -0.707107 0.707107 0
vn -0.707107 0.707107 0
vn -0.707107 0.707107 0
vn -0.707107 0.707107 0
vn 0.707107 -0.707107 0
vn 0.707107 -0.707107 0
vn 0.707107 -0.707107 0
vn 0.707107 -0.707107 0
vn -1 0 0
vn -1 0 0
vn -1 0 0
vn -1 0 0
vn 0 -1 0
vn 0 -1 0
vn 0 -1 0
vn 0 -1 0
vn 1 0 0
vn 1 0 0
vn 1 0 0
vn 1 0 0
usemtl casing
f 1/1/1 2/2/2 3/3/3 4/4/4
usemtl inside
f 5/5/5 6/6/6 7/7/7 8/8/8
usemtl edge
f 9/9/9 10/10/10 11/11/11 12/12/12
usemtl casing
f 13/13/13 14/14/14 15/15/15 16/16/16
usemtl inside
f 17/17/17 18/18/18 19/19/19 20/20/20
usemtl casing
f 21/21/21 22/22/22 23/23/23 24/24/24
usemtl edge
f 25/25/25 26/26/26 27/27/27 28/28/28
usemtl inside
f 29/29/29 30/30/30 31/31/31 32/32/32
