mtllib turbine.mtl
o exhaust_up
v 0.82 0.89 0.5
v 0.795641 0.89 0.622459
v 0.795641 0 0.622459
v 0.82 0 0.5
v 0.795641 0.89 0.622459
v 0.726274 0.89 0.726274
v 0.726274 0 0.726274
v 0.795641 0 0.622459
v 0.726274 0.89 0.726274
v 0.622459 0.89 0.795641
v 0.622459 0 0.795641
v 0.726274 0 0.726274
v 0.622459 0.89 0.795641
v 0.5 0.89 0.82
v 0.5 0 0.82
v 0.622459 0 0.795641
v 0.5 0.89 0.82
v 0.377541 0.89 0.795641
v 0.377541 0 0.795641
v 0.5 0 0.82
v 0.377541 0.89 0.795641
v 0.273726 0.89 0.726274
v 0.273726 0 0.726274
v 0.377541 0 0.795641
v 0.273726 0.89 0.726274
v 0.204359 0.89 0.622459
v 0.204359 0 0.622459
v 0.273726 0 0.726274
v 0.204359 0.89 0.622459
v 0.18 0.89 0.5
v 0.18 0 0.5
v 0.204359 0 0.622459
v 0.18 0.89 0.5
v 0.204359 0.89 0.377541
v 0.204359 0 0.377541
v 0.18 0 0.5
v 0.204359 0.89 0.377541
v 0.273726 0.89 0.273726
v 0.273726 0 0.273726
v 0.204359 0 0.377541
v 0.273726 0.89 0.273726
v 0.377541 0.89 0.204359
v 0.377541 0 0.204359
v 0.273726 0 0.273726
v 0.377541 0.89 0.204359
v 0.5 0.89 0.18
v 0.5 0 0.18
v 0.377541 0 0.204359
v 0.5 0.89 0.18
v 0.622459 0.89 0.204359
v 0.622459 0 0.204359
v 0.5 0 0.18
v 0.622459 0.89 0.204359
v 0.726274 0.89 0.273726
v 0.726274 0 0.273726
v 0.622459 0 0.204359
v 0.726274 0.89 0.273726
v 0.795641 0.89 0.377541
v 0.795641 0 0.377541
v 0.726274 0 0.273726
v 0.795641 0.89 0.377541
v 0.82 0.89 0.5
v 0.82 0 0.5
v 0.795641 0 0.377541
v 0.82 1 0.5
v 0.795641 1 0.622459
v 0.795641 0.89 0.622459
v 0.82 0.89 0.5
v 0.795641 1 0.622459
v 0.726274 1 0.726274
v 0.726274 0.89 0.726274
v 0.795641 0.89 0.622459
v 0.726274 1 0.726274
v 0.622459 1 0.795641
v 0.622459 0.89 0.795641
v 0.726274 0.89 0.726274
v 0.622459 1 0.795641
v 0.5 1 0.82
v 0.5 0.89 0.82
v 0.622459 0.89 0.795641
v 0.5 1 0.82
v 0.377541 1 0.795641
v 0.377541 0.89 0.795641
v 0.5 0.89 0.82
v 0.377541 1 0.795641
v 0.273726 1 0.726274
v 0.273726 0.89 0.726274
v 0.377541 0.89 0.795641
v 0.273726 1 0.726274
v 0.204359 1 0.622459
v 0.204359 0.89 0.622459
v 0.273726 0.89 0.726274
v 0.204359 1 0.622459
v 0.18 1 0.5
v 0.18 0.89 0.5
v 0.204359 0.89 0.622459
v 0.18 1 0.5
v 0.204359 1 0.377541
v 0.204359 0.89 0.377541
v 0.18 0.89 0.5
v 0.204359 1 0.377541
v 0.273726 1 0.273726
v 0.273726 0.89 0.273726
v 0.204359 0.89 0.377541
v 0.273726 1 0.273726
v 0.377541 1 0.204359
v 0.377541 0.89 0.204359
v 0.273726 0.89 0.273726
v 0.377541 1 0.204359
v 0.5 1 0.18
v 0.5 0.89 0.18
v 0.377541 0.89 0.204359
v 0.5 1 0.18
v 0.622459 1 0.204359
v 0.622459 0.89 0.204359
v 0.5 0.89 0.18
v 0.622459 1 0.204359
v 0.726274 1 0.273726
v 0.726274 0.89 0.273726
v 0.622459 0.89 0.204359
v 0.726274 1 0.273726
v 0.795641 1 0.377541
v 0.795641 0.89 0.377541
v 0.726274 0.89 0.273726
v 0.795641 1 0.377541
v 0.82 1 0.5
v 0.82 0.89 0.5
v 0.795641 0.89 0.377541
v 0.726274 1 0.726274
v 0.795641 1 0.622459
v 0.82 1 0.5
v 0.622459 1 0.795641
v 0.726274 1 0.726274
v 0.82 1 0.5
v 0.5 1 0.82
v 0.622459 1 0.795641
v 0.82 1 0.5
v 0.377541 1 0.795641
v 0.5 1 0.82
v 0.82 1 0.5
v 0.273726 1 0.726274
v 0.377541 1 0.795641
v 0.82 1 0.5
v 0.204359 1 0.622459
v 0.273726 1 0.726274
v 0.82 1 0.5
v 0.18 1 0.5
v 0.204359 1 0.622459
v 0.82 1 0.5
v 0.204359 1 0.377541
v 0.18 1 0.5
v 0.82 1 0.5
v 0.273726 1 0.273726
v 0.204359 1 0.377541
v 0.82 1 0.5
v 0.377541 1 0.204359
v 0.273726 1 0.273726
v 0.82 1 0.5
v 0.5 1 0.18
v 0.377541 1 0.204359
v 0.82 1 0.5
v 0.622459 1 0.204359
v 0.5 1 0.18
v 0.82 1 0.5
v 0.726274 1 0.273726
v 0.622459 1 0.204359
v 0.82 1 0.5
v 0.795641 1 0.377541
v 0.726274 1 0.273726
v 0.82 1 0.5
v 0 0 0
v 1 0 0
v 1 0 0.15
v 0 0 0.15
v 0 0 0.85
v 1 0 0.85
v 1 0 1
v 0 0 1
v 0 0 0.15
v 0.15 0 0.15
v 0.15 0 0.85
v 0 0 0.85
v 0.85 0 0.15
v 1 0 0.15
v 1 0 0.85
v 0.85 0 0.85
v 0 0.08 0.15
v 1 0.08 0.15
v 1 0.08 0
v 0 0.08 0
v 0 0.08 1
v 1 0.08 1
v 1 0.08 0.85
v 0 0.08 0.85
v 0 0.08 0.85
v 0.15 0.08 0.85
v 0.15 0.08 0.15
v 0 0.08 0.15
v 0.85 0.08 0.85
v 1 0.08 0.85
v 1 0.08 0.15
v 0.85 0.08 0.15
v 0 0 1
v 0 0.08 1
v 0 0.08 0
v 0 0 0
v 1 0 0
v 1 0.08 0
v 1 0.08 1
v 1 0 1
v 0 0.08 0
v 1 0.08 0
v 1 0 0
v 0 0 0
v 0 0 1
v 1 0 1
v 1 0.08 1
v 0 0.08 1
v 0.15 0 0.15
v 0.15 0.08 0.15
v 0.15 0.08 0.85
v 0.15 0 0.85
v 0.85 0 0.85
v 0.85 0.08 0.85
v 0.85 0.08 0.15
v 0.85 0 0.15
v 0.15 0 0.15
v 0.85 0 0.15
v 0.85 0.08 0.15
v 0.15 0.08 0.15
v 0.15 0.08 0.85
v 0.85 0.08 0.85
v 0.85 0 0.85
v 0.15 0 0.85
vt 0 1
vt 1 1
vt 1 0
vt 0 0
vt 0 1
vt 1 1
vt 1 0
vt 0 0
vt 1 1
vt 0 1
vt 0 0
vt 1 0
vt 1 1
vt 0 1
vt 0 0
vt 1 0
vt 1 1
vt 0 1
vt 0 0
vt 1 0
vt 1 1
vt 0 1
vt 0 0
vt 1 0
vt 1 1
vt 0 1
vt 0 0
vt 1 0
vt 1 1
vt 0 1
vt 0 0
vt 1 0
vt 1 1
vt 0 1
vt 0 0
vt 1 0
vt 1 1
vt 0 1
vt 0 0
vt 1 0
vt 0 1
vt 1 1
vt 1 0
vt 0 0
vt 0 1
vt 1 1
vt 1 0
vt 0 0
vt 0 1
vt 1 1
vt 1 0
vt 0 0
vt 0 1
vt 1 1
vt 1 0
vt 0 0
vt 0 1
vt 1 1
vt 1 0
vt 0 0
vt 0 1
vt 1 1
vt 1 0
vt 0 0
vt 0 1
vt 1 1
vt 1 0
vt 0 0
vt 0 1
vt 1 1
vt 1 0
vt 0 0
vt 1 1
vt 0 1
vt 0 0
vt 1 0
vt 1 1
vt 0 1
vt 0 0
vt 1 0
vt 1 1
vt 0 1
vt 0 0
vt 1 0
vt 1 1
vt 0 1
vt 0 0
vt 1 0
vt 1 1
vt 0 1
vt 0 0
vt 1 0
vt 1 1
vt 0 1
vt 0 0
vt 1 0
vt 1 1
vt 0 1
vt 0 0
vt 1 0
vt 1 1
vt 0 1
vt 0 0
vt 1 0
vt 0 1
vt 1 1
vt 1 0
vt 0 0
vt 0 1
vt 1 1
vt 1 0
vt 0 0
vt 0 1
vt 1 1
vt 1 0
vt 0 0
vt 0 1
vt 1 1
vt 1 0
vt 0 0
vt 0 1
vt 1 1
vt 1 0
vt 0 0
vt 0 1
vt 1 1
vt 1 0
vt 0 0
vt 0 1
vt 0.740108 0.541196
vt 1 0
vt 0 1
vt 0.525538 0.765367
vt 1 0
vt 0 1
vt 0.382683 0.92388
vt 1 0
vt 0 0.92388
vt 0.276769 1
vt 1 0
vt 0 0.765367
vt 0.190043 1
vt 1 0
vt 0 0.541196
vt 0.112675 1
vt 1 0
vt 0 0
vt 0.03806 1
vt 1 0
vt 0.03806 0
vt 0 1
vt 1 1
vt 0.112675 0
vt 0 0.458804
vt 1 1
vt 0.190043 0
vt 0 0.234633
vt 1 1
vt 0.276769 0
vt 0 0.07612
vt 1 1
vt 0.382683 0.07612
vt 0 0
vt 1 1
vt 0.525538 0.234633
vt 0 0
vt 1 1
vt 0.740108 0.458804
vt 0 0
vt 1 1
vt 0 0
vt 1 0
vt 1 1
vt 0 1
vt 0 0
vt 1 0
vt 1 1
vt 0 1
vt 0 0
vt 1 0
vt 1 1
vt 0 1
vt 0 0
vt 1 0
vt 1 1
vt 0 1
vt 0 1
vt 1 1
vt 1 0
vt 0 0
vt 0 1
vt 1 1
vt 1 0
vt 0 0
vt 0 1
vt 1 1
vt 1 0
vt 0 0
vt 0 1
vt 1 1
vt 1 0
vt 0 0
vt 1 0
vt 1 1
vt 0 1
vt 0 0
vt 0 0
vt 0 1
vt 1 1
vt 1 0
vt 0 1
vt 1 1
vt 1 0
vt 0 0
vt 0 0
vt 1 0
vt 1 1
vt 0 1
vt 0 0
vt 0 1
vt 1 1
vt 1 0
vt 1 0
vt 1 1
vt 0 1
vt 0 0
vt 0 0
vt 1 0
vt 1 1
vt 0 1
vt 0 1
vt 1 1
vt 1 0
vt 0 0
vn 0.980785 0 0.19509
vn 0.980785 0 0.19509
vn 0.980785 0 0.19509
vn 0.980785 0 0.19509
vn 0.83147 0 0.55557
vn 0.83147 0 0.55557
vn 0.83147 0 0.55557
vn 0.83147 0 0.55557
vn 0.55557 0 0.83147
vn 0.55557 0 0.83147
vn 0.55557 0 0.83147
vn 0.55557 0 0.83147
vn 0.19509 0 0.980785
vn 0.19509 0 0.980785
vn 0.19509 0 0.980785
vn 0.19509 0 0.980785
vn -0.19509 0 0.980785
vn -0.19509 0 0.980785
vn -0.19509 0 0.980785
vn -0.19509 0 0.980785
vn -0.55557 0 0.83147
vn -0.55557 0 0.83147
vn -0.55557 0 0.83147
vn -0.55557 0 0.83147
vn -0.83147 0 0.55557
vn -0.83147 0 0.55557
vn -0.83147 0 0.55557
vn -0.83147 0 0.55557
vn -0.980785 0 0.19509
vn -0.980785 0 0.19509
vn -0.980785 0 0.19509
vn -0.980785 0 0.19509
vn -0.980785 0 -0.19509
vn -0.980785 0 -0.19509
vn -0.980785 0 -0.19509
vn -0.980785 0 -0.19509
vn -0.83147 0 -0.55557
vn -0.83147 0 -0.55557
vn -0.83147 0 -0.55557
vn -0.83147 0 -0.55557
vn -0.55557 0 -0.83147
vn -0.55557 0 -0.83147
vn -0.55557 0 -0.83147
vn -0.55557 0 -0.83147
vn -0.19509 0 -0.980785
vn -0.19509 0 -0.980785
vn -0.19509 0 -0.980785
vn -0.19509 0 -0.980785
vn 0.19509 0 -0.980785
vn 0.19509 0 -0.980785
vn 0.19509 0 -0.980785
vn 0.19509 0 -0.980785
vn 0.55557 0 -0.83147
vn 0.55557 0 -0.83147
vn 0.55557 0 -0.83147
vn 0.55557 0 -0.83147
vn 0.83147 0 -0.55557
vn 0.83147 0 -0.55557
vn 0.83147 0 -0.55557
vn 0.83147 0 -0.55557
vn 0.980785 0 -0.19509
vn 0.980785 0 -0.19509
vn 0.980785 0 -0.19509
vn 0.980785 0 -0.19509
vn 0.980785 0 0.19509
vn 0.980785 0 0.19509
vn 0.980785 0 0.19509
vn 0.980785 0 0.19509
vn 0.83147 0 0.55557
vn 0.83147 0 0.55557
vn 0.83147 0 0.55557
vn 0.83147 0 0.55557
vn 0.55557 0 0.83147
vn 0.55557 0 0.83147
vn 0.55557 0 0.83147
vn 0.55557 0 0.83147
vn 0.19509 0 0.980785
vn 0.19509 0 0.980785
vn 0.19509 0 0.980785
vn 0.19509 0 0.980785
vn -0.19509 0 0.980785
vn -0.19509 0 0.980785
vn -0.19509 0 0.980785
vn -0.19509 0 0.980785
vn -0.55557 0 0.83147
vn -0.55557 0 0.83147
vn -0.55557 0 0.83147
vn -0.55557 0 0.83147
vn -0.83147 0 0.55557
vn -0.83147 0 0.55557
vn -0.83147 0 0.55557
vn -0.83147 0 0.55557
vn -0.980785 0 0.19509
vn -0.980785 0 0.19509
vn -0.980785 0 0.19509
vn -0.980785 0 0.19509
vn -0.980785 0 -0.19509
vn -0.980785 0 -0.19509
vn -0.980785 0 -0.19509
vn -0.980785 0 -0.19509
vn -0.83147 0 -0.55557
vn -0.83147 0 -0.55557
vn -0.83147 0 -0.55557
vn -0.83147 0 -0.55557
vn -0.55557 0 -0.83147
vn -0.55557 0 -0.83147
vn -0.55557 0 -0.83147
vn -0.55557 0 -0.83147
vn -0.19509 0 -0.980785
vn -0.19509 0 -0.980785
vn -0.19509 0 -0.980785
vn -0.19509 0 -0.980785
vn 0.19509 0 -0.980785
vn 0.19509 0 -0.980785
vn 0.19509 0 -0.980785
vn 0.19509 0 -0.980785
vn 0.55557 0 -0.83147
vn 0.55557 0 -0.83147
vn 0.55557 0 -0.83147
vn 0.55557 0 -0.83147
vn 0.83147 0 -0.55557
vn 0.83147 0 -0.55557
vn 0.83147 0 -0.55557
vn 0.83147 0 -0.55557
vn 0.980785 0 -0.19509
vn 0.980785 0 -0.19509
vn 0.980785 0 -0.19509
vn 0.980785 0 -0.19509
vn 0 1 0
vn 0 1 0
vn 0 1 0
vn 0 1 0
vn 0 1 0
vn 0 1 0
vn 0 1 0
vn 0 1 0
vn 0 1 0
vn 0 1 0
vn 0 1 0
vn 0 1 0
vn 0 1 0
vn 0 1 0
vn 0 1 0
vn 0 1 0
vn 0 1 0
vn 0 1 0
vn 0 1 0
vn 0 1 0
vn 0 1 0
vn 0 1 0
vn 0 1 0
vn 0 1 0
vn 0 1 0
vn 0 1 0
vn 0 1 0
vn 0 1 0
vn 0 1 0
vn 0 1 0
vn 0 1 0
vn 0 1 0
vn 0 1 0
vn 0 1 0
vn 0 1 0
vn 0 1 0
vn 0 1 0
vn 0 1 0
vn 0 1 0
vn 0 1 0
vn 0 1 0
vn 0 1 0
vn 0 -1 0
vn 0 -1 0
vn 0 -1 0
vn 0 -1 0
vn 0 -1 0
vn 0 -1 0
vn 0 -1 0
vn 0 -1 0
vn 0 -1 0
vn 0 -1 0
vn 0 -1 0
vn 0 -1 0
vn 0 -1 0
vn 0 -1 0
vn 0 -1 0
vn 0 -1 0
vn 0 1 0
vn 0 1 0
vn 0 1 0
vn 0 1 0
vn 0 1 0
vn 0 1 0
vn 0 1 0
vn 0 1 0
vn 0 1 0
vn 0 1 0
vn 0 1 0
vn 0 1 0
vn 0 1 0
vn 0 1 0
vn 0 1 0
vn 0 1 0
vn -1 0 0
vn -1 0 0
vn -1 0 0
vn -1 0 0
vn 1 0 0
vn 1 0 0
vn 1 0 0
vn 1 0 0
vn 0 0 -1
vn 0 0 -1
vn 0 0 -1
vn 0 0 -1
vn 0 0 1
vn 0 0 1
vn 0 0 1
vn 0 0 1
vn 1 0 0
vn 1 0 0
vn 1 0 0
vn 1 0 0
vn -1 0 0
vn -1 0 0
vn -1 0 0
vn -1 0 0
vn 0 0 1
vn 0 0 1
vn 0 0 1
vn 0 0 1
vn 0 0 -1
vn 0 0 -1
vn 0 0 -1
vn 0 0 -1
usemtl casing
f 1/1/1 2/2/2 3/3/3 4/4/4
f 5/5/5 6/6/6 7/7/7 8/8/8
f 9/9/9 10/10/10 11/11/11 12/12/12
f 13/13/13 14/14/14 15/15/15 16/16/16
f 17/17/17 18/18/18 19/19/19 20/20/20
f 21/21/21 22/22/22 23/23/23 24/24/24
f 25/25/25 26/26/26 27/27/27 28/28/28
f 29/29/29 30/30/30 31/31/31 32/32/32
f 33/33/33 34/34/34 35/35/35 36/36/36
f 37/37/37 38/38/38 39/39/39 40/40/40
f 41/41/41 42/42/42 43/43/43 44/44/44
f 45/45/45 46/46/46 47/47/47 48/48/48
f 49/49/49 50/50/50 51/51/51 52/52/52
f 53/53/53 54/54/54 55/55/55 56/56/56
f 57/57/57 58/58/58 59/59/59 60/60/60
f 61/61/61 62/62/62 63/63/63 64/64/64
usemtl exhaust
f 65/65/65 66/66/66 67/67/67 68/68/68
f 69/69/69 70/70/70 71/71/71 72/72/72
f 73/73/73 74/74/74 75/75/75 76/76/76
f 77/77/77 78/78/78 79/79/79 80/80/80
f 81/81/81 82/82/82 83/83/83 84/84/84
f 85/85/85 86/86/86 87/87/87 88/88/88
f 89/89/89 90/90/90 91/91/91 92/92/92
f 93/93/93 94/94/94 95/95/95 96/96/96
f 97/97/97 98/98/98 99/99/99 100/100/100
f 101/101/101 102/102/102 103/103/103 104/104/104
f 105/105/105 106/106/106 107/107/107 108/108/108
f 109/109/109 110/110/110 111/111/111 112/112/112
f 113/113/113 114/114/114 115/115/115 116/116/116
f 117/117/117 118/118/118 119/119/119 120/120/120
f 121/121/121 122/122/122 123/123/123 124/124/124
f 125/125/125 126/126/126 127/127/127 128/128/128
f 129/129/129 130/130/130 131/131/131
f 132/132/132 133/133/133 134/134/134
f 135/135/135 136/136/136 137/137/137
f 138/138/138 139/139/139 140/140/140
f 141/141/141 142/142/142 143/143/143
f 144/144/144 145/145/145 146/146/146
f 147/147/147 148/148/148 149/149/149
f 150/150/150 151/151/151 152/152/152
f 153/153/153 154/154/154 155/155/155
f 156/156/156 157/157/157 158/158/158
f 159/159/159 160/160/160 161/161/161
f 162/162/162 163/163/163 164/164/164
f 165/165/165 166/166/166 167/167/167
f 168/168/168 169/169/169 170/170/170
usemtl endcap
f 171/171/171 172/172/172 173/173/173 174/174/174
f 175/175/175 176/176/176 177/177/177 178/178/178
f 179/179/179 180/180/180 181/181/181 182/182/182
f 183/183/183 184/184/184 185/185/185 186/186/186
f 187/187/187 188/188/188 189/189/189 190/190/190
f 191/191/191 192/192/192 193/193/193 194/194/194
f 195/195/195 196/196/196 197/197/197 198/198/198
f 199/199/199 200/200/200 201/201/201 202/202/202
usemtl casing
f 203/203/203 204/204/204 205/205/205 206/206/206
f 207/207/207 208/208/208 209/209/209 210/210/210
f 211/211/211 212/212/212 213/213/213 214/214/214
f 215/215/215 216/216/216 217/217/217 218/218/218
f 219/219/219 220/220/220 221/221/221 222/222/222
f 223/223/223 224/224/224 225/225/225 226/226/226
f 227/227/227 228/228/228 229/229/229 230/230/230
f 231/231/231 232/232/232 233/233/233 234/234/234
