mtllib turbine.mtl
o inlet_loose_up
v 0.82 0.75 0.5
v 0.795641 0.75 0.622459
v 0.795641 0.71875 0.622459
v 0.82 0.71875 0.5
v 0.795641 0.75 0.622459
v 0.726274 0.75 0.726274
v 0.726274 0.71875 0.726274
v 0.795641 0.71875 0.622459
v 0.726274 0.75 0.726274
v 0.622459 0.75 0.795641
v 0.622459 0.71875 0.795641
v 0.726274 0.71875 0.726274
v 0.622459 0.75 0.795641
v 0.5 0.75 0.82
v 0.5 0.71875 0.82
v 0.622459 0.71875 0.795641
v 0.5 0.75 0.82
v 0.377541 0.75 0.795641
v 0.377541 0.71875 0.795641
v 0.5 0.71875 0.82
v 0.377541 0.75 0.795641
v 0.273726 0.75 0.726274
v 0.273726 0.71875 0.726274
v 0.377541 0.71875 0.795641
v 0.273726 0.75 0.726274
v 0.204359 0.75 0.622459
v 0.204359 0.71875 0.622459
v 0.273726 0.71875 0.726274
v 0.204359 0.75 0.622459
v 0.18 0.75 0.5
v 0.18 0.71875 0.5
v 0.204359 0.71875 0.622459
v 0.18 0.75 0.5
v 0.204359 0.75 0.377541
v 0.204359 0.71875 0.377541
v 0.18 0.71875 0.5
v 0.204359 0.75 0.377541
v 0.273726 0.75 0.273726
v 0.273726 0.71875 0.273726
v 0.204359 0.71875 0.377541
v 0.273726 0.75 0.273726
v 0.377541 0.75 0.204359
v 0.377541 0.71875 0.204359
v 0.273726 0.71875 0.273726
v 0.377541 0.75 0.204359
v 0.5 0.75 0.18
v 0.5 0.71875 0.18
v 0.377541 0.71875 0.204359
v 0.5 0.75 0.18
v 0.622459 0.75 0.204359
v 0.622459 0.71875 0.204359
v 0.5 0.71875 0.18
v 0.622459 0.75 0.204359
v 0.726274 0.75 0.273726
v 0.726274 0.71875 0.273726
v 0.622459 0.71875 0.204359
v 0.726274 0.75 0.273726
v 0.795641 0.75 0.377541
v 0.795641 0.71875 0.377541
v 0.726274 0.71875 0.273726
v 0.795641 0.75 0.377541
v 0.82 0.75 0.5
v 0.82 0.71875 0.5
v 0.795641 0.71875 0.377541
v 0.82 0.8125 0.5
v 0.795641 0.8125 0.622459
v 0.795641 0.75 0.622459
v 0.82 0.75 0.5
v 0.795641 0.8125 0.622459
v 0.726274 0.8125 0.726274
v 0.726274 0.75 0.726274
v 0.795641 0.75 0.622459
v 0.726274 0.8125 0.726274
v 0.622459 0.8125 0.795641
v 0.622459 0.75 0.795641
v 0.726274 0.75 0.726274
v 0.622459 0.8125 0.795641
v 0.5 0.8125 0.82
v 0.5 0.75 0.82
v 0.622459 0.75 0.795641
v 0.5 0.8125 0.82
v 0.377541 0.8125 0.795641
v 0.377541 0.75 0.795641
v 0.5 0.75 0.82
v 0.377541 0.8125 0.795641
v 0.273726 0.8125 0.726274
v 0.273726 0.75 0.726274
v 0.377541 0.75 0.795641
v 0.273726 0.8125 0.726274
v 0.204359 0.8125 0.622459
v 0.204359 0.75 0.622459
v 0.273726 0.75 0.726274
v 0.204359 0.8125 0.622459
v 0.18 0.8125 0.5
v 0.18 0.75 0.5
v 0.204359 0.75 0.622459
v 0.18 0.8125 0.5
v 0.204359 0.8125 0.377541
v 0.204359 0.75 0.377541
v 0.18 0.75 0.5
v 0.204359 0.8125 0.377541
v 0.273726 0.8125 0.273726
v 0.273726 0.75 0.273726
v 0.204359 0.75 0.377541
v 0.273726 0.8125 0.273726
v 0.377541 0.8125 0.204359
v 0.377541 0.75 0.204359
v 0.273726 0.75 0.273726
v 0.377541 0.8125 0.204359
v 0.5 0.8125 0.18
v 0.5 0.75 0.18
v 0.377541 0.75 0.204359
v 0.5 0.8125 0.18
v 0.622459 0.8125 0.204359
v 0.622459 0.75 0.204359
v 0.5 0.75 0.18
v 0.622459 0.8125 0.204359
v 0.726274 0.8125 0.273726
v 0.726274 0.75 0.273726
v 0.622459 0.75 0.204359
v 0.726274 0.8125 0.273726
v 0.795641 0.8125 0.377541
v 0.795641 0.75 0.377541
v 0.726274 0.75 0.273726
v 0.795641 0.8125 0.377541
v 0.82 0.8125 0.5
v 0.82 0.75 0.5
v 0.795641 0.75 0.377541
v 0.813851 1 0.562429
v 1 1 0.599456
v 1 1 0.5
v 0.82 1 0.5
v 0.795641 1 0.622459
v 1 1 0.707107
v 1 1 0.599456
v 0.813851 1 0.562429
v 0.76607 1 0.677782
v 1 1 0.834089
v 1 1 0.707107
v 0.795641 1 0.622459
v 0.726274 1 0.726274
v 1 1 1
v 1 1 0.834089
v 0.76607 1 0.677782
v 0.677782 1 0.76607
v 0.834089 1 1
v 1 1 1
v 0.726274 1 0.726274
v 0.622459 1 0.795641
v 0.707107 1 1
v 0.834089 1 1
v 0.677782 1 0.76607
v 0.562429 1 0.813851
v 0.599456 1 1
v 0.707107 1 1
v 0.622459 1 0.795641
v 0.5 1 0.82
v 0.5 1 1
v 0.599456 1 1
v 0.562429 1 0.813851
v 0.437571 1 0.813851
v 0.400544 1 1
v 0.5 1 1
v 0.5 1 0.82
v 0.377541 1 0.795641
v 0.292893 1 1
v 0.400544 1 1
v 0.437571 1 0.813851
v 0.322218 1 0.76607
v 0.165911 1 1
v 0.292893 1 1
v 0.377541 1 0.795641
v 0.273726 1 0.726274
v 0 1 1
v 0.165911 1 1
v 0.322218 1 0.76607
v 0.23393 1 0.677782
v 0 1 0.834089
v 0 1 1
v 0.273726 1 0.726274
v 0.204359 1 0.622459
v 0 1 0.707107
v 0 1 0.834089
v 0.23393 1 0.677782
v 0.186149 1 0.562429
v 0 1 0.599456
v 0 1 0.707107
v 0.204359 1 0.622459
v 0.18 1 0.5
v 0 1 0.5
v 0 1 0.599456
v 0.186149 1 0.562429
v 0.186149 1 0.437571
v 0 1 0.400544
v 0 1 0.5
v 0.18 1 0.5
v 0.204359 1 0.377541
v 0 1 0.292893
v 0 1 0.400544
v 0.186149 1 0.437571
v 0.23393 1 0.322218
v 0 1 0.165911
v 0 1 0.292893
v 0.204359 1 0.377541
v 0.273726 1 0.273726
v 0 1 0
v 0 1 0.165911
v 0.23393 1 0.322218
v 0.322218 1 0.23393
v 0.165911 1 0
v 0 1 0
v 0.273726 1 0.273726
v 0.377541 1 0.204359
v 0.292893 1 0
v 0.165911 1 0
v 0.322218 1 0.23393
v 0.437571 1 0.186149
v 0.400544 1 0
v 0.292893 1 0
v 0.377541 1 0.204359
v 0.5 1 0.18
v 0.5 1 0
v 0.400544 1 0
v 0.437571 1 0.186149
v 0.562429 1 0.186149
v 0.599456 1 0
v 0.5 1 0
v 0.5 1 0.18
v 0.622459 1 0.204359
v 0.707107 1 0
v 0.599456 1 0
v 0.562429 1 0.186149
v 0.677782 1 0.23393
v 0.834089 1 0
v 0.707107 1 0
v 0.622459 1 0.204359
v 0.726274 1 0.273726
v 1 1 0
v 0.834089 1 0
v 0.677782 1 0.23393
v 0.76607 1 0.322218
v 1 1 0.165911
v 1 1 0
v 0.726274 1 0.273726
v 0.795641 1 0.377541
v 1 1 0.292893
v 1 1 0.165911
v 0.76607 1 0.322218
v 0.813851 1 0.437571
v 1 1 0.400544
v 1 1 0.292893
v 0.795641 1 0.377541
v 0.82 1 0.5
v 1 1 0.5
v 1 1 0.400544
v 0.813851 1 0.437571
v 0.813851 1 0.437571
v 0.795641 1 0.377541
v 0.76607 1 0.322218
v 0.813851 1 0.437571
v 0.76607 1 0.322218
v 0.726274 1 0.273726
v 0.813851 1 0.437571
v 0.726274 1 0.273726
v 0.677782 1 0.23393
v 0.813851 1 0.437571
v 0.677782 1 0.23393
v 0.622459 1 0.204359
v 0.813851 1 0.437571
v 0.622459 1 0.204359
v 0.562429 1 0.186149
v 0.813851 1 0.437571
v 0.562429 1 0.186149
v 0.5 1 0.18
v 0.813851 1 0.437571
v 0.5 1 0.18
v 0.437571 1 0.186149
v 0.813851 1 0.437571
v 0.437571 1 0.186149
v 0.377541 1 0.204359
v 0.813851 1 0.437571
v 0.377541 1 0.204359
v 0.322218 1 0.23393
v 0.813851 1 0.437571
v 0.322218 1 0.23393
v 0.273726 1 0.273726
v 0.813851 1 0.437571
v 0.273726 1 0.273726
v 0.23393 1 0.322218
v 0.813851 1 0.437571
v 0.23393 1 0.322218
v 0.204359 1 0.377541
v 0.813851 1 0.437571
v 0.204359 1 0.377541
v 0.186149 1 0.437571
v 0.813851 1 0.437571
v 0.186149 1 0.437571
v 0.18 1 0.5
v 0.813851 1 0.437571
v 0.18 1 0.5
v 0.186149 1 0.562429
v 0.813851 1 0.437571
v 0.186149 1 0.562429
v 0.204359 1 0.622459
v 0.813851 1 0.437571
v 0.204359 1 0.622459
v 0.23393 1 0.677782
v 0.813851 1 0.437571
v 0.23393 1 0.677782
v 0.273726 1 0.726274
v 0.813851 1 0.437571
v 0.273726 1 0.726274
v 0.322218 1 0.76607
v 0.813851 1 0.437571
v 0.322218 1 0.76607
v 0.377541 1 0.795641
v 0.813851 1 0.437571
v 0.377541 1 0.795641
v 0.437571 1 0.813851
v 0.813851 1 0.437571
v 0.437571 1 0.813851
v 0.5 1 0.82
v 0.813851 1 0.437571
v 0.5 1 0.82
v 0.562429 1 0.813851
v 0.813851 1 0.437571
v 0.562429 1 0.813851
v 0.622459 1 0.795641
v 0.813851 1 0.437571
v 0.622459 1 0.795641
v 0.677782 1 0.76607
v 0.813851 1 0.437571
v 0.677782 1 0.76607
v 0.726274 1 0.726274
v 0.813851 1 0.437571
v 0.726274 1 0.726274
v 0.76607 1 0.677782
v 0.813851 1 0.437571
v 0.76607 1 0.677782
v 0.795641 1 0.622459
v 0.813851 1 0.437571
v 0.795641 1 0.622459
v 0.813851 1 0.562429
v 0.813851 1 0.437571
v 0.813851 1 0.562429
v 0.82 1 0.5
v 0.82 0.8125 0.5
v 1 0.8125 0.5
v 1 0.8125 0.599456
v 0.813851 0.8125 0.562429
v 0.813851 0.8125 0.562429
v 1 0.8125 0.599456
v 1 0.8125 0.707107
v 0.795641 0.8125 0.622459
v 0.795641 0.8125 0.622459
v 1 0.8125 0.707107
v 1 0.8125 0.834089
v 0.76607 0.8125 0.677782
v 0.76607 0.8125 0.677782
v 1 0.8125 0.834089
v 1 0.8125 1
v 0.726274 0.8125 0.726274
v 0.726274 0.8125 0.726274
v 1 0.8125 1
v 0.834089 0.8125 1
v 0.677782 0.8125 0.76607
v 0.677782 0.8125 0.76607
v 0.834089 0.8125 1
v 0.707107 0.8125 1
v 0.622459 0.8125 0.795641
v 0.622459 0.8125 0.795641
v 0.707107 0.8125 1
v 0.599456 0.8125 1
v 0.562429 0.8125 0.813851
v 0.562429 0.8125 0.813851
v 0.599456 0.8125 1
v 0.5 0.8125 1
v 0.5 0.8125 0.82
v 0.5 0.8125 0.82
v 0.5 0.8125 1
v 0.400544 0.8125 1
v 0.437571 0.8125 0.813851
v 0.437571 0.8125 0.813851
v 0.400544 0.8125 1
v 0.292893 0.8125 1
v 0.377541 0.8125 0.795641
v 0.377541 0.8125 0.795641
v 0.292893 0.8125 1
v 0.165911 0.8125 1
v 0.322218 0.8125 0.76607
v 0.322218 0.8125 0.76607
v 0.165911 0.8125 1
v 0 0.8125 1
v 0.273726 0.8125 0.726274
v 0.273726 0.8125 0.726274
v 0 0.8125 1
v 0 0.8125 0.834089
v 0.23393 0.8125 0.677782
v 0.23393 0.8125 0.677782
v 0 0.8125 0.834089
v 0 0.8125 0.707107
v 0.204359 0.8125 0.622459
v 0.204359 0.8125 0.622459
v 0 0.8125 0.707107
v 0 0.8125 0.599456
v 0.186149 0.8125 0.562429
v 0.186149 0.8125 0.562429
v 0 0.8125 0.599456
v 0 0.8125 0.5
v 0.18 0.8125 0.5
v 0.18 0.8125 0.5
v 0 0.8125 0.5
v 0 0.8125 0.400544
v 0.186149 0.8125 0.437571
v 0.186149 0.8125 0.437571
v 0 0.8125 0.400544
v 0 0.8125 0.292893
v 0.204359 0.8125 0.377541
v 0.204359 0.8125 0.377541
v 0 0.8125 0.292893
v 0 0.8125 0.165911
v 0.23393 0.8125 0.322218
v 0.23393 0.8125 0.322218
v 0 0.8125 0.165911
v 0 0.8125 0
v 0.273726 0.8125 0.273726
v 0.273726 0.8125 0.273726
v 0 0.8125 0
v 0.165911 0.8125 0
v 0.322218 0.8125 0.23393
v 0.322218 0.8125 0.23393
v 0.165911 0.8125 0
v 0.292893 0.8125 0
v 0.377541 0.8125 0.204359
v 0.377541 0.8125 0.204359
v 0.292893 0.8125 0
v 0.400544 0.8125 0
v 0.437571 0.8125 0.186149
v 0.437571 0.8125 0.186149
v 0.400544 0.8125 0
v 0.5 0.8125 0
v 0.5 0.8125 0.18
v 0.5 0.8125 0.18
v 0.5 0.8125 0
v 0.599456 0.8125 0
v 0.562429 0.8125 0.186149
v 0.562429 0.8125 0.186149
v 0.599456 0.8125 0
v 0.707107 0.8125 0
v 0.622459 0.8125 0.204359
v 0.622459 0.8125 0.204359
v 0.707107 0.8125 0
v 0.834089 0.8125 0
v 0.677782 0.8125 0.23393
v 0.677782 0.8125 0.23393
v 0.834089 0.8125 0
v 1 0.8125 0
v 0.726274 0.8125 0.273726
v 0.726274 0.8125 0.273726
v 1 0.8125 0
v 1 0.8125 0.165911
v 0.76607 0.8125 0.322218
v 0.76607 0.8125 0.322218
v 1 0.8125 0.165911
v 1 0.8125 0.292893
v 0.795641 0.8125 0.377541
v 0.795641 0.8125 0.377541
v 1 0.8125 0.292893
v 1 0.8125 0.400544
v 0.813851 0.8125 0.437571
v 0.813851 0.8125 0.437571
v 1 0.8125 0.400544
v 1 0.8125 0.5
v 0.82 0.8125 0.5
v 0.82 0.8125 0.5
v 0.813851 0.8125 0.562429
v 0.795641 0.8125 0.622459
v 0.82 0.8125 0.5
v 0.795641 0.8125 0.622459
v 0.76607 0.8125 0.677782
v 0.82 0.8125 0.5
v 0.76607 0.8125 0.677782
v 0.726274 0.8125 0.726274
v 0.82 0.8125 0.5
v 0.726274 0.8125 0.726274
v 0.677782 0.8125 0.76607
v 0.82 0.8125 0.5
v 0.677782 0.8125 0.76607
v 0.622459 0.8125 0.795641
v 0.82 0.8125 0.5
v 0.622459 0.8125 0.795641
v 0.562429 0.8125 0.813851
v 0.82 0.8125 0.5
v 0.562429 0.8125 0.813851
v 0.5 0.8125 0.82
v 0.82 0.8125 0.5
v 0.5 0.8125 0.82
v 0.437571 0.8125 0.813851
v 0.82 0.8125 0.5
v 0.437571 0.8125 0.813851
v 0.377541 0.8125 0.795641
v 0.82 0.8125 0.5
v 0.377541 0.8125 0.795641
v 0.322218 0.8125 0.76607
v 0.82 0.8125 0.5
v 0.322218 0.8125 0.76607
v 0.273726 0.8125 0.726274
v 0.82 0.8125 0.5
v 0.273726 0.8125 0.726274
v 0.23393 0.8125 0.677782
v 0.82 0.8125 0.5
v 0.23393 0.8125 0.677782
v 0.204359 0.8125 0.622459
v 0.82 0.8125 0.5
v 0.204359 0.8125 0.622459
v 0.186149 0.8125 0.562429
v 0.82 0.8125 0.5
v 0.186149 0.8125 0.562429
v 0.18 0.8125 0.5
v 0.82 0.8125 0.5
v 0.18 0.8125 0.5
v 0.186149 0.8125 0.437571
v 0.82 0.8125 0.5
v 0.186149 0.8125 0.437571
v 0.204359 0.8125 0.377541
v 0.82 0.8125 0.5
v 0.204359 0.8125 0.377541
v 0.23393 0.8125 0.322218
v 0.82 0.8125 0.5
v 0.23393 0.8125 0.322218
v 0.273726 0.8125 0.273726
v 0.82 0.8125 0.5
v 0.273726 0.8125 0.273726
v 0.322218 0.8125 0.23393
v 0.82 0.8125 0.5
v 0.322218 0.8125 0.23393
v 0.377541 0.8125 0.204359
v 0.82 0.8125 0.5
v 0.377541 0.8125 0.204359
v 0.437571 0.8125 0.186149
v 0.82 0.8125 0.5
v 0.437571 0.8125 0.186149
v 0.5 0.8125 0.18
v 0.82 0.8125 0.5
v 0.5 0.8125 0.18
v 0.562429 0.8125 0.186149
v 0.82 0.8125 0.5
v 0.562429 0.8125 0.186149
v 0.622459 0.8125 0.204359
v 0.82 0.8125 0.5
v 0.622459 0.8125 0.204359
v 0.677782 0.8125 0.23393
v 0.82 0.8125 0.5
v 0.677782 0.8125 0.23393
v 0.726274 0.8125 0.273726
v 0.82 0.8125 0.5
v 0.726274 0.8125 0.273726
v 0.76607 0.8125 0.322218
v 0.82 0.8125 0.5
v 0.76607 0.8125 0.322218
v 0.795641 0.8125 0.377541
v 0.82 0.8125 0.5
v 0.795641 0.8125 0.377541
v 0.813851 0.8125 0.437571
v 0 1 0
v 0 0.8125 0
v 0 0.8125 1
v 0 1 1
v 1 1 1
v 1 0.8125 1
v 1 0.8125 0
v 1 1 0
v 0 1 0
v 1 1 0
v 1 0.8125 0
v 0 0.8125 0
v 0 0.8125 1
v 1 0.8125 1
v 1 1 1
v 0 1 1
v 0.82 0.71875 0.5
v 0.795641 0.71875 0.622459
v 0.726274 0.71875 0.726274
v 0.82 0.71875 0.5
v 0.726274 0.71875 0.726274
v 0.622459 0.71875 0.795641
v 0.82 0.71875 0.5
v 0.622459 0.71875 0.795641
v 0.5 0.71875 0.82
v 0.82 0.71875 0.5
v 0.5 0.71875 0.82
v 0.377541 0.71875 0.795641
v 0.82 0.71875 0.5
v 0.377541 0.71875 0.795641
v 0.273726 0.71875 0.726274
v 0.82 0.71875 0.5
v 0.273726 0.71875 0.726274
v 0.204359 0.71875 0.622459
v 0.82 0.71875 0.5
v 0.204359 0.71875 0.622459
v 0.18 0.71875 0.5
v 0.82 0.71875 0.5
v 0.18 0.71875 0.5
v 0.204359 0.71875 0.377541
v 0.82 0.71875 0.5
v 0.204359 0.71875 0.377541
v 0.273726 0.71875 0.273726
v 0.82 0.71875 0.5
v 0.273726 0.71875 0.273726
v 0.377541 0.71875 0.204359
v 0.82 0.71875 0.5
v 0.377541 0.71875 0.204359
v 0.5 0.71875 0.18
v 0.82 0.71875 0.5
v 0.5 0.71875 0.18
v 0.622459 0.71875 0.204359
v 0.82 0.71875 0.5
v 0.622459 0.71875 0.204359
v 0.726274 0.71875 0.273726
v 0.82 0.71875 0.5
v 0.726274 0.71875 0.273726
v 0.795641 0.71875 0.377541
vt 0 0
vt 0.0625 0
vt 0.0625 1
vt 0 1
vt 0.0625 0
vt 0.125 0
vt 0.125 1
vt 0.0625 1
vt 0.125 0
vt 0.1875 0
vt 0.1875 1
vt 0.125 1
vt 0.1875 0
vt 0.25 0
vt 0.25 1
vt 0.1875 1
vt 0.25 0
vt 0.3125 0
vt 0.3125 1
vt 0.25 1
vt 0.3125 0
vt 0.375 0
vt 0.375 1
vt 0.3125 1
vt 0.375 0
vt 0.4375 0
vt 0.4375 1
vt 0.375 1
vt 0.4375 0
vt 0.5 0
vt 0.5 1
vt 0.4375 1
vt 0.5 0
vt 0.5625 0
vt 0.5625 1
vt 0.5 1
vt 0.5625 0
vt 0.625 0
vt 0.625 1
vt 0.5625 1
vt 0.625 0
vt 0.6875 0
vt 0.6875 1
vt 0.625 1
vt 0.6875 0
vt 0.75 0
vt 0.75 1
vt 0.6875 1
vt 0.75 0
vt 0.8125 0
vt 0.8125 1
vt 0.75 1
vt 0.8125 0
vt 0.875 0
vt 0.875 1
vt 0.8125 1
vt 0.875 0
vt 0.9375 0
vt 0.9375 1
vt 0.875 1
vt 0.9375 0
vt 0 0
vt 0 1
vt 0.9375 1
vt 0 0
vt 0.0625 0
vt 0.0625 1
vt 0 1
vt 0.0625 0
vt 0.125 0
vt 0.125 1
vt 0.0625 1
vt 0.125 0
vt 0.1875 0
vt 0.1875 1
vt 0.125 1
vt 0.1875 0
vt 0.25 0
vt 0.25 1
vt 0.1875 1
vt 0.25 0
vt 0.3125 0
vt 0.3125 1
vt 0.25 1
vt 0.3125 0
vt 0.375 0
vt 0.375 1
vt 0.3125 1
vt 0.375 0
vt 0.4375 0
vt 0.4375 1
vt 0.375 1
vt 0.4375 0
vt 0.5 0
vt 0.5 1
vt 0.4375 1
vt 0.5 0
vt 0.5625 0
vt 0.5625 1
vt 0.5 1
vt 0.5625 0
vt 0.625 0
vt 0.625 1
vt 0.5625 1
vt 0.625 0
vt 0.6875 0
vt 0.6875 1
vt 0.625 1
vt 0.6875 0
vt 0.75 0
vt 0.75 1
vt 0.6875 1
vt 0.75 0
vt 0.8125 0
vt 0.8125 1
vt 0.75 1
vt 0.8125 0
vt 0.875 0
vt 0.875 1
vt 0.8125 1
vt 0.875 0
vt 0.9375 0
vt 0.9375 1
vt 0.875 1
vt 0.9375 0
vt 0 0
vt 0 1
vt 0.9375 1
vt 0.813851 0.562429
vt 1 0.599456
vt 1 0.5
vt 0.82 0.5
vt 0.795641 0.622459
vt 1 0.707107
vt 1 0.599456
vt 0.813851 0.562429
vt 0.76607 0.677782
vt 1 0.834089
vt 1 0.707107
vt 0.795641 0.622459
vt 0.726274 0.726274
vt 1 1
vt 1 0.834089
vt 0.76607 0.677782
vt 0.677782 0.76607
vt 0.834089 1
vt 1 1
vt 0.726274 0.726274
vt 0.622459 0.795641
vt 0.707107 1
vt 0.834089 1
vt 0.677782 0.76607
vt 0.562429 0.813851
vt 0.599456 1
vt 0.707107 1
vt 0.622459 0.795641
vt 0.5 0.82
vt 0.5 1
vt 0.599456 1
vt 0.562429 0.813851
vt 0.437571 0.813851
vt 0.400544 1
vt 0.5 1
vt 0.5 0.82
vt 0.377541 0.795641
vt 0.292893 1
vt 0.400544 1
vt 0.437571 0.813851
vt 0.322218 0.76607
vt 0.165911 1
vt 0.292893 1
vt 0.377541 0.795641
vt 0.273726 0.726274
vt 0 1
vt 0.165911 1
vt 0.322218 0.76607
vt 0.23393 0.677782
vt 0 0.834089
vt 0 1
vt 0.273726 0.726274
vt 0.204359 0.622459
vt 0 0.707107
vt 0 0.834089
vt 0.23393 0.677782
vt 0.186149 0.562429
vt 0 0.599456
vt 0 0.707107
vt 0.204359 0.622459
vt 0.18 0.5
vt 0 0.5
vt 0 0.599456
vt 0.186149 0.562429
vt 0.186149 0.437571
vt 0 0.400544
vt 0 0.5
vt 0.18 0.5
vt 0.204359 0.377541
vt 0 0.292893
vt 0 0.400544
vt 0.186149 0.437571
vt 0.23393 0.322218
vt 0 0.165911
vt 0 0.292893
vt 0.204359 0.377541
vt 0.273726 0.273726
vt 0 0
vt 0 0.165911
vt 0.23393 0.322218
vt 0.322218 0.23393
vt 0.165911 0
vt 0 0
vt 0.273726 0.273726
vt 0.377541 0.204359
vt 0.292893 0
vt 0.165911 0
vt 0.322218 0.23393
vt 0.437571 0.186149
vt 0.400544 0
vt 0.292893 0
vt 0.377541 0.204359
vt 0.5 0.18
vt 0.5 0
vt 0.400544 0
vt 0.437571 0.186149
vt 0.562429 0.186149
vt 0.599456 0
vt 0.5 0
vt 0.5 0.18
vt 0.622459 0.204359
vt 0.707107 0
vt 0.599456 0
vt 0.562429 0.186149
vt 0.677782 0.23393
vt 0.834089 0
vt 0.707107 0
vt 0.622459 0.204359
vt 0.726274 0.273726
vt 1 0
vt 0.834089 0
vt 0.677782 0.23393
vt 0.76607 0.322218
vt 1 0.165911
vt 1 0
vt 0.726274 0.273726
vt 0.795641 0.377541
vt 1 0.292893
vt 1 0.165911
vt 0.76607 0.322218
vt 0.813851 0.437571
vt 1 0.400544
vt 1 0.292893
vt 0.795641 0.377541
vt 0.82 0.5
vt 1 0.5
vt 1 0.400544
vt 0.813851 0.437571
vt 0.990393 0.402455
vt 0.96194 0.308658
vt 0.915735 0.222215
vt 0.990393 0.402455
vt 0.915735 0.222215
vt 0.853553 0.146447
vt 0.990393 0.402455
vt 0.853553 0.146447
vt 0.777785 0.084265
vt 0.990393 0.402455
vt 0.777785 0.084265
vt 0.691342 0.03806
vt 0.990393 0.402455
vt 0.691342 0.03806
vt 0.597545 0.009607
vt 0.990393 0.402455
vt 0.597545 0.009607
vt 0.5 0
vt 0.990393 0.402455
vt 0.5 0
vt 0.402455 0.009607
vt 0.990393 0.402455
vt 0.402455 0.009607
vt 0.308658 0.03806
vt 0.990393 0.402455
vt 0.308658 0.03806
vt 0.222215 0.084265
vt 0.990393 0.402455
vt 0.222215 0.084265
vt 0.146447 0.146447
vt 0.990393 0.402455
vt 0.146447 0.146447
vt 0.084265 0.222215
vt 0.990393 0.402455
vt 0.084265 0.222215
vt 0.03806 0.308658
vt 0.990393 0.402455
vt 0.03806 0.308658
vt 0.009607 0.402455
vt 0.990393 0.402455
vt 0.009607 0.402455
vt 0 0.5
vt 0.990393 0.402455
vt 0 0.5
vt 0.009607 0.597545
vt 0.990393 0.402455
vt 0.009607 0.597545
vt 0.03806 0.691342
vt 0.990393 0.402455
vt 0.03806 0.691342
vt 0.084265 0.777785
vt 0.990393 0.402455
vt 0.084265 0.777785
vt 0.146447 0.853553
vt 0.990393 0.402455
vt 0.146447 0.853553
vt 0.222215 0.915735
vt 0.990393 0.402455
vt 0.222215 0.915735
vt 0.308658 0.96194
vt 0.990393 0.402455
vt 0.308658 0.96194
vt 0.402455 0.990393
vt 0.990393 0.402455
vt 0.402455 0.990393
vt 0.5 1
vt 0.990393 0.402455
vt 0.5 1
vt 0.597545 0.990393
vt 0.990393 0.402455
vt 0.597545 0.990393
vt 0.691342 0.96194
vt 0.990393 0.402455
vt 0.691342 0.96194
vt 0.777785 0.915735
vt 0.990393 0.402455
vt 0.777785 0.915735
vt 0.853553 0.853553
vt 0.990393 0.402455
vt 0.853553 0.853553
vt 0.915735 0.777785
vt 0.990393 0.402455
vt 0.915735 0.777785
vt 0.96194 0.691342
vt 0.990393 0.402455
vt 0.96194 0.691342
vt 0.990393 0.597545
vt 0.990393 0.402455
vt 0.990393 0.597545
vt 1 0.5
vt 0.82 0.5
vt 1 0.5
vt 1 0.599456
vt 0.813851 0.562429
vt 0.813851 0.562429
vt 1 0.599456
vt 1 0.707107
vt 0.795641 0.622459
vt 0.795641 0.622459
vt 1 0.707107
vt 1 0.834089
vt 0.76607 0.677782
vt 0.76607 0.677782
vt 1 0.834089
vt 1 1
vt 0.726274 0.726274
vt 0.726274 0.726274
vt 1 1
vt 0.834089 1
vt 0.677782 0.76607
vt 0.677782 0.76607
vt 0.834089 1
vt 0.707107 1
vt 0.622459 0.795641
vt 0.622459 0.795641
vt 0.707107 1
vt 0.599456 1
vt 0.562429 0.813851
vt 0.562429 0.813851
vt 0.599456 1
vt 0.5 1
vt 0.5 0.82
vt 0.5 0.82
vt 0.5 1
vt 0.400544 1
vt 0.437571 0.813851
vt 0.437571 0.813851
vt 0.400544 1
vt 0.292893 1
vt 0.377541 0.795641
vt 0.377541 0.795641
vt 0.292893 1
vt 0.165911 1
vt 0.322218 0.76607
vt 0.322218 0.76607
vt 0.165911 1
vt 0 1
vt 0.273726 0.726274
vt 0.273726 0.726274
vt 0 1
vt 0 0.834089
vt 0.23393 0.677782
vt 0.23393 0.677782
vt 0 0.834089
vt 0 0.707107
vt 0.204359 0.622459
vt 0.204359 0.622459
vt 0 0.707107
vt 0 0.599456
vt 0.186149 0.562429
vt 0.186149 0.562429
vt 0 0.599456
vt 0 0.5
vt 0.18 0.5
vt 0.18 0.5
vt 0 0.5
vt 0 0.400544
vt 0.186149 0.437571
vt 0.186149 0.437571
vt 0 0.400544
vt 0 0.292893
vt 0.204359 0.377541
vt 0.204359 0.377541
vt 0 0.292893
vt 0 0.165911
vt 0.23393 0.322218
vt 0.23393 0.322218
vt 0 0.165911
vt 0 0
vt 0.273726 0.273726
vt 0.273726 0.273726
vt 0 0
vt 0.165911 0
vt 0.322218 0.23393
vt 0.322218 0.23393
vt 0.165911 0
vt 0.292893 0
vt 0.377541 0.204359
vt 0.377541 0.204359
vt 0.292893 0
vt 0.400544 0
vt 0.437571 0.186149
vt 0.437571 0.186149
vt 0.400544 0
vt 0.5 0
vt 0.5 0.18
vt 0.5 0.18
vt 0.5 0
vt 0.599456 0
vt 0.562429 0.186149
vt 0.562429 0.186149
vt 0.599456 0
vt 0.707107 0
vt 0.622459 0.204359
vt 0.622459 0.204359
vt 0.707107 0
vt 0.834089 0
vt 0.677782 0.23393
vt 0.677782 0.23393
vt 0.834089 0
vt 1 0
vt 0.726274 0.273726
vt 0.726274 0.273726
vt 1 0
vt 1 0.165911
vt 0.76607 0.322218
vt 0.76607 0.322218
vt 1 0.165911
vt 1 0.292893
vt 0.795641 0.377541
vt 0.795641 0.377541
vt 1 0.292893
vt 1 0.400544
vt 0.813851 0.437571
vt 0.813851 0.437571
vt 1 0.400544
vt 1 0.5
vt 0.82 0.5
vt 1 0.5
vt 0.990393 0.597545
vt 0.96194 0.691342
vt 1 0.5
vt 0.96194 0.691342
vt 0.915735 0.777785
vt 1 0.5
vt 0.915735 0.777785
vt 0.853553 0.853553
vt 1 0.5
vt 0.853553 0.853553
vt 0.777785 0.915735
vt 1 0.5
vt 0.777785 0.915735
vt 0.691342 0.96194
vt 1 0.5
vt 0.691342 0.96194
vt 0.597545 0.990393
vt 1 0.5
vt 0.597545 0.990393
vt 0.5 1
vt 1 0.5
vt 0.5 1
vt 0.402455 0.990393
vt 1 0.5
vt 0.402455 0.990393
vt 0.308658 0.96194
vt 1 0.5
vt 0.308658 0.96194
vt 0.222215 0.915735
vt 1 0.5
vt 0.222215 0.915735
vt 0.146447 0.853553
vt 1 0.5
vt 0.146447 0.853553
vt 0.084265 0.777785
vt 1 0.5
vt 0.084265 0.777785
vt 0.03806 0.691342
vt 1 0.5
vt 0.03806 0.691342
vt 0.009607 0.597545
vt 1 0.5
vt 0.009607 0.597545
vt 0 0.5
vt 1 0.5
vt 0 0.5
vt 0.009607 0.402455
vt 1 0.5
vt 0.009607 0.402455
vt 0.03806 0.308658
vt 1 0.5
vt 0.03806 0.308658
vt 0.084265 0.222215
vt 1 0.5
vt 0.084265 0.222215
vt 0.146447 0.146447
vt 1 0.5
vt 0.146447 0.146447
vt 0.222215 0.084265
vt 1 0.5
vt 0.222215 0.084265
vt 0.308658 0.03806
vt 1 0.5
vt 0.308658 0.03806
vt 0.402455 0.009607
vt 1 0.5
vt 0.402455 0.009607
vt 0.5 0
vt 1 0.5
vt 0.5 0
vt 0.597545 0.009607
vt 1 0.5
vt 0.597545 0.009607
vt 0.691342 0.03806
vt 1 0.5
vt 0.691342 0.03806
vt 0.777785 0.084265
vt 1 0.5
vt 0.777785 0.084265
vt 0.853553 0.146447
vt 1 0.5
vt 0.853553 0.146447
vt 0.915735 0.222215
vt 1 0.5
vt 0.915735 0.222215
vt 0.96194 0.308658
vt 1 0.5
vt 0.96194 0.308658
vt 0.990393 0.402455
vt 0 0
vt 1 0
vt 1 1
vt 0 1
vt 0 1
vt 1 1
vt 1 0
vt 0 0
vt 0 0
vt 0 1
vt 1 1
vt 1 0
vt 1 0
vt 1 1
vt 0 1
vt 0 0
vt 0.5 1
vt 0.691342 0.96194
vt 0.853553 0.853553
vt 0.5 1
vt 0.853553 0.853553
vt 0.96194 0.691342
vt 0.5 1
vt 0.96194 0.691342
vt 1 0.5
vt 0.5 1
vt 1 0.5
vt 0.96194 0.308658
vt 0.5 1
vt 0.96194 0.308658
vt 0.853553 0.146447
vt 0.5 1
vt 0.853553 0.146447
vt 0.691342 0.03806
vt 0.5 1
vt 0.691342 0.03806
vt 0.5 0
vt 0.5 1
vt 0.5 0
vt 0.308658 0.03806
vt 0.5 1
vt 0.308658 0.03806
vt 0.146447 0.146447
vt 0.5 1
vt 0.146447 0.146447
vt 0.03806 0.308658
vt 0.5 1
vt 0.03806 0.308658
vt 0 0.5
vt 0.5 1
vt 0 0.5
vt 0.03806 0.691342
vt 0.5 1
vt 0.03806 0.691342
vt 0.146447 0.853553
vt 0.5 1
vt 0.146447 0.853553
vt 0.308658 0.96194
vn 0.980785 0 0.19509
vn 0.980785 0 0.19509
vn 0.980785 0 0.19509
vn 0.980785 0 0.19509
vn 0.83147 0 0.55557
vn 0.83147 0 0.55557
vn 0.83147 0 0.55557
vn 0.83147 0 0.55557
vn 0.55557 0 0.83147
vn 0.55557 0 0.83147
vn 0.55557 0 0.83147
vn 0.55557 0 0.83147
vn 0.19509 0 0.980785
vn 0.19509 0 0.980785
vn 0.19509 0 0.980785
vn 0.19509 0 0.980785
vn -0.19509 0 0.980785
vn -0.19509 0 0.980785
vn -0.19509 0 0.980785
vn -0.19509 0 0.980785
vn -0.55557 0 0.83147
vn -0.55557 0 0.83147
vn -0.55557 0 0.83147
vn -0.55557 0 0.83147
vn -0.83147 0 0.55557
vn -0.83147 0 0.55557
vn -0.83147 0 0.55557
vn -0.83147 0 0.55557
vn -0.980785 0 0.19509
vn -0.980785 0 0.19509
vn -0.980785 0 0.19509
vn -0.980785 0 0.19509
vn -0.980785 0 -0.19509
vn -0.980785 0 -0.19509
vn -0.980785 0 -0.19509
vn -0.980785 0 -0.19509
vn -0.83147 0 -0.55557
vn -0.83147 0 -0.55557
vn -0.83147 0 -0.55557
vn -0.83147 0 -0.55557
vn -0.55557 0 -0.83147
vn -0.55557 0 -0.83147
vn -0.55557 0 -0.83147
vn -0.55557 0 -0.83147
vn -0.19509 0 -0.980785
vn -0.19509 0 -0.980785
vn -0.19509 0 -0.980785
vn -0.19509 0 -0.980785
vn 0.19509 0 -0.980785
vn 0.19509 0 -0.980785
vn 0.19509 0 -0.980785
vn 0.19509 0 -0.980785
vn 0.55557 0 -0.83147
vn 0.55557 0 -0.83147
vn 0.55557 0 -0.83147
vn 0.55557 0 -0.83147
vn 0.83147 0 -0.55557
vn 0.83147 0 -0.55557
vn 0.83147 0 -0.55557
vn 0.83147 0 -0.55557
vn 0.980785 0 -0.19509
vn 0.980785 0 -0.19509
vn 0.980785 0 -0.19509
vn 0.980785 0 -0.19509
vn 0.980785 0 0.19509
vn 0.980785 0 0.19509
vn 0.980785 0 0.19509
vn 0.980785 0 0.19509
vn 0.83147 0 0.55557
vn 0.83147 0 0.55557
vn 0.83147 0 0.55557
vn 0.83147 0 0.55557
vn 0.55557 0 0.83147
vn 0.55557 0 0.83147
vn 0.55557 0 0.83147
vn 0.55557 0 0.83147
vn 0.19509 0 0.980785
vn 0.19509 0 0.980785
vn 0.19509 0 0.980785
vn 0.19509 0 0.980785
vn -0.19509 0 0.980785
vn -0.19509 0 0.980785
vn -0.19509 0 0.980785
vn -0.19509 0 0.980785
vn -0.55557 0 0.83147
vn -0.55557 0 0.83147
vn -0.55557 0 0.83147
vn -0.55557 0 0.83147
vn -0.83147 0 0.55557
vn -0.83147 0 0.55557
vn -0.83147 0 0.55557
vn -0.83147 0 0.55557
vn -0.980785 0 0.19509
vn -0.980785 0 0.19509
vn -0.980785 0 0.19509
vn -0.980785 0 0.19509
vn -0.980785 0 -0.19509
vn -0.980785 0 -0.19509
vn -0.980785 0 -0.19509
vn -0.980785 0 -0.19509
vn -0.83147 0 -0.55557
vn -0.83147 0 -0.55557
vn -0.83147 0 -0.55557
vn -0.83147 0 -0.55557
vn -0.55557 0 -0.83147
vn -0.55557 0 -0.83147
vn -0.55557 0 -0.83147
vn -0.55557 0 -0.83147
vn -0.19509 0 -0.980785
vn -0.19509 0 -0.980785
vn -0.19509 0 -0.980785
vn -0.19509 0 -0.980785
vn 0.19509 0 -0.980785
vn 0.19509 0 -0.980785
vn 0.19509 0 -0.980785
vn 0.19509 0 -0.980785
vn 0.55557 0 -0.83147
vn 0.55557 0 -0.83147
vn 0.55557 0 -0.83147
vn 0.55557 0 -0.83147
vn 0.83147 0 -0.55557
vn 0.83147 0 -0.55557
vn 0.83147 0 -0.55557
vn 0.83147 0 -0.55557
vn 0.980785 0 -0.19509
vn 0.980785 0 -0.19509
vn 0.980785 0 -0.19509
vn 0.980785 0 -0.19509
vn 0 1 0
vn 0 1 0
vn 0 1 0
vn 0 1 0
vn 0 1 0
vn 0 1 0
vn 0 1 0
vn 0 1 0
vn 0 1 0
vn 0 1 0
vn 0 1 0
vn 0 1 0
vn 0 1 0
vn 0 1 0
vn 0 1 0
vn 0 1 0
vn 0 1 0
vn 0 1 0
vn 0 1 0
vn 0 1 0
vn 0 1 0
vn 0 1 0
vn 0 1 0
vn 0 1 0
vn 0 1 0
vn 0 1 0
vn 0 1 0
vn 0 1 0
vn 0 1 0
vn 0 1 0
vn 0 1 0
vn 0 1 0
vn 0 1 0
vn 0 1 0
vn 0 1 0
vn 0 1 0
vn 0 1 0
vn 0 1 0
vn 0 1 0
vn 0 1 0
vn 0 1 0
vn 0 1 0
vn 0 1 0
vn 0 1 0
vn 0 1 0
vn 0 1 0
vn 0 1 0
vn 0 1 0
vn 0 1 0
vn 0 1 0
vn 0 1 0
vn 0 1 0
vn 0 1 0
vn 0 1 0
vn 0 1 0
vn 0 1 0
vn 0 1 0
vn 0 1 0
vn 0 1 0
vn 0 1 0
vn 0 1 0
vn 0 1 0
vn 0 1 0
vn 0 1 0
vn 0 1 0
vn 0 1 0
vn 0 1 0
vn 0 1 0
vn 0 1 0
vn 0 1 0
vn 0 1 0
vn 0 1 0
vn 0 1 0
vn 0 1 0
vn 0 1 0
vn 0 1 0
vn 0 1 0
vn 0 1 0
vn 0 1 0
vn 0 1 0
vn 0 1 0
vn 0 1 0
vn 0 1 0
vn 0 1 0
vn 0 1 0
vn 0 1 0
vn 0 1 0
vn 0 1 0
vn 0 1 0
vn 0 1 0
vn 0 1 0
vn 0 1 0
vn 0 1 0
vn 0 1 0
vn 0 1 0
vn 0 1 0
vn 0 1 0
vn 0 1 0
vn 0 1 0
vn 0 1 0
vn 0 1 0
vn 0 1 0
vn 0 1 0
vn 0 1 0
vn 0 1 0
vn 0 1 0
vn 0 1 0
vn 0 1 0
vn 0 1 0
vn 0 1 0
vn 0 1 0
vn 0 1 0
vn 0 1 0
vn 0 1 0
vn 0 1 0
vn 0 1 0
vn 0 1 0
vn 0 1 0
vn 0 1 0
vn 0 1 0
vn 0 1 0
vn 0 1 0
vn 0 1 0
vn 0 1 0
vn 0 1 0
vn 0 1 0
vn 0 1 0
vn 0 1 0
vn 0 1 0
vn 0 1 0
vn 0 1 0
vn 0 1 0
vn 0 1 0
vn 0 1 0
vn 0 1 0
vn 0 1 0
vn 0 1 0
vn 0 1 0
vn 0 1 0
vn 0 1 0
vn 0 1 0
vn 0 1 0
vn 0 1 0
vn 0 1 0
vn 0 1 0
vn 0 1 0
vn 0 1 0
vn 0 1 0
vn 0 1 0
vn 0 1 0
vn 0 1 0
vn 0 1 0
vn 0 1 0
vn 0 1 0
vn 0 1 0
vn 0 1 0
vn 0 1 0
vn 0 1 0
vn 0 1 0
vn 0 1 0
vn 0 1 0
vn 0 1 0
vn 0 1 0
vn 0 1 0
vn 0 1 0
vn 0 1 0
vn 0 1 0
vn 0 1 0
vn 0 1 0
vn 0 1 0
vn 0 1 0
vn 0 1 0
vn 0 1 0
vn 0 1 0
vn 0 1 0
vn 0 1 0
vn 0 1 0
vn 0 1 0
vn 0 1 0
vn 0 1 0
vn 0 1 0
vn 0 1 0
vn 0 1 0
vn 0 1 0
vn 0 1 0
vn 0 1 0
vn 0 1 0
vn 0 1 0
vn 0 1 0
vn 0 1 0
vn 0 1 0
vn 0 1 0
vn 0 1 0
vn 0 1 0
vn 0 1 0
vn 0 1 0
vn 0 1 0
vn 0 1 0
vn 0 1 0
vn 0 1 0
vn 0 1 0
vn 0 1 0
vn 0 1 0
vn 0 1 0
vn 0 1 0
vn 0 1 0
vn 0 1 0
vn 0 1 0
vn 0 1 0
vn 0 1 0
vn 0 1 0
vn 0 1 0
vn 0 1 0
vn 0 1 0
vn 0 1 0
vn 0 1 0
vn 0 1 0
vn 0 1 0
vn 0 -1 0
vn 0 -1 0
vn 0 -1 0
vn 0 -1 0
vn 0 -1 0
vn 0 -1 0
vn 0 -1 0
vn 0 -1 0
vn 0 -1 0
vn 0 -1 0
vn 0 -1 0
vn 0 -1 0
vn 0 -1 0
vn 0 -1 0
vn 0 -1 0
vn 0 -1 0
vn 0 -1 0
vn 0 -1 0
vn 0 -1 0
vn 0 -1 0
vn 0 -1 0
vn 0 -1 0
vn 0 -1 0
vn 0 -1 0
vn 0 -1 0
vn 0 -1 0
vn 0 -1 0
vn 0 -1 0
vn 0 -1 0
vn 0 -1 0
vn 0 -1 0
vn 0 -1 0
vn 0 -1 0
vn 0 -1 0
vn 0 -1 0
vn 0 -1 0
vn 0 -1 0
vn 0 -1 0
vn 0 -1 0
vn 0 -1 0
vn 0 -1 0
vn 0 -1 0
vn 0 -1 0
vn 0 -1 0
vn 0 -1 0
vn 0 -1 0
vn 0 -1 0
vn 0 -1 0
vn 0 -1 0
vn 0 -1 0
vn 0 -1 0
vn 0 -1 0
vn 0 -1 0
vn 0 -1 0
vn 0 -1 0
vn 0 -1 0
vn 0 -1 0
vn 0 -1 0
vn 0 -1 0
vn 0 -1 0
vn 0 -1 0
vn 0 -1 0
vn 0 -1 0
vn 0 -1 0
vn 0 -1 0
vn 0 -1 0
vn 0 -1 0
vn 0 -1 0
vn 0 -1 0
vn 0 -1 0
vn 0 -1 0
vn 0 -1 0
vn 0 -1 0
vn 0 -1 0
vn 0 -1 0
vn 0 -1 0
vn 0 -1 0
vn 0 -1 0
vn 0 -1 0
vn 0 -1 0
vn 0 -1 0
vn 0 -1 0
vn 0 -1 0
vn 0 -1 0
vn 0 -1 0
vn 0 -1 0
vn 0 -1 0
vn 0 -1 0
vn 0 -1 0
vn 0 -1 0
vn 0 -1 0
vn 0 -1 0
vn 0 -1 0
vn 0 -1 0
vn 0 -1 0
vn 0 -1 0
vn 0 -1 0
vn 0 -1 0
vn 0 -1 0
vn 0 -1 0
vn 0 -1 0
vn 0 -1 0
vn 0 -1 0
vn 0 -1 0
vn 0 -1 0
vn 0 -1 0
vn 0 -1 0
vn 0 -1 0
vn 0 -1 0
vn 0 -1 0
vn 0 -1 0
vn 0 -1 0
vn 0 -1 0
vn 0 -1 0
vn 0 -1 0
vn 0 -1 0
vn 0 -1 0
vn 0 -1 0
vn 0 -1 0
vn 0 -1 0
vn 0 -1 0
vn 0 -1 0
vn 0 -1 0
vn 0 -1 0
vn 0 -1 0
vn 0 -1 0
vn 0 -1 0
vn 0 -1 0
vn 0 -1 0
vn 0 -1 0
vn 0 -1 0
vn 0 -1 0
vn 0 -1 0
vn 0 -1 0
vn 0 -1 0
vn 0 -1 0
vn 0 -1 0
vn 0 -1 0
vn 0 -1 0
vn 0 -1 0
vn 0 -1 0
vn 0 -1 0
vn 0 -1 0
vn 0 -1 0
vn 0 -1 0
vn 0 -1 0
vn 0 -1 0
vn 0 -1 0
vn 0 -1 0
vn 0 -1 0
vn 0 -1 0
vn 0 -1 0
vn 0 -1 0
vn 0 -1 0
vn 0 -1 0
vn 0 -1 0
vn 0 -1 0
vn 0 -1 0
vn 0 -1 0
vn 0 -1 0
vn 0 -1 0
vn 0 -1 0
vn 0 -1 0
vn 0 -1 0
vn 0 -1 0
vn 0 -1 0
vn 0 -1 0
vn 0 -1 0
vn 0 -1 0
vn 0 -1 0
vn 0 -1 0
vn 0 -1 0
vn 0 -1 0
vn 0 -1 0
vn 0 -1 0
vn 0 -1 0
vn 0 -1 0
vn 0 -1 0
vn 0 -1 0
vn 0 -1 0
vn 0 -1 0
vn 0 -1 0
vn 0 -1 0
vn 0 -1 0
vn 0 -1 0
vn 0 -1 0
vn 0 -1 0
vn 0 -1 0
vn 0 -1 0
vn 0 -1 0
vn 0 -1 0
vn 0 -1 0
vn 0 -1 0
vn 0 -1 0
vn 0 -1 0
vn 0 -1 0
vn 0 -1 0
vn 0 -1 0
vn 0 -1 0
vn 0 -1 0
vn 0 -1 0
vn 0 -1 0
vn 0 -1 0
vn 0 -1 0
vn 0 -1 0
vn 0 -1 0
vn 0 -1 0
vn 0 -1 0
vn 0 -1 0
vn 0 -1 0
vn 0 -1 0
vn 0 -1 0
vn 0 -1 0
vn 0 -1 0
vn 0 -1 0
vn 0 -1 0
vn 0 -1 0
vn 0 -1 0
vn -1 0 0
vn -1 0 0
vn -1 0 0
vn -1 0 0
vn 1 0 0
vn 1 0 0
vn 1 0 0
vn 1 0 0
vn 0 0 -1
vn 0 0 -1
vn 0 0 -1
vn 0 0 -1
vn 0 0 1
vn 0 0 1
vn 0 0 1
vn 0 0 1
vn 0 -1 0
vn 0 -1 0
vn 0 -1 0
vn 0 -1 0
vn 0 -1 0
vn 0 -1 0
vn 0 -1 0
vn 0 -1 0
vn 0 -1 0
vn 0 -1 0
vn 0 -1 0
vn 0 -1 0
vn 0 -1 0
vn 0 -1 0
vn 0 -1 0
vn 0 -1 0
vn 0 -1 0
vn 0 -1 0
vn 0 -1 0
vn 0 -1 0
vn 0 -1 0
vn 0 -1 0
vn 0 -1 0
vn 0 -1 0
vn 0 -1 0
vn 0 -1 0
vn 0 -1 0
vn 0 -1 0
vn 0 -1 0
vn 0 -1 0
vn 0 -1 0
vn 0 -1 0
vn 0 -1 0
vn 0 -1 0
vn 0 -1 0
vn 0 -1 0
vn 0 -1 0
vn 0 -1 0
vn 0 -1 0
vn 0 -1 0
vn 0 -1 0
vn 0 -1 0
usemtl casing
f 1/1/1 2/2/2 3/3/3 4/4/4
f 5/5/5 6/6/6 7/7/7 8/8/8
f 9/9/9 10/10/10 11/11/11 12/12/12
f 13/13/13 14/14/14 15/15/15 16/16/16
f 17/17/17 18/18/18 19/19/19 20/20/20
f 21/21/21 22/22/22 23/23/23 24/24/24
f 25/25/25 26/26/26 27/27/27 28/28/28
f 29/29/29 30/30/30 31/31/31 32/32/32
f 33/33/33 34/34/34 35/35/35 36/36/36
f 37/37/37 38/38/38 39/39/39 40/40/40
f 41/41/41 42/42/42 43/43/43 44/44/44
f 45/45/45 46/46/46 47/47/47 48/48/48
f 49/49/49 50/50/50 51/51/51 52/52/52
f 53/53/53 54/54/54 55/55/55 56/56/56
f 57/57/57 58/58/58 59/59/59 60/60/60
f 61/61/61 62/62/62 63/63/63 64/64/64
usemtl inlet_side
f 65/65/65 66/66/66 67/67/67 68/68/68
f 69/69/69 70/70/70 71/71/71 72/72/72
f 73/73/73 74/74/74 75/75/75 76/76/76
f 77/77/77 78/78/78 79/79/79 80/80/80
f 81/81/81 82/82/82 83/83/83 84/84/84
f 85/85/85 86/86/86 87/87/87 88/88/88
f 89/89/89 90/90/90 91/91/91 92/92/92
f 93/93/93 94/94/94 95/95/95 96/96/96
f 97/97/97 98/98/98 99/99/99 100/100/100
f 101/101/101 102/102/102 103/103/103 104/104/104
f 105/105/105 106/106/106 107/107/107 108/108/108
f 109/109/109 110/110/110 111/111/111 112/112/112
f 113/113/113 114/114/114 115/115/115 116/116/116
f 117/117/117 118/118/118 119/119/119 120/120/120
f 121/121/121 122/122/122 123/123/123 124/124/124
f 125/125/125 126/126/126 127/127/127 128/128/128
usemtl casing
f 129/129/129 130/130/130 131/131/131 132/132/132
f 133/133/133 134/134/134 135/135/135 136/136/136
f 137/137/137 138/138/138 139/139/139 140/140/140
f 141/141/141 142/142/142 143/143/143 144/144/144
f 145/145/145 146/146/146 147/147/147 148/148/148
f 149/149/149 150/150/150 151/151/151 152/152/152
f 153/153/153 154/154/154 155/155/155 156/156/156
f 157/157/157 158/158/158 159/159/159 160/160/160
f 161/161/161 162/162/162 163/163/163 164/164/164
f 165/165/165 166/166/166 167/167/167 168/168/168
f 169/169/169 170/170/170 171/171/171 172/172/172
f 173/173/173 174/174/174 175/175/175 176/176/176
f 177/177/177 178/178/178 179/179/179 180/180/180
f 181/181/181 182/182/182 183/183/183 184/184/184
f 185/185/185 186/186/186 187/187/187 188/188/188
f 189/189/189 190/190/190 191/191/191 192/192/192
f 193/193/193 194/194/194 195/195/195 196/196/196
f 197/197/197 198/198/198 199/199/199 200/200/200
f 201/201/201 202/202/202 203/203/203 204/204/204
f 205/205/205 206/206/206 207/207/207 208/208/208
f 209/209/209 210/210/210 211/211/211 212/212/212
f 213/213/213 214/214/214 215/215/215 216/216/216
f 217/217/217 218/218/218 219/219/219 220/220/220
f 221/221/221 222/222/222 223/223/223 224/224/224
f 225/225/225 226/226/226 227/227/227 228/228/228
f 229/229/229 230/230/230 231/231/231 232/232/232
f 233/233/233 234/234/234 235/235/235 236/236/236
f 237/237/237 238/238/238 239/239/239 240/240/240
f 241/241/241 242/242/242 243/243/243 244/244/244
f 245/245/245 246/246/246 247/247/247 248/248/248
f 249/249/249 250/250/250 251/251/251 252/252/252
f 253/253/253 254/254/254 255/255/255 256/256/256
usemtl inlet
f 257/257/257 258/258/258 259/259/259
f 260/260/260 261/261/261 262/262/262
f 263/263/263 264/264/264 265/265/265
f 266/266/266 267/267/267 268/268/268
f 269/269/269 270/270/270 271/271/271
f 272/272/272 273/273/273 274/274/274
f 275/275/275 276/276/276 277/277/277
f 278/278/278 279/279/279 280/280/280
f 281/281/281 282/282/282 283/283/283
f 284/284/284 285/285/285 286/286/286
f 287/287/287 288/288/288 289/289/289
f 290/290/290 291/291/291 292/292/292
f 293/293/293 294/294/294 295/295/295
f 296/296/296 297/297/297 298/298/298
f 299/299/299 300/300/300 301/301/301
f 302/302/302 303/303/303 304/304/304
f 305/305/305 306/306/306 307/307/307
f 308/308/308 309/309/309 310/310/310
f 311/311/311 312/312/312 313/313/313
f 314/314/314 315/315/315 316/316/316
f 317/317/317 318/318/318 319/319/319
f 320/320/320 321/321/321 322/322/322
f 323/323/323 324/324/324 325/325/325
f 326/326/326 327/327/327 328/328/328
f 329/329/329 330/330/330 331/331/331
f 332/332/332 333/333/333 334/334/334
f 335/335/335 336/336/336 337/337/337
f 338/338/338 339/339/339 340/340/340
f 341/341/341 342/342/342 343/343/343
f 344/344/344 345/345/345 346/346/346
usemtl casing
f 347/347/347 348/348/348 349/349/349 350/350/350
f 351/351/351 352/352/352 353/353/353 354/354/354
f 355/355/355 356/356/356 357/357/357 358/358/358
f 359/359/359 360/360/360 361/361/361 362/362/362
f 363/363/363 364/364/364 365/365/365 366/366/366
f 367/367/367 368/368/368 369/369/369 370/370/370
f 371/371/371 372/372/372 373/373/373 374/374/374
f 375/375/375 376/376/376 377/377/377 378/378/378
f 379/379/379 380/380/380 381/381/381 382/382/382
f 383/383/383 384/384/384 385/385/385 386/386/386
f 387/387/387 388/388/388 389/389/389 390/390/390
f 391/391/391 392/392/392 393/393/393 394/394/394
f 395/395/395 396/396/396 397/397/397 398/398/398
f 399/399/399 400/400/400 401/401/401 402/402/402
f 403/403/403 404/404/404 405/405/405 406/406/406
f 407/407/407 408/408/408 409/409/409 410/410/410
f 411/411/411 412/412/412 413/413/413 414/414/414
f 415/415/415 416/416/416 417/417/417 418/418/418
f 419/419/419 420/420/420 421/421/421 422/422/422
f 423/423/423 424/424/424 425/425/425 426/426/426
f 427/427/427 428/428/428 429/429/429 430/430/430
f 431/431/431 432/432/432 433/433/433 434/434/434
f 435/435/435 436/436/436 437/437/437 438/438/438
f 439/439/439 440/440/440 441/441/441 442/442/442
f 443/443/443 444/444/444 445/445/445 446/446/446
f 447/447/447 448/448/448 449/449/449 450/450/450
f 451/451/451 452/452/452 453/453/453 454/454/454
f 455/455/455 456/456/456 457/457/457 458/458/458
f 459/459/459 460/460/460 461/461/461 462/462/462
f 463/463/463 464/464/464 465/465/465 466/466/466
f 467/467/467 468/468/468 469/469/469 470/470/470
f 471/471/471 472/472/472 473/473/473 474/474/474
usemtl inside
f 475/475/475 476/476/476 477/477/477
f 478/478/478 479/479/479 480/480/480
f 481/481/481 482/482/482 483/483/483
f 484/484/484 485/485/485 486/486/486
f 487/487/487 488/488/488 489/489/489
f 490/490/490 491/491/491 492/492/492
f 493/493/493 494/494/494 495/495/495
f 496/496/496 497/497/497 498/498/498
f 499/499/499 500/500/500 501/501/501
f 502/502/502 503/503/503 504/504/504
f 505/505/505 506/506/506 507/507/507
f 508/508/508 509/509/509 510/510/510
f 511/511/511 512/512/512 513/513/513
f 514/514/514 515/515/515 516/516/516
f 517/517/517 518/518/518 519/519/519
f 520/520/520 521/521/521 522/522/522
f 523/523/523 524/524/524 525/525/525
f 526/526/526 527/527/527 528/528/528
f 529/529/529 530/530/530 531/531/531
f 532/532/532 533/533/533 534/534/534
f 535/535/535 536/536/536 537/537/537
f 538/538/538 539/539/539 540/540/540
f 541/541/541 542/542/542 543/543/543
f 544/544/544 545/545/545 546/546/546
f 547/547/547 548/548/548 549/549/549
f 550/550/550 551/551/551 552/552/552
f 553/553/553 554/554/554 555/555/555
f 556/556/556 557/557/557 558/558/558
f 559/559/559 560/560/560 561/561/561
f 562/562/562 563/563/563 564/564/564
usemtl casing
f 565/565/565 566/566/566 567/567/567 568/568/568
f 569/569/569 570/570/570 571/571/571 572/572/572
f 573/573/573 574/574/574 575/575/575 576/576/576
f 577/577/577 578/578/578 579/579/579 580/580/580
usemtl inside
f 581/581/581 582/582/582 583/583/583
f 584/584/584 585/585/585 586/586/586
f 587/587/587 588/588/588 589/589/589
f 590/590/590 591/591/591 592/592/592
f 593/593/593 594/594/594 595/595/595
f 596/596/596 597/597/597 598/598/598
f 599/599/599 600/600/600 601/601/601
f 602/602/602 603/603/603 604/604/604
f 605/605/605 606/606/606 607/607/607
f 608/608/608 609/609/609 610/610/610
f 611/611/611 612/612/612 613/613/613
f 614/614/614 615/615/615 616/616/616
f 617/617/617 618/618/618 619/619/619
f 620/620/620 621/621/621 622/622/622
