mtllib turbine.mtl
o rotor_axle
v 0.64 0.5 0
v 0.629343 0.553576 0
v 0.629343 0.553576 1
v 0.64 0.5 1
v 0.629343 0.553576 0
v 0.598995 0.598995 0
v 0.598995 0.598995 1
v 0.629343 0.553576 1
v 0.598995 0.598995 0
v 0.553576 0.629343 0
v 0.553576 0.629343 1
v 0.598995 0.598995 1
v 0.553576 0.629343 0
v 0.5 0.64 0
v 0.5 0.64 1
v 0.553576 0.629343 1
v 0.5 0.64 0
v 0.446424 0.629343 0
v 0.446424 0.629343 1
v 0.5 0.64 1
v 0.446424 0.629343 0
v 0.401005 0.598995 0
v 0.401005 0.598995 1
v 0.446424 0.629343 1
v 0.401005 0.598995 0
v 0.370657 0.553576 0
v 0.370657 0.553576 1
v 0.401005 0.598995 1
v 0.370657 0.553576 0
v 0.36 0.5 0
v 0.36 0.5 1
v 0.370657 0.553576 1
v 0.36 0.5 0
v 0.370657 0.446424 0
v 0.370657 0.446424 1
v 0.36 0.5 1
v 0.370657 0.446424 0
v 0.401005 0.401005 0
v 0.401005 0.401005 1
v 0.370657 0.446424 1
v 0.401005 0.401005 0
v 0.446424 0.370657 0
v 0.446424 0.370657 1
v 0.401005 0.401005 1
v 0.446424 0.370657 0
v 0.5 0.36 0
v 0.5 0.36 1
v 0.446424 0.370657 1
v 0.5 0.36 0
v 0.553576 0.370657 0
v 0.553576 0.370657 1
v 0.5 0.36 1
v 0.553576 0.370657 0
v 0.598995 0.401005 0
v 0.598995 0.401005 1
v 0.553576 0.370657 1
v 0.598995 0.401005 0
v 0.629343 0.446424 0
v 0.629343 0.446424 1
v 0.598995 0.401005 1
v 0.629343 0.446424 0
v 0.64 0.5 0
v 0.64 0.5 1
v 0.629343 0.446424 1
v 0.598995 0.598995 0
v 0.629343 0.553576 0
v 0.64 0.5 0
v 0.553576 0.629343 0
v 0.598995 0.598995 0
v 0.64 0.5 0
v 0.5 0.64 0
v 0.553576 0.629343 0
v 0.64 0.5 0
v 0.446424 0.629343 0
v 0.5 0.64 0
v 0.64 0.5 0
v 0.401005 0.598995 0
v 0.446424 0.629343 0
v 0.64 0.5 0
v 0.370657 0.553576 0
v 0.401005 0.598995 0
v 0.64 0.5 0
v 0.36 0.5 0
v 0.370657 0.553576 0
v 0.64 0.5 0
v 0.370657 0.446424 0
v 0.36 0.5 0
v 0.64 0.5 0
v 0.401005 0.401005 0
v 0.370657 0.446424 0
v 0.64 0.5 0
v 0.446424 0.370657 0
v 0.401005 0.401005 0
v 0.64 0.5 0
v 0.5 0.36 0
v 0.446424 0.370657 0
v 0.64 0.5 0
v 0.553576 0.370657 0
v 0.5 0.36 0
v 0.64 0.5 0
v 0.598995 0.401005 0
v 0.553576 0.370657 0
v 0.64 0.5 0
v 0.629343 0.446424 0
v 0.598995 0.401005 0
v 0.64 0.5 0
v 0.64 0.5 1
v 0.629343 0.553576 1
v 0.598995 0.598995 1
v 0.64 0.5 1
v 0.598995 0.598995 1
v 0.553576 0.629343 1
v 0.64 0.5 1
v 0.553576 0.629343 1
v 0.5 0.64 1
v 0.64 0.5 1
v 0.5 0.64 1
v 0.446424 0.629343 1
v 0.64 0.5 1
v 0.446424 0.629343 1
v 0.401005 0.598995 1
v 0.64 0.5 1
v 0.401005 0.598995 1
v 0.370657 0.553576 1
v 0.64 0.5 1
v 0.370657 0.553576 1
v 0.36 0.5 1
v 0.64 0.5 1
v 0.36 0.5 1
v 0.370657 0.446424 1
v 0.64 0.5 1
v 0.370657 0.446424 1
v 0.401005 0.401005 1
v 0.64 0.5 1
v 0.401005 0.401005 1
v 0.446424 0.370657 1
v 0.64 0.5 1
v 0.446424 0.370657 1
v 0.5 0.36 1
v 0.64 0.5 1
v 0.5 0.36 1
v 0.553576 0.370657 1
v 0.64 0.5 1
v 0.553576 0.370657 1
v 0.598995 0.401005 1
v 0.64 0.5 1
v 0.598995 0.401005 1
v 0.629343 0.446424 1
vt 0 0
vt 0 1
vt 1 1
vt 1 0
vt 0 0
vt 0 1
vt 1 1
vt 1 0
vt 1 0
vt 0 0
vt 0 1
vt 1 1
vt 1 0
vt 0 0
vt 0 1
vt 1 1
vt 1 0
vt 0 0
vt 0 1
vt 1 1
vt 1 0
vt 0 0
vt 0 1
vt 1 1
vt 0 1
vt 0 0
vt 1 0
vt 1 1
vt 0 1
vt 0 0
vt 1 0
vt 1 1
vt 0 1
vt 0 0
vt 1 0
vt 1 1
vt 0 1
vt 0 0
vt 1 0
vt 1 1
vt 0 0
vt 1 0
vt 1 1
vt 0 1
vt 0 0
vt 1 0
vt 1 1
vt 0 1
vt 0 0
vt 1 0
vt 1 1
vt 0 1
vt 0 0
vt 1 0
vt 1 1
vt 0 1
vt 0 0
vt 0 1
vt 1 1
vt 1 0
vt 0 0
vt 0 1
vt 1 1
vt 1 0
vt 0 1
vt 0.740108 0.541196
vt 1 0
vt 0 1
vt 0.525538 0.765367
vt 1 0
vt 0 1
vt 0.382683 0.92388
vt 1 0
vt 0 0.92388
vt 0.276769 1
vt 1 0
vt 0 0.765367
vt 0.190043 1
vt 1 0
vt 0 0.541196
vt 0.112675 1
vt 1 0
vt 0 0
vt 0.03806 1
vt 1 0
vt 0.03806 0
vt 0 1
vt 1 1
vt 0.112675 0
vt 0 0.458804
vt 1 1
vt 0.190043 0
vt 0 0.234633
vt 1 1
vt 0.276769 0
vt 0 0.07612
vt 1 1
vt 0.382683 0.07612
vt 0 0
vt 1 1
vt 0.525538 0.234633
vt 0 0
vt 1 1
vt 0.740108 0.458804
vt 0 0
vt 1 1
vt 1 0
vt 0.740108 0.541196
vt 0 1
vt 1 0
vt 0.525538 0.765367
vt 0 1
vt 1 0
vt 0.382683 0.92388
vt 0 1
vt 1 0
vt 0.276769 1
vt 0 0.92388
vt 1 0
vt 0.190043 1
vt 0 0.765367
vt 1 0
vt 0.112675 1
vt 0 0.541196
vt 1 0
vt 0.03806 1
vt 0 0
vt 1 1
vt 0 1
vt 0.03806 0
vt 1 1
vt 0 0.458804
vt 0.112675 0
vt 1 1
vt 0 0.234633
vt 0.190043 0
vt 1 1
vt 0 0.07612
vt 0.276769 0
vt 1 1
vt 0 0
vt 0.382683 0.07612
vt 1 1
vt 0 0
vt 0.525538 0.234633
vt 1 1
vt 0 0
vt 0.740108 0.458804
vn 0.980785 0.19509 0
vn 0.980785 0.19509 0
vn 0.980785 0.19509 0
vn 0.980785 0.19509 0
vn 0.83147 0.55557 0
vn 0.83147 0.55557 0
vn 0.83147 0.55557 0
vn 0.83147 0.55557 0
vn 0.55557 0.83147 0
vn 0.55557 0.83147 0
vn 0.55557 0.83147 0
vn 0.55557 0.83147 0
vn 0.19509 0.980785 0
vn 0.19509 0.980785 0
vn 0.19509 0.980785 0
vn 0.19509 0.980785 0
vn -0.19509 0.980785 0
vn -0.19509 0.980785 0
vn -0.19509 0.980785 0
vn -0.19509 0.980785 0
vn -0.55557 0.83147 0
vn -0.55557 0.83147 0
vn -0.55557 0.83147 0
vn -0.55557 0.83147 0
vn -0.83147 0.55557 0
vn -0.83147 0.55557 0
vn -0.83147 0.55557 0
vn -0.83147 0.55557 0
vn -0.980785 0.19509 0
vn -0.980785 0.19509 0
vn -0.980785 0.19509 0
vn -0.980785 0.19509 0
vn -0.980785 -0.19509 0
vn -0.980785 -0.19509 0
vn -0.980785 -0.19509 0
vn -0.980785 -0.19509 0
vn -0.83147 -0.55557 0
vn -0.83147 -0.55557 0
vn -0.83147 -0.55557 0
vn -0.83147 -0.55557 0
vn -0.55557 -0.83147 0
vn -0.55557 -0.83147 0
vn -0.55557 -0.83147 0
vn -0.55557 -0.83147 0
vn -0.19509 -0.980785 0
vn -0.19509 -0.980785 0
vn -0.19509 -0.980785 0
vn -0.19509 -0.980785 0
vn 0.19509 -0.980785 0
vn 0.19509 -0.980785 0
vn 0.19509 -0.980785 0
vn 0.19509 -0.980785 0
vn 0.55557 -0.83147 0
vn 0.55557 -0.83147 0
vn 0.55557 -0.83147 0
vn 0.55557 -0.83147 0
vn 0.83147 -0.55557 0
vn 0.83147 -0.55557 0
vn 0.83147 -0.55557 0
vn 0.83147 -0.55557 0
vn 0.980785 -0.19509 0
vn 0.980785 -0.19509 0
vn 0.980785 -0.19509 0
vn 0.980785 -0.19509 0
vn 0 0 -1
vn 0 0 -1
vn 0 0 -1
vn 0 0 -1
vn 0 0 -1
vn 0 0 -1
vn 0 0 -1
vn 0 0 -1
vn 0 0 -1
vn 0 0 -1
vn 0 0 -1
vn 0 0 -1
vn 0 0 -1
vn 0 0 -1
vn 0 0 -1
vn 0 0 -1
vn 0 0 -1
vn 0 0 -1
vn 0 0 -1
vn 0 0 -1
vn 0 0 -1
vn 0 0 -1
vn 0 0 -1
vn 0 0 -1
vn 0 0 -1
vn 0 0 -1
vn 0 0 -1
vn 0 0 -1
vn 0 0 -1
vn 0 0 -1
vn 0 0 -1
vn 0 0 -1
vn 0 0 -1
vn 0 0 -1
vn 0 0 -1
vn 0 0 -1
vn 0 0 -1
vn 0 0 -1
vn 0 0 -1
vn 0 0 -1
vn 0 0 -1
vn 0 0 -1
vn 0 0 1
vn 0 0 1
vn 0 0 1
vn 0 0 1
vn 0 0 1
vn 0 0 1
vn 0 0 1
vn 0 0 1
vn 0 0 1
vn 0 0 1
vn 0 0 1
vn 0 0 1
vn 0 0 1
vn 0 0 1
vn 0 0 1
vn 0 0 1
vn 0 0 1
vn 0 0 1
vn 0 0 1
vn 0 0 1
vn 0 0 1
vn 0 0 1
vn 0 0 1
vn 0 0 1
vn 0 0 1
vn 0 0 1
vn 0 0 1
vn 0 0 1
vn 0 0 1
vn 0 0 1
vn 0 0 1
vn 0 0 1
vn 0 0 1
vn 0 0 1
vn 0 0 1
vn 0 0 1
vn 0 0 1
vn 0 0 1
vn 0 0 1
vn 0 0 1
vn 0 0 1
vn 0 0 1
usemtl shaft
f 1/1/1 2/2/2 3/3/3 4/4/4
f 5/5/5 6/6/6 7/7/7 8/8/8
f 9/9/9 10/10/10 11/11/11 12/12/12
f 13/13/13 14/14/14 15/15/15 16/16/16
f 17/17/17 18/18/18 19/19/19 20/20/20
f 21/21/21 22/22/22 23/23/23 24/24/24
f 25/25/25 26/26/26 27/27/27 28/28/28
f 29/29/29 30/30/30 31/31/31 32/32/32
f 33/33/33 34/34/34 35/35/35 36/36/36
f 37/37/37 38/38/38 39/39/39 40/40/40
f 41/41/41 42/42/42 43/43/43 44/44/44
f 45/45/45 46/46/46 47/47/47 48/48/48
f 49/49/49 50/50/50 51/51/51 52/52/52
f 53/53/53 54/54/54 55/55/55 56/56/56
f 57/57/57 58/58/58 59/59/59 60/60/60
f 61/61/61 62/62/62 63/63/63 64/64/64
f 65/65/65 66/66/66 67/67/67
f 68/68/68 69/69/69 70/70/70
f 71/71/71 72/72/72 73/73/73
f 74/74/74 75/75/75 76/76/76
f 77/77/77 78/78/78 79/79/79
f 80/80/80 81/81/81 82/82/82
f 83/83/83 84/84/84 85/85/85
f 86/86/86 87/87/87 88/88/88
f 89/89/89 90/90/90 91/91/91
f 92/92/92 93/93/93 94/94/94
f 95/95/95 96/96/96 97/97/97
f 98/98/98 99/99/99 100/100/100
f 101/101/101 102/102/102 103/103/103
f 104/104/104 105/105/105 106/106/106
f 107/107/107 108/108/108 109/109/109
f 110/110/110 111/111/111 112/112/112
f 113/113/113 114/114/114 115/115/115
f 116/116/116 117/117/117 118/118/118
f 119/119/119 120/120/120 121/121/121
f 122/122/122 123/123/123 124/124/124
f 125/125/125 126/126/126 127/127/127
f 128/128/128 129/129/129 130/130/130
f 131/131/131 132/132/132 133/133/133
f 134/134/134 135/135/135 136/136/136
f 137/137/137 138/138/138 139/139/139
f 140/140/140 141/141/141 142/142/142
f 143/143/143 144/144/144 145/145/145
f 146/146/146 147/147/147 148/148/148
