mtllib turbine.mtl
o turbine_casing_unformed_down
v 1 0 1
v 0 0 1
v 0 0 0
v 1 0 0
v 0 0 1
v 0 0.1875 1
v 0 0.1875 0
v 0 0 0
v 0 0.1875 1
v 1 0.1875 1
v 1 0.1875 0
v 0 0.1875 0
v 1 0.1875 1
v 1 0 1
v 1 0 0
v 1 0.1875 0
vt 1 1
vt 0 1
vt 0 0
vt 1 0
vt 1 0
vt 1 1
vt 0 1
vt 0 0
vt 0 1
vt 1 1
vt 1 0
vt 0 0
vt 1 1
vt 1 0
vt 0 0
vt 0 1
vn 0 -1 0
vn 0 -1 0
vn 0 -1 0
vn 0 -1 0
vn -1 0 0
vn -1 0 0
vn -1 0 0
vn -1 0 0
vn 0 1 0
vn 0 1 0
vn 0 1 0
vn 0 1 0
vn 1 0 0
vn 1 0 0
vn 1 0 0
vn 1 0 0
usemtl casing
f 1/1/1 2/2/2 3/3/3 4/4/4
usemtl edge
f 5/5/5 6/6/6 7/7/7 8/8/8
usemtl inside
f 9/9/9 10/10/10 11/11/11 12/12/12
usemtl edge
f 13/13/13 14/14/14 15/15/15 16/16/16
